<mxfile host="Electron" agent="Mozilla/5.0 (X11; Linux x86_64) AppleWebKit/537.36 (KHTML, like Gecko) draw.io/24.7.8 Chrome/128.0.6613.36 Electron/32.0.1 Safari/537.36" version="24.7.8">
  <diagram name="Page-1" id="y7YkrRH8oAkDRZRENA7J">
    <mxGraphModel dx="1434" dy="870" grid="1" gridSize="10" guides="1" tooltips="1" connect="1" arrows="1" fold="1" page="1" pageScale="1" pageWidth="827" pageHeight="1169" background="#ffffff" math="0" shadow="0">
      <root>
        <mxCell id="0" />
        <mxCell id="1" parent="0" />
        <mxCell id="7UN7z7uZsTetFS3GHODO-1" value="" style="rounded=1;whiteSpace=wrap;html=1;fillColor=none;fontColor=#ffffff;strokeColor=#3700CC;strokeWidth=3;" vertex="1" parent="1">
          <mxGeometry x="240" y="360" width="340" height="380" as="geometry" />
        </mxCell>
        <mxCell id="7UN7z7uZsTetFS3GHODO-2" value="" style="rounded=1;whiteSpace=wrap;html=1;fillColor=none;fontColor=#ffffff;strokeColor=#FF0080;strokeWidth=3;" vertex="1" parent="1">
          <mxGeometry x="260" y="450" width="300" height="270" as="geometry" />
        </mxCell>
        <mxCell id="7UN7z7uZsTetFS3GHODO-3" value="&lt;h1&gt;&lt;font color=&quot;#000000&quot;&gt;PyQRCode&lt;/font&gt;&lt;/h1&gt;" style="rounded=1;whiteSpace=wrap;html=1;fillColor=none;fontColor=#ffffff;strokeColor=#2D7600;strokeWidth=3;" vertex="1" parent="1">
          <mxGeometry x="420" y="560" width="130" height="140" as="geometry" />
        </mxCell>
        <mxCell id="7UN7z7uZsTetFS3GHODO-5" value="&lt;meta charset=&quot;utf-8&quot;&gt;&lt;h1&gt;PyOTP&lt;/h1&gt;" style="rounded=1;whiteSpace=wrap;html=1;fillColor=none;fontColor=#000000;strokeColor=#B09500;strokeWidth=3;" vertex="1" parent="1">
          <mxGeometry x="280" y="560" width="120" height="140" as="geometry" />
        </mxCell>
        <mxCell id="7UN7z7uZsTetFS3GHODO-6" value="" style="shape=image;aspect=fixed;image=data:image/svg+xml,PD94bWwgdmVyc2lvbj0iMS4wIiBlbmNvZGluZz0iVVRGLTgiIHN0YW5kYWxvbmU9Im5vIj8+CjwhLS0gQ3JlYXRlZCB3aXRoIElua3NjYXBlIChodHRwOi8vd3d3Lmlua3NjYXBlLm9yZy8pIC0tPgo8c3ZnIHZlcnNpb249IjEuMCIgaWQ9InN2ZzIiIHNvZGlwb2RpOnZlcnNpb249IjAuMzIiIGlua3NjYXBlOnZlcnNpb249IjEuMi4xICg5YzZkNDFlNDEwLCAyMDIyLTA3LTE0KSIgc29kaXBvZGk6ZG9jbmFtZT0icHl0aG9uLWxvZ28tb25seS5zdmciIHdpZHRoPSI5Mi4wNzAyMzZwdCIgaGVpZ2h0PSIxMDEuMDAxMDhwdCIgaW5rc2NhcGU6ZXhwb3J0LWZpbGVuYW1lPSJweXRob24tbG9nby1vbmx5LnBuZyIgaW5rc2NhcGU6ZXhwb3J0LXhkcGk9IjIzMi40NCIgaW5rc2NhcGU6ZXhwb3J0LXlkcGk9IjIzMi40NCIgeG1sbnM6aW5rc2NhcGU9Imh0dHA6Ly93d3cuaW5rc2NhcGUub3JnL25hbWVzcGFjZXMvaW5rc2NhcGUiIHhtbG5zOnNvZGlwb2RpPSJodHRwOi8vc29kaXBvZGkuc291cmNlZm9yZ2UubmV0L0RURC9zb2RpcG9kaS0wLmR0ZCIgeG1sbnM6eGxpbms9Imh0dHA6Ly93d3cudzMub3JnLzE5OTkveGxpbmsiIHhtbG5zPSJodHRwOi8vd3d3LnczLm9yZy8yMDAwL3N2ZyIgeG1sbnM6c3ZnPSJodHRwOi8vd3d3LnczLm9yZy8yMDAwL3N2ZyIgeG1sbnM6cmRmPSJodHRwOi8vd3d3LnczLm9yZy8xOTk5LzAyLzIyLXJkZi1zeW50YXgtbnMjIiB4bWxuczpjYz0iaHR0cDovL2NyZWF0aXZlY29tbW9ucy5vcmcvbnMjIiB4bWxuczpkYz0iaHR0cDovL3B1cmwub3JnL2RjL2VsZW1lbnRzLzEuMS8iPgogIDxtZXRhZGF0YSBpZD0ibWV0YWRhdGEzNzEiPgogICAgPHJkZjpSREY+CiAgICAgIDxjYzpXb3JrIHJkZjphYm91dD0iIj4KICAgICAgICA8ZGM6Zm9ybWF0PmltYWdlL3N2Zyt4bWw8L2RjOmZvcm1hdD4KICAgICAgICA8ZGM6dHlwZSByZGY6cmVzb3VyY2U9Imh0dHA6Ly9wdXJsLm9yZy9kYy9kY21pdHlwZS9TdGlsbEltYWdlIi8+CiAgICAgIDwvY2M6V29yaz4KICAgIDwvcmRmOlJERj4KICA8L21ldGFkYXRhPgogIDxzb2RpcG9kaTpuYW1lZHZpZXcgaW5rc2NhcGU6d2luZG93LWhlaWdodD0iMjA4MCIgaW5rc2NhcGU6d2luZG93LXdpZHRoPSIxOTc2IiBpbmtzY2FwZTpwYWdlc2hhZG93PSIyIiBpbmtzY2FwZTpwYWdlb3BhY2l0eT0iMC4wIiBndWlkZXRvbGVyYW5jZT0iMTAuMCIgZ3JpZHRvbGVyYW5jZT0iMTAuMCIgb2JqZWN0dG9sZXJhbmNlPSIxMC4wIiBib3JkZXJvcGFjaXR5PSIxLjAiIGJvcmRlcmNvbG9yPSIjNjY2NjY2IiBwYWdlY29sb3I9IiNmZmZmZmYiIGlkPSJiYXNlIiBpbmtzY2FwZTp6b29tPSIyLjE0NjE2NDIiIGlua3NjYXBlOmN4PSI5MS41NTg2OTgiIGlua3NjYXBlOmN5PSI0Ny45OTI2IiBpbmtzY2FwZTp3aW5kb3cteD0iMTA5MiIgaW5rc2NhcGU6d2luZG93LXk9IjcyIiBpbmtzY2FwZTpjdXJyZW50LWxheWVyPSJzdmcyIiB3aWR0aD0iMjEwbW0iIGhlaWdodD0iNDBtbSIgdW5pdHM9Im1tIiBpbmtzY2FwZTpzaG93cGFnZXNoYWRvdz0iMiIgaW5rc2NhcGU6cGFnZWNoZWNrZXJib2FyZD0iMCIgaW5rc2NhcGU6ZGVza2NvbG9yPSIjZDFkMWQxIiBpbmtzY2FwZTpkb2N1bWVudC11bml0cz0icHQiIHNob3dncmlkPSJmYWxzZSIgaW5rc2NhcGU6d2luZG93LW1heGltaXplZD0iMCIvPgogIDxkZWZzIGlkPSJkZWZzNCI+CiAgICA8bGluZWFyR3JhZGllbnQgaWQ9ImxpbmVhckdyYWRpZW50Mjc5NSI+CiAgICAgIDxzdG9wIHN0eWxlPSJzdG9wLWNvbG9yOiNiOGI4Yjg7c3RvcC1vcGFjaXR5OjAuNDk4MDM5MjI7IiBvZmZzZXQ9IjAiIGlkPSJzdG9wMjc5NyIvPgogICAgICA8c3RvcCBzdHlsZT0ic3RvcC1jb2xvcjojN2Y3ZjdmO3N0b3Atb3BhY2l0eTowOyIgb2Zmc2V0PSIxIiBpZD0ic3RvcDI3OTkiLz4KICAgIDwvbGluZWFyR3JhZGllbnQ+CiAgICA8bGluZWFyR3JhZGllbnQgaWQ9ImxpbmVhckdyYWRpZW50Mjc4NyI+CiAgICAgIDxzdG9wIHN0eWxlPSJzdG9wLWNvbG9yOiM3ZjdmN2Y7c3RvcC1vcGFjaXR5OjAuNTsiIG9mZnNldD0iMCIgaWQ9InN0b3AyNzg5Ii8+CiAgICAgIDxzdG9wIHN0eWxlPSJzdG9wLWNvbG9yOiM3ZjdmN2Y7c3RvcC1vcGFjaXR5OjA7IiBvZmZzZXQ9IjEiIGlkPSJzdG9wMjc5MSIvPgogICAgPC9saW5lYXJHcmFkaWVudD4KICAgIDxsaW5lYXJHcmFkaWVudCBpZD0ibGluZWFyR3JhZGllbnQzNjc2Ij4KICAgICAgPHN0b3Agc3R5bGU9InN0b3AtY29sb3I6I2IyYjJiMjtzdG9wLW9wYWNpdHk6MC41OyIgb2Zmc2V0PSIwIiBpZD0ic3RvcDM2NzgiLz4KICAgICAgPHN0b3Agc3R5bGU9InN0b3AtY29sb3I6I2IzYjNiMztzdG9wLW9wYWNpdHk6MDsiIG9mZnNldD0iMSIgaWQ9InN0b3AzNjgwIi8+CiAgICA8L2xpbmVhckdyYWRpZW50PgogICAgPGxpbmVhckdyYWRpZW50IGlkPSJsaW5lYXJHcmFkaWVudDMyMzYiPgogICAgICA8c3RvcCBzdHlsZT0ic3RvcC1jb2xvcjojZjRmNGY0O3N0b3Atb3BhY2l0eToxIiBvZmZzZXQ9IjAiIGlkPSJzdG9wMzI0NCIvPgogICAgICA8c3RvcCBzdHlsZT0ic3RvcC1jb2xvcjp3aGl0ZTtzdG9wLW9wYWNpdHk6MSIgb2Zmc2V0PSIxIiBpZD0ic3RvcDMyNDAiLz4KICAgIDwvbGluZWFyR3JhZGllbnQ+CiAgICA8bGluZWFyR3JhZGllbnQgaWQ9ImxpbmVhckdyYWRpZW50NDY3MSI+CiAgICAgIDxzdG9wIHN0eWxlPSJzdG9wLWNvbG9yOiNmZmQ0M2I7c3RvcC1vcGFjaXR5OjE7IiBvZmZzZXQ9IjAiIGlkPSJzdG9wNDY3MyIvPgogICAgICA8c3RvcCBzdHlsZT0ic3RvcC1jb2xvcjojZmZlODczO3N0b3Atb3BhY2l0eToxIiBvZmZzZXQ9IjEiIGlkPSJzdG9wNDY3NSIvPgogICAgPC9saW5lYXJHcmFkaWVudD4KICAgIDxsaW5lYXJHcmFkaWVudCBpZD0ibGluZWFyR3JhZGllbnQ0Njg5Ij4KICAgICAgPHN0b3Agc3R5bGU9InN0b3AtY29sb3I6IzVhOWZkNDtzdG9wLW9wYWNpdHk6MTsiIG9mZnNldD0iMCIgaWQ9InN0b3A0NjkxIi8+CiAgICAgIDxzdG9wIHN0eWxlPSJzdG9wLWNvbG9yOiMzMDY5OTg7c3RvcC1vcGFjaXR5OjE7IiBvZmZzZXQ9IjEiIGlkPSJzdG9wNDY5MyIvPgogICAgPC9saW5lYXJHcmFkaWVudD4KICAgIDxsaW5lYXJHcmFkaWVudCB4MT0iMjI0LjIzOTk2IiB5MT0iMTQ0Ljc1NzE3IiB4Mj0iLTY1LjMwODUwMiIgeTI9IjE0NC43NTcxNyIgaWQ9ImxpbmVhckdyYWRpZW50Mjk4NyIgeGxpbms6aHJlZj0iI2xpbmVhckdyYWRpZW50NDY3MSIgZ3JhZGllbnRVbml0cz0idXNlclNwYWNlT25Vc2UiIGdyYWRpZW50VHJhbnNmb3JtPSJ0cmFuc2xhdGUoMTAwLjI3MDIsOTkuNjExMTYpIi8+CiAgICA8bGluZWFyR3JhZGllbnQgeDE9IjE3Mi45NDIwOCIgeTE9Ijc3LjQ3NTk4MyIgeDI9IjI2LjY3MDI5OCIgeTI9Ijc2LjMxMzEzMyIgaWQ9ImxpbmVhckdyYWRpZW50Mjk5MCIgeGxpbms6aHJlZj0iI2xpbmVhckdyYWRpZW50NDY4OSIgZ3JhZGllbnRVbml0cz0idXNlclNwYWNlT25Vc2UiIGdyYWRpZW50VHJhbnNmb3JtPSJ0cmFuc2xhdGUoMTAwLjI3MDIsOTkuNjExMTYpIi8+CiAgICA8bGluZWFyR3JhZGllbnQgaW5rc2NhcGU6Y29sbGVjdD0iYWx3YXlzIiB4bGluazpocmVmPSIjbGluZWFyR3JhZGllbnQ0Njg5IiBpZD0ibGluZWFyR3JhZGllbnQyNTg3IiBncmFkaWVudFVuaXRzPSJ1c2VyU3BhY2VPblVzZSIgZ3JhZGllbnRUcmFuc2Zvcm09InRyYW5zbGF0ZSgxMDAuMjcwMiw5OS42MTExNikiIHgxPSIxNzIuOTQyMDgiIHkxPSI3Ny40NzU5ODMiIHgyPSIyNi42NzAyOTgiIHkyPSI3Ni4zMTMxMzMiLz4KICAgIDxsaW5lYXJHcmFkaWVudCBpbmtzY2FwZTpjb2xsZWN0PSJhbHdheXMiIHhsaW5rOmhyZWY9IiNsaW5lYXJHcmFkaWVudDQ2NzEiIGlkPSJsaW5lYXJHcmFkaWVudDI1ODkiIGdyYWRpZW50VW5pdHM9InVzZXJTcGFjZU9uVXNlIiBncmFkaWVudFRyYW5zZm9ybT0idHJhbnNsYXRlKDEwMC4yNzAyLDk5LjYxMTE2KSIgeDE9IjIyNC4yMzk5NiIgeTE9IjE0NC43NTcxNyIgeDI9Ii02NS4zMDg1MDIiIHkyPSIxNDQuNzU3MTciLz4KICAgIDxsaW5lYXJHcmFkaWVudCBpbmtzY2FwZTpjb2xsZWN0PSJhbHdheXMiIHhsaW5rOmhyZWY9IiNsaW5lYXJHcmFkaWVudDQ2ODkiIGlkPSJsaW5lYXJHcmFkaWVudDIyNDgiIGdyYWRpZW50VW5pdHM9InVzZXJTcGFjZU9uVXNlIiBncmFkaWVudFRyYW5zZm9ybT0idHJhbnNsYXRlKDEwMC4yNzAyLDk5LjYxMTE2KSIgeDE9IjE3Mi45NDIwOCIgeTE9Ijc3LjQ3NTk4MyIgeDI9IjI2LjY3MDI5OCIgeTI9Ijc2LjMxMzEzMyIvPgogICAgPGxpbmVhckdyYWRpZW50IGlua3NjYXBlOmNvbGxlY3Q9ImFsd2F5cyIgeGxpbms6aHJlZj0iI2xpbmVhckdyYWRpZW50NDY3MSIgaWQ9ImxpbmVhckdyYWRpZW50MjI1MCIgZ3JhZGllbnRVbml0cz0idXNlclNwYWNlT25Vc2UiIGdyYWRpZW50VHJhbnNmb3JtPSJ0cmFuc2xhdGUoMTAwLjI3MDIsOTkuNjExMTYpIiB4MT0iMjI0LjIzOTk2IiB5MT0iMTQ0Ljc1NzE3IiB4Mj0iLTY1LjMwODUwMiIgeTI9IjE0NC43NTcxNyIvPgogICAgPGxpbmVhckdyYWRpZW50IGlua3NjYXBlOmNvbGxlY3Q9ImFsd2F5cyIgeGxpbms6aHJlZj0iI2xpbmVhckdyYWRpZW50NDY3MSIgaWQ9ImxpbmVhckdyYWRpZW50MjI1NSIgZ3JhZGllbnRVbml0cz0idXNlclNwYWNlT25Vc2UiIGdyYWRpZW50VHJhbnNmb3JtPSJtYXRyaXgoMC41NjI1NDEsMCwwLDAuNTY3OTcyLC0xMS41OTc0LC03LjYwOTU0KSIgeDE9IjIyNC4yMzk5NiIgeTE9IjE0NC43NTcxNyIgeDI9Ii02NS4zMDg1MDIiIHkyPSIxNDQuNzU3MTciLz4KICAgIDxsaW5lYXJHcmFkaWVudCBpbmtzY2FwZTpjb2xsZWN0PSJhbHdheXMiIHhsaW5rOmhyZWY9IiNsaW5lYXJHcmFkaWVudDQ2ODkiIGlkPSJsaW5lYXJHcmFkaWVudDIyNTgiIGdyYWRpZW50VW5pdHM9InVzZXJTcGFjZU9uVXNlIiBncmFkaWVudFRyYW5zZm9ybT0ibWF0cml4KDAuNTYyNTQxLDAsMCwwLjU2Nzk3MiwtMTEuNTk3NCwtNy42MDk1NCkiIHgxPSIxNzIuOTQyMDgiIHkxPSI3Ni4xNzYyMjQiIHgyPSIyNi42NzAyOTgiIHkyPSI3Ni4zMTMxMzMiLz4KICAgIDxyYWRpYWxHcmFkaWVudCBpbmtzY2FwZTpjb2xsZWN0PSJhbHdheXMiIHhsaW5rOmhyZWY9IiNsaW5lYXJHcmFkaWVudDI3OTUiIGlkPSJyYWRpYWxHcmFkaWVudDI4MDEiIGN4PSI2MS41MTg4ODMiIGN5PSIxMzIuMjg1NzUiIGZ4PSI2MS41MTg4ODMiIGZ5PSIxMzIuMjg1NzUiIHI9IjI5LjAzNjkxMyIgZ3JhZGllbnRUcmFuc2Zvcm09Im1hdHJpeCgxLDAsMCwwLjE3Nzk2NiwwLDEwOC43NDM0KSIgZ3JhZGllbnRVbml0cz0idXNlclNwYWNlT25Vc2UiLz4KICAgIDxsaW5lYXJHcmFkaWVudCBpbmtzY2FwZTpjb2xsZWN0PSJhbHdheXMiIHhsaW5rOmhyZWY9IiNsaW5lYXJHcmFkaWVudDQ2NzEiIGlkPSJsaW5lYXJHcmFkaWVudDE0NzUiIGdyYWRpZW50VW5pdHM9InVzZXJTcGFjZU9uVXNlIiBncmFkaWVudFRyYW5zZm9ybT0ibWF0cml4KDAuNTYyNTQxLDAsMCwwLjU2Nzk3MiwtMTQuOTkxMTIsLTExLjcwMjM3MSkiIHgxPSIxNTAuOTYxMTEiIHkxPSIxOTIuMzUxNzYiIHgyPSIxMTIuMDMxNDQiIHkyPSIxMzcuMjcyOTkiLz4KICAgIDxsaW5lYXJHcmFkaWVudCBpbmtzY2FwZTpjb2xsZWN0PSJhbHdheXMiIHhsaW5rOmhyZWY9IiNsaW5lYXJHcmFkaWVudDQ2ODkiIGlkPSJsaW5lYXJHcmFkaWVudDE0NzgiIGdyYWRpZW50VW5pdHM9InVzZXJTcGFjZU9uVXNlIiBncmFkaWVudFRyYW5zZm9ybT0ibWF0cml4KDAuNTYyNTQxLDAsMCwwLjU2Nzk3MiwtMTQuOTkxMTIsLTExLjcwMjM3MSkiIHgxPSIyNi42NDg5MzciIHkxPSIyMC42MDM3ODEiIHgyPSIxMzUuNjY1MjUiIHkyPSIxMTQuMzk3NjciLz4KICAgIDxyYWRpYWxHcmFkaWVudCBpbmtzY2FwZTpjb2xsZWN0PSJhbHdheXMiIHhsaW5rOmhyZWY9IiNsaW5lYXJHcmFkaWVudDI3OTUiIGlkPSJyYWRpYWxHcmFkaWVudDE0ODAiIGdyYWRpZW50VW5pdHM9InVzZXJTcGFjZU9uVXNlIiBncmFkaWVudFRyYW5zZm9ybT0ibWF0cml4KDEuNzQ5MDU2NWUtOCwtMC4yMzk5NDY5NiwxLjA1NDY2OCwzLjc5MTU0NTdlLTcsLTgzLjcwMDgsMTQyLjQ2MjAxKSIgY3g9IjYxLjUxODg4MyIgY3k9IjEzMi4yODU3NSIgZng9IjYxLjUxODg4MyIgZnk9IjEzMi4yODU3NSIgcj0iMjkuMDM2OTEzIi8+CiAgPC9kZWZzPgogIDxwYXRoIHN0eWxlPSJmaWxsOnVybCgjbGluZWFyR3JhZGllbnQxNDc4KTtmaWxsLW9wYWNpdHk6MSIgZD0iTSA1NC45MTg3ODUsOS4xOTI3Mzg5ZS00IEMgNTAuMzM1MTMyLDAuMDIyMjE3MjcgNDUuOTU3ODQ2LDAuNDEzMTM2OTcgNDIuMTA2Mjg1LDEuMDk0NjY5MyAzMC43NjAwNjksMy4wOTkxNzMxIDI4LjcwMDAzNiw3LjI5NDc3MTQgMjguNzAwMDM1LDE1LjAzMjE2OSB2IDEwLjIxODc1IGggMjYuODEyNSB2IDMuNDA2MjUgaCAtMjYuODEyNSAtMTAuMDYyNSBjIC03Ljc5MjQ1OSwwIC0xNC42MTU3NTg4LDQuNjgzNzE3IC0xNi43NDk5OTk4LDEzLjU5Mzc1IC0yLjQ2MTgxOTk4LDEwLjIxMjk2NiAtMi41NzEwMTUwOCwxNi41ODYwMjMgMCwyNy4yNSAxLjkwNTkyODMsNy45Mzc4NTIgNi40NTc1NDMyLDEzLjU5Mzc0OCAxNC4yNDk5OTk4LDEzLjU5Mzc1IGggOS4yMTg3NSB2IC0xMi4yNSBjIDAsLTguODQ5OTAyIDcuNjU3MTQ0LC0xNi42NTYyNDggMTYuNzUsLTE2LjY1NjI1IGggMjYuNzgxMjUgYyA3LjQ1NDk1MSwwIDEzLjQwNjI1MywtNi4xMzgxNjQgMTMuNDA2MjUsLTEzLjYyNSB2IC0yNS41MzEyNSBjIDAsLTcuMjY2MzM4NiAtNi4xMjk5OCwtMTIuNzI0Nzc3MSAtMTMuNDA2MjUsLTEzLjkzNzQ5OTcgQyA2NC4yODE1NDgsMC4zMjc5NDM5NyA1OS41MDI0MzgsLTAuMDIwMzc5MDMgNTQuOTE4Nzg1LDkuMTkyNzM4OWUtNCBaIG0gLTE0LjUsOC4yMTg3NTAxMjYxMSBjIDIuNzY5NTQ3LDAgNS4wMzEyNSwyLjI5ODY0NTYgNS4wMzEyNSw1LjEyNDk5OTYgLTJlLTYsMi44MTYzMzYgLTIuMjYxNzAzLDUuMDkzNzUgLTUuMDMxMjUsNS4wOTM3NSAtMi43Nzk0NzYsLTFlLTYgLTUuMDMxMjUsLTIuMjc3NDE1IC01LjAzMTI1LC01LjA5Mzc1IC0xMGUtNywtMi44MjYzNTMgMi4yNTE3NzQsLTUuMTI0OTk5NiA1LjAzMTI1LC01LjEyNDk5OTYgeiIgaWQ9InBhdGgxOTQ4Ii8+CiAgPHBhdGggc3R5bGU9ImZpbGw6dXJsKCNsaW5lYXJHcmFkaWVudDE0NzUpO2ZpbGwtb3BhY2l0eToxIiBkPSJtIDg1LjYzNzUzNSwyOC42NTcxNjkgdiAxMS45MDYyNSBjIDAsOS4yMzA3NTUgLTcuODI1ODk1LDE2Ljk5OTk5OSAtMTYuNzUsMTcgaCAtMjYuNzgxMjUgYyAtNy4zMzU4MzMsMCAtMTMuNDA2MjQ5LDYuMjc4NDgzIC0xMy40MDYyNSwxMy42MjUgdiAyNS41MzEyNDcgYyAwLDcuMjY2MzQ0IDYuMzE4NTg4LDExLjU0MDMyNCAxMy40MDYyNSwxMy42MjUwMDQgOC40ODczMzEsMi40OTU2MSAxNi42MjYyMzcsMi45NDY2MyAyNi43ODEyNSwwIDYuNzUwMTU1LC0xLjk1NDM5IDEzLjQwNjI1MywtNS44ODc2MSAxMy40MDYyNSwtMTMuNjI1MDA0IFYgODYuNTAwOTE5IGggLTI2Ljc4MTI1IHYgLTMuNDA2MjUgaCAyNi43ODEyNSAxMy40MDYyNTQgYyA3Ljc5MjQ2MSwwIDEwLjY5NjI1MSwtNS40MzU0MDggMTMuNDA2MjQxLC0xMy41OTM3NSAyLjc5OTMzLC04LjM5ODg4NiAyLjY4MDIyLC0xNi40NzU3NzYgMCwtMjcuMjUgLTEuOTI1NzgsLTcuNzU3NDQxIC01LjYwMzg3LC0xMy41OTM3NSAtMTMuNDA2MjQxLC0xMy41OTM3NSB6IG0gLTE1LjA2MjUsNjQuNjU2MjUgYyAyLjc3OTQ3OCwzZS02IDUuMDMxMjUsMi4yNzc0MTcgNS4wMzEyNSw1LjA5Mzc0NyAtMmUtNiwyLjgyNjM1NCAtMi4yNTE3NzUsNS4xMjUwMDQgLTUuMDMxMjUsNS4xMjUwMDQgLTIuNzY5NTUsMCAtNS4wMzEyNSwtMi4yOTg2NSAtNS4wMzEyNSwtNS4xMjUwMDQgMmUtNiwtMi44MTYzMyAyLjI2MTY5NywtNS4wOTM3NDcgNS4wMzEyNSwtNS4wOTM3NDcgeiIgaWQ9InBhdGgxOTUwIi8+CiAgPGVsbGlwc2Ugc3R5bGU9Im9wYWNpdHk6MC40NDM4MjtmaWxsOnVybCgjcmFkaWFsR3JhZGllbnQxNDgwKTtmaWxsLW9wYWNpdHk6MTtmaWxsLXJ1bGU6bm9uemVybztzdHJva2U6bm9uZTtzdHJva2Utd2lkdGg6MTUuNDE3NDtzdHJva2UtbWl0ZXJsaW1pdDo0O3N0cm9rZS1kYXNoYXJyYXk6bm9uZTtzdHJva2Utb3BhY2l0eToxIiBpZD0icGF0aDE4OTQiIGN4PSI1NS44MTY3NjEiIGN5PSIxMjcuNzAwNzkiIHJ4PSIzNS45MzA5NzciIHJ5PSI2Ljk2NzMxMTkiLz4KPHNjcmlwdCB4bWxucz0iIi8+PC9zdmc+;" vertex="1" parent="1">
          <mxGeometry x="370" y="370" width="68.33" height="75" as="geometry" />
        </mxCell>
        <mxCell id="7UN7z7uZsTetFS3GHODO-7" value="" style="shape=image;aspect=fixed;image=data:image/svg+xml,PD94bWwgdmVyc2lvbj0iMS4wIiBlbmNvZGluZz0iVVRGLTgiIHN0YW5kYWxvbmU9Im5vIj8+CjwhLS0gQ3JlYXRlZCB3aXRoIElua3NjYXBlIChodHRwOi8vd3d3Lmlua3NjYXBlLm9yZy8pIC0tPgo8c3ZnIHhtbG5zOmRjPSJodHRwOi8vcHVybC5vcmcvZGMvZWxlbWVudHMvMS4xLyIgeG1sbnM6Y2M9Imh0dHA6Ly9jcmVhdGl2ZWNvbW1vbnMub3JnL25zIyIgeG1sbnM6cmRmPSJodHRwOi8vd3d3LnczLm9yZy8xOTk5LzAyLzIyLXJkZi1zeW50YXgtbnMjIiB4bWxuczpzdmc9Imh0dHA6Ly93d3cudzMub3JnLzIwMDAvc3ZnIiB4bWxucz0iaHR0cDovL3d3dy53My5vcmcvMjAwMC9zdmciIHhtbG5zOnNvZGlwb2RpPSJodHRwOi8vc29kaXBvZGkuc291cmNlZm9yZ2UubmV0L0RURC9zb2RpcG9kaS0wLmR0ZCIgeG1sbnM6aW5rc2NhcGU9Imh0dHA6Ly93d3cuaW5rc2NhcGUub3JnL25hbWVzcGFjZXMvaW5rc2NhcGUiIHdpZHRoPSI0NjAiIGhlaWdodD0iMTgwIiBpZD0ic3ZnMiIgdmVyc2lvbj0iMS4xIiBpbmtzY2FwZTp2ZXJzaW9uPSIwLjQ3IHIyMjU4MyIgc29kaXBvZGk6ZG9jbmFtZT0ibG9nby5zdmciPgogIDxkZWZzIGlkPSJkZWZzNCI+CiAgICA8aW5rc2NhcGU6cGVyc3BlY3RpdmUgc29kaXBvZGk6dHlwZT0iaW5rc2NhcGU6cGVyc3AzZCIgaW5rc2NhcGU6dnBfeD0iMCA6IDUyNi4xODEwOSA6IDEiIGlua3NjYXBlOnZwX3k9IjAgOiAxMDAwIDogMCIgaW5rc2NhcGU6dnBfej0iNzQ0LjA5NDQ4IDogNTI2LjE4MTA5IDogMSIgaW5rc2NhcGU6cGVyc3AzZC1vcmlnaW49IjM3Mi4wNDcyNCA6IDM1MC43ODczOSA6IDEiIGlkPSJwZXJzcGVjdGl2ZTEwIi8+CiAgICA8aW5rc2NhcGU6cGVyc3BlY3RpdmUgaWQ9InBlcnNwZWN0aXZlMjgyNCIgaW5rc2NhcGU6cGVyc3AzZC1vcmlnaW49IjAuNSA6IDAuMzMzMzMzMzMgOiAxIiBpbmtzY2FwZTp2cF96PSIxIDogMC41IDogMSIgaW5rc2NhcGU6dnBfeT0iMCA6IDEwMDAgOiAwIiBpbmtzY2FwZTp2cF94PSIwIDogMC41IDogMSIgc29kaXBvZGk6dHlwZT0iaW5rc2NhcGU6cGVyc3AzZCIvPgogICAgPGlua3NjYXBlOnBlcnNwZWN0aXZlIGlkPSJwZXJzcGVjdGl2ZTI4NDAiIGlua3NjYXBlOnBlcnNwM2Qtb3JpZ2luPSIwLjUgOiAwLjMzMzMzMzMzIDogMSIgaW5rc2NhcGU6dnBfej0iMSA6IDAuNSA6IDEiIGlua3NjYXBlOnZwX3k9IjAgOiAxMDAwIDogMCIgaW5rc2NhcGU6dnBfeD0iMCA6IDAuNSA6IDEiIHNvZGlwb2RpOnR5cGU9Imlua3NjYXBlOnBlcnNwM2QiLz4KICAgIDxpbmtzY2FwZTpwZXJzcGVjdGl2ZSBpZD0icGVyc3BlY3RpdmUyODc4IiBpbmtzY2FwZTpwZXJzcDNkLW9yaWdpbj0iMC41IDogMC4zMzMzMzMzMyA6IDEiIGlua3NjYXBlOnZwX3o9IjEgOiAwLjUgOiAxIiBpbmtzY2FwZTp2cF95PSIwIDogMTAwMCA6IDAiIGlua3NjYXBlOnZwX3g9IjAgOiAwLjUgOiAxIiBzb2RpcG9kaTp0eXBlPSJpbmtzY2FwZTpwZXJzcDNkIi8+CiAgICA8aW5rc2NhcGU6cGVyc3BlY3RpdmUgaWQ9InBlcnNwZWN0aXZlMjg5NCIgaW5rc2NhcGU6cGVyc3AzZC1vcmlnaW49IjAuNSA6IDAuMzMzMzMzMzMgOiAxIiBpbmtzY2FwZTp2cF96PSIxIDogMC41IDogMSIgaW5rc2NhcGU6dnBfeT0iMCA6IDEwMDAgOiAwIiBpbmtzY2FwZTp2cF94PSIwIDogMC41IDogMSIgc29kaXBvZGk6dHlwZT0iaW5rc2NhcGU6cGVyc3AzZCIvPgogICAgPGlua3NjYXBlOnBlcnNwZWN0aXZlIGlkPSJwZXJzcGVjdGl2ZTI5MTAiIGlua3NjYXBlOnBlcnNwM2Qtb3JpZ2luPSIwLjUgOiAwLjMzMzMzMzMzIDogMSIgaW5rc2NhcGU6dnBfej0iMSA6IDAuNSA6IDEiIGlua3NjYXBlOnZwX3k9IjAgOiAxMDAwIDogMCIgaW5rc2NhcGU6dnBfeD0iMCA6IDAuNSA6IDEiIHNvZGlwb2RpOnR5cGU9Imlua3NjYXBlOnBlcnNwM2QiLz4KICAgIDxpbmtzY2FwZTpwZXJzcGVjdGl2ZSBpZD0icGVyc3BlY3RpdmUyOTI2IiBpbmtzY2FwZTpwZXJzcDNkLW9yaWdpbj0iMC41IDogMC4zMzMzMzMzMyA6IDEiIGlua3NjYXBlOnZwX3o9IjEgOiAwLjUgOiAxIiBpbmtzY2FwZTp2cF95PSIwIDogMTAwMCA6IDAiIGlua3NjYXBlOnZwX3g9IjAgOiAwLjUgOiAxIiBzb2RpcG9kaTp0eXBlPSJpbmtzY2FwZTpwZXJzcDNkIi8+CiAgICA8aW5rc2NhcGU6cGVyc3BlY3RpdmUgaWQ9InBlcnNwZWN0aXZlMjk3NiIgaW5rc2NhcGU6cGVyc3AzZC1vcmlnaW49IjAuNSA6IDAuMzMzMzMzMzMgOiAxIiBpbmtzY2FwZTp2cF96PSIxIDogMC41IDogMSIgaW5rc2NhcGU6dnBfeT0iMCA6IDEwMDAgOiAwIiBpbmtzY2FwZTp2cF94PSIwIDogMC41IDogMSIgc29kaXBvZGk6dHlwZT0iaW5rc2NhcGU6cGVyc3AzZCIvPgogICAgPGlua3NjYXBlOnBlcnNwZWN0aXZlIGlkPSJwZXJzcGVjdGl2ZTMwMjAiIGlua3NjYXBlOnBlcnNwM2Qtb3JpZ2luPSIwLjUgOiAwLjMzMzMzMzMzIDogMSIgaW5rc2NhcGU6dnBfej0iMSA6IDAuNSA6IDEiIGlua3NjYXBlOnZwX3k9IjAgOiAxMDAwIDogMCIgaW5rc2NhcGU6dnBfeD0iMCA6IDAuNSA6IDEiIHNvZGlwb2RpOnR5cGU9Imlua3NjYXBlOnBlcnNwM2QiLz4KICAgIDxpbmtzY2FwZTpwZXJzcGVjdGl2ZSBpZD0icGVyc3BlY3RpdmUzMDM2IiBpbmtzY2FwZTpwZXJzcDNkLW9yaWdpbj0iMC41IDogMC4zMzMzMzMzMyA6IDEiIGlua3NjYXBlOnZwX3o9IjEgOiAwLjUgOiAxIiBpbmtzY2FwZTp2cF95PSIwIDogMTAwMCA6IDAiIGlua3NjYXBlOnZwX3g9IjAgOiAwLjUgOiAxIiBzb2RpcG9kaTp0eXBlPSJpbmtzY2FwZTpwZXJzcDNkIi8+CiAgICA8aW5rc2NhcGU6cGVyc3BlY3RpdmUgaWQ9InBlcnNwZWN0aXZlMzA1MiIgaW5rc2NhcGU6cGVyc3AzZC1vcmlnaW49IjAuNSA6IDAuMzMzMzMzMzMgOiAxIiBpbmtzY2FwZTp2cF96PSIxIDogMC41IDogMSIgaW5rc2NhcGU6dnBfeT0iMCA6IDEwMDAgOiAwIiBpbmtzY2FwZTp2cF94PSIwIDogMC41IDogMSIgc29kaXBvZGk6dHlwZT0iaW5rc2NhcGU6cGVyc3AzZCIvPgogICAgPGlua3NjYXBlOnBlcnNwZWN0aXZlIGlkPSJwZXJzcGVjdGl2ZTM4NjYiIGlua3NjYXBlOnBlcnNwM2Qtb3JpZ2luPSIwLjUgOiAwLjMzMzMzMzMzIDogMSIgaW5rc2NhcGU6dnBfej0iMSA6IDAuNSA6IDEiIGlua3NjYXBlOnZwX3k9IjAgOiAxMDAwIDogMCIgaW5rc2NhcGU6dnBfeD0iMCA6IDAuNSA6IDEiIHNvZGlwb2RpOnR5cGU9Imlua3NjYXBlOnBlcnNwM2QiLz4KICA8L2RlZnM+CiAgPHNvZGlwb2RpOm5hbWVkdmlldyBpZD0iYmFzZSIgcGFnZWNvbG9yPSIjZmZmZmZmIiBib3JkZXJjb2xvcj0iIzY2NjY2NiIgYm9yZGVyb3BhY2l0eT0iMS4wIiBpbmtzY2FwZTpwYWdlb3BhY2l0eT0iMC4wIiBpbmtzY2FwZTpwYWdlc2hhZG93PSIyIiBpbmtzY2FwZTp6b29tPSIwLjk4OTk0OTQ5IiBpbmtzY2FwZTpjeD0iMjQwLjMyNDE1IiBpbmtzY2FwZTpjeT0iLTM3LjgzNjUzMiIgaW5rc2NhcGU6ZG9jdW1lbnQtdW5pdHM9InB4IiBpbmtzY2FwZTpjdXJyZW50LWxheWVyPSJsYXllcjEiIHNob3dncmlkPSJmYWxzZSIgaW5rc2NhcGU6d2luZG93LXdpZHRoPSIxNjgwIiBpbmtzY2FwZTp3aW5kb3ctaGVpZ2h0PSI5OTgiIGlua3NjYXBlOndpbmRvdy14PSItOCIgaW5rc2NhcGU6d2luZG93LXk9Ii04IiBpbmtzY2FwZTp3aW5kb3ctbWF4aW1pemVkPSIxIi8+CiAgPG1ldGFkYXRhIGlkPSJtZXRhZGF0YTciPgogICAgPHJkZjpSREY+CiAgICAgIDxjYzpXb3JrIHJkZjphYm91dD0iIj4KICAgICAgICA8ZGM6Zm9ybWF0PmltYWdlL3N2Zyt4bWw8L2RjOmZvcm1hdD4KICAgICAgICA8ZGM6dHlwZSByZGY6cmVzb3VyY2U9Imh0dHA6Ly9wdXJsLm9yZy9kYy9kY21pdHlwZS9TdGlsbEltYWdlIi8+CiAgICAgICAgPGRjOnRpdGxlLz4KICAgICAgPC9jYzpXb3JrPgogICAgPC9yZGY6UkRGPgogIDwvbWV0YWRhdGE+CiAgPGcgaW5rc2NhcGU6bGFiZWw9IkxheWVyIDEiIGlua3NjYXBlOmdyb3VwbW9kZT0ibGF5ZXIiIGlkPSJsYXllcjEiIHRyYW5zZm9ybT0idHJhbnNsYXRlKC0yNy44MjA4MDEsLTI0LjcxNDk3NikiPgogICAgPHBhdGggc3R5bGU9ImZpbGw6IzAwMDAwMCIgZD0iTSA5Ni45NDQ5MTcsMTgyLjAzMzc3IEMgODkuNjYyNjgxLDE3Ni4zMDYwOCA4MS44OTQ1NDksMTcwLjgxNDQ4IDc2LjU4NjMxNywxNjMuMDgxNjYgNjUuNDE2ODQyLDE0OS40NDQ5OSA1Ni44MTY4NzUsMTMzLjY1NjcgNTAuOTM3NTg1LDExNy4wNjUxNSA0Ny4zODM5NTUsMTA2LjI3NjU0IDQ2LjE2Njg5OCw5NC43MDk4MjQgNDEuNTg1Nzk5LDg0LjMzODA5NiBjIC00Ljc5MjI4NywtNy41MzMwNDQgMC44MjEyMjQsLTE1Ljc2Nzg5NyA5LjA3MjcyMiwtMTguMTYyNDIgMy42NzM3NDIsLTAuNzA1MTA0IDEwLjEzMzMyNywtNC4xNzAyNTggMi4zMzU5NTEsLTEuNjkzNTM5IC02Ljk5MDU5Miw1LjEyODg3MSAtNy42NjcxMjksLTQuNjU1NjAzIC0wLjQ5ODgyMywtNS4yNzUxNyA0Ljg5MjAyNiwtMC42NTAyNDkgNi42OTI4OTUsLTQuNjU1MDQ0IDUuMDE5OTY2LC04LjI2MDI1MSAtNS4yNTEzMjYsLTMuNDI0NDY0IDEyLjczMzczNywtNy4xODgwMSAzLjY4NDM3MywtMTIuMjk3Nzk5IC05LjQyNjk4NywtMTAuMTcwNjY2IDEzLjE4NjMzOSwtMTIuMTI4NTQ2IDcuNjA3MjgzLC0wLjU3Nzc4NiAtMS4zMzU0NDcsOC44ODIwNjEgMTUuODAxMjI2LC0xLjYyNzkwNyAxMS44MjUxMTcsOC42Mjg5NDUgNC4wNDEyODMsNC45MjU2OTQgMTUuMTMzNTYyLDEuMTIxMSAxNC44NTgzOCw4LjAzMTM5MiA1Ljg4NzA5MiwwLjQwNDY3OCA3LjkwNzU2Miw1LjM1ODA2MSAxMy40MzM5OTIsNS43MzgzNDcgNS43Mjc1OSwyLjU4NjU1NyAxNi4xMTA4LDQuNjI0NzkyIDE4LjA1OTgsMTEuMDc5MTQ5IC01LjY4MjQyLDQuNDk4NzU2IC0xOC44NDA4OSwtOS4yOTI2NzQgLTE5LjQ3MzA1LDMuMTYwMzk3IDEuNzE2NTksMTguMzk2MDc4IDEuMjc5MjYsMzcuMzQ2NDM5IDguMDA5ODYsNTQuODY0OTg5IDMuMTgzNTMsMTAuNjA3NTkgMTAuOTAxMiwxOC45NTc3OSAxNy44NzEwOSwyNy4yMTk0NiA2LjY2ODc1LDguMDkxMjYgMTUuNzAxODYsMTMuNzg3MTUgMjQuOTA4ODUsMTguNTgzMzggOC4wNzY0NywzLjgwOTAxIDE2Ljc4MzgzLDYuMzM1MjggMjUuNTg1ODMsNy45MjA0NCAzLjU3MDEsLTIuNzMwNyA5Ljg3MzAzLC0xMi44ODI4IDE1LjQ0MjM4LC04LjYwMTg4IDAuMjY0MjMsNC44MTAwNyAtMTEuMDU0MSwxMC4wNTUxMiAtMC41MzI0OCw5LjUyMzUgNi4xNzgxOSwtMS44NjM3OCAxMC40NjMzNiw0Ljc3ODAzIDE1LjU1MDk5LC0xLjIxMjg5IDQuNjg3MTksNS41NTIwNiAxOS40ODE5NywtMy41NDczNCAxNi4xNDY5Myw3LjgwMTE1IC00LjUwOTcyLDIuOTA5NTUgLTExLjA4Njg5LDEuMTUxNDIgLTE1LjYwNDA0LDUuMTUzOTcgLTcuNDQ3NTcsLTMuNzE5NzkgLTEzLjM3NjkxLDMuMzI4NDMgLTIxLjYyMTksMi40MzcwNyAtOS4xNTY0MSwxLjY0MDAyIC0xOC40NzE2LDIuMzAyMDQgLTI3Ljc1NDczLDIuMzE2NDIgLTE1LjIyOTUyLC0xLjIwMzI4IC0zMC43ODE1OCwtMS43MTA0OSAtNDUuMjY5NjksLTcuMDEyOTEgLTguMTYxNjYsLTIuMzcxNjEgLTE2LjEyNjQ5LC03LjAxODg3IC0yMy4yOTk2ODMsLTExLjY2ODI5IHogbSAxMi44NjIwNDMsNS41NzI5IGMgNy45Njk2LDMuNDQ2NTEgMTUuNzYyNDMsNy4wNzg4OSAyNC40OTY1Niw4LjE3NDU3IDEzLjg1NjgyLDEuOTI3MjcgMjguMTY2NTMsNC44OTE2MyA0Mi4wNzMwMSwyLjE4NzU3IC02LjI5MzksLTIuODQxOTkgLTEyLjgwMDc3LDEuMTA3MTkgLTE5LjA3MDk2LC0yLjAzMjIgLTcuNTIwMzMsMS42MTgyMSAtMTUuNTkwNDksLTAuNDEyMjMgLTIzLjIzNTc0LC0xLjQxMTg5IC04LjY5Mzk1LC0zLjg3MjU5IC0xOC4wNzYyLC02LjUzNTQ5IC0yNi4yMTc3MiwtMTEuNTYyMTkgLTEwLjE3MzE1NSwtMy43MTU3OCA1LjI2MTQyLDQuNzY1MjQgOC4wMDg3Myw1LjQ1MjE0IDYuMzU5NTIsMy42MDk2OSAtNi45OTM0MywtMS44NTA0NCAtOC44NzU4OSwtMy4zNTEwMSAtNS4zMjY0OCwtMi45ODc5IC02LjAwNTI5LC0yLjM2MzU3IC0wLjUyNzQ1LDAuNjcwODUgMS4xMDMzMiwwLjY0NTc3IDIuMTkzNTksMS4zMjIyNiAzLjM0OTQ2LDEuODcyMTYgeiBNIDk0LjY0MjI1OSwxNzYuODg5NzYgYyA3LjcyMjc4MSwyLjg2MDUyIC0wLjAzNDA2LC01LjQzMDgyIC0zLjU3Mjk0MSwtNC45NDkwNCAtMS41Njc5MDYsLTIuNzIwMTUgLTUuOTkwMywtNC40Mzg1NCAtMi44NzA3MjEsLTUuODk5NzMgLTUuNjExNTI0LDEuOTQ4MSAtNS44NzgzMTksLTcuNDA4MTQgLTguNTE2MDA0LC02LjA3MTM5IC01LjkzNjUxNiwtMS44NzQ1NCAtMi4zMTA0OTYsLTguNTE1MDEgLTkuMzgxOTI5LC0xMi41OTI5MiAtMC42NDU0ODgsLTQuMjk2OTcgLTcuMDI1NzcsLTguMDIzOTMgLTkuMDYwODAxLC0xNC41MDUyNSAtMC44OTg3ODYsLTMuMzE4NDMgLTcuMjA4MzM2LC0xMi44NDc4MyAtMy4zMzIzNjksLTMuOTc5MjcgMy4zMDAxOTQsOC41Mzc0NyA5LjEwNjYxOCwxNS44NDg3OSAxMy45Mzg2OCwyMy4xNTE3NSAzLjc1MjA4Myw2Ljk1MzI4IDguMTgyNDk3LDE0LjIyMDI2IDE1LjAxNTc2NywxOC41NTc4OCAyLjMwMzQzNiwyLjIwOTYzIDQuNTI3NDUyLDUuNTk1MzMgNy43ODAzMTgsNi4yODc5NyB6IE0gNzIuMzk0NTYsMTUyLjQ2MzU1IGMgMC4yNjk1NiwtMS4xNjYyNiAxLjQxMjQyNCwyLjUyNDIyIDAsMCB6IG0gMzEuNDk2NDEsMjcuODU1MjYgYyAxLjcxMDEzLC0wLjc2NTc3IC0yLjQ1OTEyLC0wLjk2NDc2IDAsMCB6IG0gNC4xOTIyOCwxLjUyOTI0IGMgLTAuNDM0MTksLTIuMTExNiAtMS45MTM3NiwxLjE4MDc0IDAsMCB6IG0gNS4yNDc0OSwyLjE4ODkxIGMgMi40OTgyOCwtMi4zNzg3MSAtMy44NTAwOSwtMS40OTk4MyAwLDAgeiBtIDguOTkzODksNS4wMTI3NCBjIDEuNTE4MTEsLTIuMjQzOSAtNC44NTg3MiwtMC44NDY4MiAwLDAgeiBtIC0xNy4yNzA3LC0xMi4wMzkzMyBjIDMuODgwMzEsLTIuNTEwMjMgLTUuMDExODYsLTAuMDM0NyAwLDAgeiBtIDMuOTM2NiwxLjk2MjkzIGMgLTAuMTEwMDQsLTEuMzI3MDkgLTEuNDAyOTcsMC41OTQzMiAwLDAgeiBtIDE5LjY3NDczLDEyLjI4MDA2IGMgMy4xNjI4MSwxLjk5NjAxIDE4LjQ2OTYxLDQuMzc0OSA4Ljg4NDc3LDAuODE4NDcgLTEuNjAzNzcsMC4zMzgxMSAtMTcuNzcyNjMsLTQuNTczMzYgLTguODg0NzcsLTAuODE4NDcgeiBNIDk3LjQzMDk1OCwxNjYuOTI3MjEgYyAtMC4zMDc1MDMsLTEuMzMwOTQgLTQuOTA5MzQxLC0xLjQ2OTQgMCwwIHogbSA5LjE1OTMwMiw1LjMzODEzIGMgMi4zODM3MSwtMS42NjI1NSAtNC45NDc1NywtMS4yODIzNSAwLDAgeiBtIDcuNzA0MjYsNC43MjM4MiBjIDMuNDIwNjUsLTEuMjg5NjMgLTUuNTQ5MDcsLTEuMjk1NzEgMCwwIHogTSA5My43MDM5MjcsMTYyLjg2ODA1IGMgMy43MTEzNzQsMi44NDYyMSAxNC45Njc2ODMsMC4zNjQ3MyA1LjY4Mzc3NiwtMS42OTkwNiAtNC4yMjU1MTYsLTIuMjUyNCAtMTMuNzQ4ODksLTMuNzk0MTUgLTcuMjU3NTcsMS4zNTgyMSBsIDEuNTczNzg1LDAuMzQwODggOWUtNiwtM2UtNSB6IG0gMjUuODA4NzIzLDE1Ljc1MjE2IGMgMS41NDU5NSwtMi42MzM4OCAtNi40ODI5OCwtMS41MDQxMSAwLDAgeiBtIC03Ljg0MjQ5LC02LjIzMjg0IGMgOS4wNzUyLDIuNTY3MTkgLTcuNjMxNDIsLTUuNzM5IC0yLjIzOTExLC0wLjk0NDY2IGwgMS4xOTUxMywwLjU0MDgyIDEuMDQzOTksMC40MDM5IC0xZS01LC02ZS01IHogbSAxNS43MjM1NCw5LjA4NzggYyA4LjU5NDc0LDAuMDgyIC03Ljc2MzA0LC0xLjE4NDg2IDAsMWUtNSBsIDAsLTFlLTUgeiBNIDkwLjM5Njk4NCwxNTcuODk1NDUgYyAtMC4zMzU2OTUsLTEuNjAwOTQgLTIuMTIwOTYyLDAuMTM0MTkgMCwwIHogbSA1MS41MzUzOTYsMzEuNzM1MDIgYyAwLjIyOTIsLTIuODkxNDEgLTIuODA0ODYsMi4xNTE1NyAwLDAgeiBtIC0zNi44NjgxNywtMjIuNzUyOTkgYyAtMC41MTk4NiwtMS41MjI1MSAtMi42ODU0OCwtMC4wNjIyIDAsMCB6IG0gLTEzLjg1MjEyOCwtOS45ODY0OSBjIDQuOTM0MjM3LC0wLjI5NjI5IC02Ljc1NTMyMiwtMi4xNzQxOCAwLDAgeiBNIDc0LjgwMjM4NywxNDYuMjgzOTQgYyAtMC42MTQxNDYsLTIuMzY1MzYgLTUuMzY5MjEzLC00LjI1MTkgMCwwIHogbSA0My4wNzkzMjMsMjcuMzM5NDEgYyAtMC45MDM3MywtMS4wMzA3IC0wLjQyNTEsMC4yMjU0NiAwLDAgeiBtIDI2LjgxNDA4LDE2LjQ1NDc1IGMgLTAuMDg2LC0xLjU3NTAzIC0xLjQ2MDM5LDAuNTk2MTYgMCwwIHogbSAtMjkuMTg3MTIsLTE4LjkwNTI4IGMgMC40ODI2NiwtMi4wMjkzMiAtNC4yMDc0MSwtMC42MTQ0MiAwLDAgeiBNIDk1LjUzMjYxMiwxNTguNTEyODYgYyAzLjY3MDc4NSwtMC4zOTMwNSAtNS44ODA0MzQsLTIuNDgxNjEgMCwwIHogTSAxMjkuMzIzOTYsMTc5LjUxIGMgNS43MjA0MiwtMi4yNjYyNyAtNS41NzU0MSwtMS4xMDYzNSAwLDAgeiBtIC0xNy41NzY4MiwtMTEuOTMxNDUgYyA2LjU5Mjc4LDAuODUwMDIgLTcuODQ0NDIsLTQuNDg0MjUgLTEuNDQ2NTEsLTAuNDc3MyBsIDEuNDQ2NSwwLjQ3NzM0IDFlLTUsLTRlLTUgeiBtIDIyLjkxMjk2LDE0LjA4ODYgYyA2LjE1NTE0LC0zLjY3OTc1IDQuMTI1ODgsOC42MTY3NyAxMC40NDI1NCwxLjAzODggNi4yMzA4NiwtNC41NDk0MiAtNS4zODA4Niw1LjYyNDUxIDIuMjk4MzgsMC44MTExNiA1LjU1MzU5LC0zLjcxNDM4IDEzLjc1NjQzLDEuNzYwNzUgMTguOTM4NDgsMy41NDcyIDMuNzI2NTksLTAuMTgzMDcgNy4zNDkzOCwzLjIyMjM2IDExLjE2OTczLDEuMTUwNTkgNy4zNTQyLC0xLjk4MDgyIC0xNC4zODA5NywtMi45Mzc4OSAtOC42ODM0NCwtNi40NTIzIC02LjcyOTE0LDEuOTU4NDggLTExLjcwMDkzLC0yLjMzNDgzIC0xNS4wMTIxMywtNi42NDUwOCAtNy41NDgxMiwtMS43NDI5OCAtMTYuMjc1NDgsLTUuNjAyIC0yMC4wNDI1NywtMTIuMjgxODQgLTEuNTM1OSwtMi41MDgwMiAyLjIxODg0LDAuMzUzMzMgLTEuMzI1ODYsLTMuNzQ2MzggLTQuNTQ4MzQsLTQuMDQ1NDYgLTYuODE5NDgsLTguNjM3NjYgLTkuODcyNzgsLTEzLjU1NTIgLTMuNjQ3NTUsLTEuOTQ1ODcgLTQuMDcyNDksLTcuNjczNDUgLTQuNDQxMjMsLTAuMTkyMDEgMC4wMjg5LC00LjcyMTY0IC00LjQwMzkzLC03Ljg5OTY0IC01LjQ4NTg5LC02LjU3ODU5IC0wLjAxOTQsLTQuNTQ3MjEgNC43NDM5NiwtMi4yNjc4NyAxLjQwOTQ1LC01LjYzMjI4IC0wLjcxNzcxLC00LjcxMzAyIC0zLjA4MDg1LC05LjYyNDEgLTMuNzkxMTUsLTE0Ljk0NTMgLTEuMTAzNiwtMi41NjUwMiAtMC4xNTU0MSwtOC4wNTg2MyAtMy43NjY2MiwtMi4yNTIwNCAtMS4zMTU2Niw2LjEzNjY5IC0wLjQzNjY4LC03LjU0MTI5IDEuNjA5MywtMy4wMzA4MyAyLjY4NTQzLC00LjYwMjUxIC0wLjk2NDEsLTQuMDYxMiAtMS4xMTM2MSwtMy40MjIxMSAxLjc0OTMxLC0zLjg4MzMzIDEuMTA3MTksLTkuMzkxNTkgLTAuNDU2NDQsLTcuMjkwMjMgMC45MzIxMywtNC4xMTU4NiAxLjQ3MjU5LC0xNS4xNDc1MjkgLTEuMzk1MSwtMTMuMTkyNTc5IDEuNzM4MzMsLTQuMzAzOTU4IDMuMjk2NjgsLTE5LjY5NDA3NyAtNC4yNDk2MSwtMTMuODI2MzI1IC0zLjA1ODM1OCwwLjA0Mjk0IC04LjM1NDU0MSwxLjExMDE5NSAtMTAuODU4MDMyLDIuMzU1MjQzIDcuODQ5NTAyLDQuMzI2ODU3IC0wLjc4OTU0MywxLjU2MjU3NyAtMy45ODQ4MDgsMC44NzQ4NzkgLTAuNDE2MzQzLDQuMDAzNjQyIC0zLjU4MTE5LDIuMjcyMDg2IC03LjUzNTEyMywyLjMxMTMzOSA2LjMxNTI3MywwLjc4MTMzOSAtMy4wNzUyNTMsNi40NTg5NjIgLTYuNjk4MTMyLDQuMjUzNTA2IC00LjcwNTEwMiwyLjI0ODc1NiA0LjA2MDYyMSw3Ljg2MjAzOCAwLjA5NDQsOS41OTc1ODYgMC40ODc0MzMsMi42MTY1ODEgLTcuMjA4MjI3LC0wLjk0NDkwNiAtNi42MDM4MzIsNS4wOTc3MTEgLTQuNTY3NzQsLTEuOTIxNTUgLTAuNjI4OTYxLDcuMTY3OTYgMS42NTYyNzMsNC4wOTM4MiA3Ljc2ODg4MiwyLjEwMjYxIDUuNDY5MTA4LDYuODk2MzEgNS42NjY5NDcsMTEuNDQ5OTIgLTEuMjY1ODMzLDIuNjUzNCAtNi4yNDk0OTUsLTYuMjM2OTEgLTEuMTA5OTM5LC01LjgyNTE3IC00LjA1NDcxNSwtNi41ODY3NCAtNC40ODUyMzIsLTIuMzgwODEgLTcuODU0NTY2LDAuNjc5MTEgLTAuNzgzODU3LDAuMjIyMjIgOC41OTQ0LDQuMzUzNzYgMi43MDkwNTksNi4zOTY3IDUuMTc3ODg0LDAuNzk4OTQgNS4zMjUxOTksNS4zMzAwOCA2LjM3OTI4NCw4LjE5NzM1IDMuMTEyMTksMy4yNDE1MiAyLjQ3NTIyNiwtMy41NzkzMSA2LjE5OTA3MSwwLjMxNjIzIC0yLjM1NjQ4OCwtMy40NzA1IC0xMi40ODE4MywtOS43NzgzOSAtNC4zMjk1NjcsLTcuNzU1MyAtMC4wNDM1OCwtMy40OTI5MSAtMS40NzQ0MTIsLTYuMzA5NTEgMS4wMjMyMiwtNi4yNDExOCAyLjQ3MzM2NywtNC40NzkyNiAtMi41OTAzODUsMTEuMDQ0IDIuOTg0NzI1LDUuMzUxMjQgMS41NDMyODUsLTAuNjczODggMS45MjU1NCwtNC40ODQ5NCA0LjY5OTU0NCwwLjM1OTg5IDQuMDI5MDk2LDMuOTYzNjMgMS40NTUzMyw2LjgzNTc3IC00LjIyODE2MiwzLjIwNjQ4IDEuMDE2ODI4LDMuNDQ5NDYgNy42MDMwNjIsNC42ODIxNyA2LjM2NTM0OCwxMC4wNzY0NiAxLjMxMjEsNC43NDQ0IDMuMTQ3ODQ0LDIuOTk2OTUgNC43NDc5OTksMi43MjI2NiAxLjI1NTIzLDQuNjA5NzMgMS45NjgwMTYsMS4yMjAxIDIuMDI3NTU5LC0wLjk3MzU1IDUuNzQ3MzU3LDEuMjMwMzMgNC40MDExNDIsNC42Mjc3MyA2LjE5OTQ1Niw3LjAwMTM0IDMuOTYwNDE2LDEuNzg3NjEgLTUuNjY4Njk2LC0xMi4xMTcxMyAxLjEzMDY1OSwtNC4xODEwNiA3LjE1MzU3Nyw2LjQ1ODYgMi42ODI3OTcsOS4xNTQ2NCAtMy43MzY4NTYsOC4xMTk5NSA0LjA2MzEyOSwtMC4zMjgyNCA1LjM3MzQyMyw1LjQ5MzA1IDEwLjQ1NTY5Myw1LjI4ODUzIDQuNjM0NTYsMi4yMDQ3NyA3Ljc3MjM3LDEwLjY3MjkxIC0wLjIxNjEzLDcuMTQ3OCAtMi43NzA3NCwtMi40OTgyMSAtMTIuNTc1NzM0LC01LjU4MDEgLTQuNTY3MzEsLTAuODI4MjMgNy4zOTY1NywzLjQyNTIzIDEzLjI3MTE3LDUuNDc0MzIgMjAuNDA0ODcsOS43NzM4NCA1LjEwNTM1LDMuNjQ0NjQgNy4zMTEwNCw3LjgxOTA4IDkuMjQ2MDcsOC42NDU0MSAtNC4yOTA4NCwyLjA0OTQ2IC0xMi45MzA4OSwtMS42MzY1NSAtNi41MTUxNCwtMi43NjYxOCAtNC4wMDE2OCwtMC43Mjg5NCAtOC41MDI1OCwtMi43NTI1OSAtNC42Njk2MSwyLjIzMzMgMy4yNTkyNiwyLjcyMTI3IDExLjU0NzA4LDIuNDMyOTggMTMuMDMyOCwyLjc0MTMyIC0xLjI1OTM0LDIuNzc0ODggLTMuNDIwNywyLjk5NTU2IDAuMDUxNiwzLjIxMDc4IC0zLjg3Mzc1LDIuMDY0MzggMS4yNDIxNiwyLjM4NDAzIDEuNjAxMTQsMy41NjM2MiB6IG0gLTcuOTIxNSwtMjIuMzY5OTMgYyAtMi4zNTY4MiwtMi40NjQ3NSAtMi45NjYyLC03LjA4MTM0IC0wLjQxODUyLC0zLjA2NDI2IDEuMzA2NDgsMC41MjQ2NiA0LjE4NTIzLDcuNTQ0MjggMC40MTg1NywzLjA2NDI2IGwgLTVlLTUsMCB6IG0gMjUuNzk3MzMsMTYuMzg2OTMgYyAxLjQ3MDA0LC0wLjA5NTIgMC4wNDI3LDEuMTE2ODEgMCwwIHogbSAtMjkuNTE4NjcsLTIyLjQzMDM5IGMgLTAuMDkwNCwtMy43MjYzNyAwLjg1MjUsMi44NzQxOSAwLDAgeiBtIC0yLjU2MzkyLC0zLjQ0OTY1IGMgLTIuOTY0NDYsLTUuNzI3ODcgMy43MzcyMSwxLjYyMjEyIDAsMCB6IE0gODkuMzgyNjQ2LDEyOC4zNTkxNiBjIDEuNzQxNiwtMC40NjQ0NiAwLjg1Njg0MSwyLjk3ODY0IDAsMCB6IG0gMjQuNzI4Mjk0LDEzLjQwMzU3IGMgMS4wNjk1NywtNC4wMTY1NCAxLjI1NjkyLDMuMzcwMTQgMCwwIHogTSA5Ni42NDExNSwxMjkuNjE1MjUgYyAtMS4yMzE1NDMsLTIuMjE2MzggMi41NzYwMDksMi4wNzg2NSAwLDAgeiBtIDE0Ljk5Mjc5LDQuODA2MTggYyAtMi44MDg1MSwtNi4yOTIyMyAxLjk4ODM2LC0zLjQzNjk5IDAuNjIxMzUsMS4wMzEyNCBsIC0wLjYyMTM1LC0xLjAzMTI0IDAsMCB6IE0gODUuNzc4NzU3LDExNy4xNzg2NCBjIC0xLjI1NTYyNCwtMi4wNjQzMiAtMy4zMzI2NjMsLTguMTIxMzUgLTIuNjYzOTgyLC05Ljk3MDQyIDAuNjA0OTM1LDMuMDExNCA2LjQwMzkxNCwxMi45NTk1NiAyLjg0NDU3MSw0LjEyMDk2IC0zLjkzMzM4NiwtNy40MDkwOCA0LjcwMTgwNSwyLjQwNDkxIDUuNTkwMDUyLDQuMjUyOSAwLjQxMzYyNCwxLjgzODM3IC0yLjQyNjc4OSwtMC41MDIyNSAtMC41MDIxOTIsMy44MDgyOCAtMy41MDk4MDksLTQuOTA3NjYgLTIuMDcxOTY3LDIuNzEwODggLTUuMjY4NDQ5LC0yLjIxMTcyIHogbSAtNy45OTA3MDEsLTUuNTA2MTIgYyAwLjMyODkzOCwtNC43OTk4MSAxLjgyOTI2MiwzLjI5MTMyIDAsMCB6IG0gMy41OTQyOTMsMS4yMzcyOCBjIDEuNzE1MTc1LC0zLjYyMjgyIDIuOTA4MjQzLDUuMDUwNTIgMCwwIHogbSAtOC42NDYxNiwtNi42ODg0NyBjIC0yLjk3NDk1NiwtMi45NTYyMiAtNS4xMjc4MDksLTUuNjgxMzIgMC4xMzkxOTMsLTEuODM0NzQgMi4wMjk0ODIsMC4wNzkyIC00LjUwOTAwMiwtNi4xOTcwNSAwLjQ4ODc1MSwtMS45OTMwNSA1LjI1NTMxLDAuOTU4MjIgMi41OTUxLDguNjE2NzQgLTAuNjI3OTQ0LDMuODI3NzkgeiBtIDQuNTQxNzE3LC0wLjExODczIGMgMS43Mjc2NDYsLTEuNzEyMDMgMC45MTcxNzIsMS42ODUzIDAsMCB6IG0gMi43OTQ1ODcsMC44OTU5IGMgLTIuNjE5MTgxLC00LjkwOTQgMy4xNzg4MDEsMi4wNTgyMiAwLDAgeiBtIC01LjU1NTQ2LC01LjMwOTA5IGMgLTguNjQ4NDQsLTcuNjk2NTExIDEwLjg2NzMwOSw0LjAyNDUxIDEuNDEyOSwxLjQyNjkgbCAtMS40MTI5NTUsLTEuNDI2ODMgNS41ZS01LC03ZS01IHogbSAyNC43NzkwOCwxNC4zOTcxNyBjIC0zLjc0MjUwNiwtMi4yNDM5OCAtMC45OTE3NzcsLTE1Ljc5NzQ3IDAuMjg0NTAzLC02LjUyNzg1IDMuNjM4Mjk0LC0xLjE3Njk1IC0wLjIwMDg3OSw0Ljc4NzI4IDIuNTEyNzg0LDQuNzMyMDggLTAuNDI3NjcsMy43NjMwNSAtMS42NDE2OSw1LjExNTk0IC0yLjc5NzI4NywxLjc5NTc3IHogbSA5LjE2NTIwNyw1LjQxNjg0IGMgMC4zNjcwNSwtNC4wODQ2MiAwLjc3MjQ5LDIuNzkyNjIgMCwwIHogbSAtMS41OTE5OCwtMS41NzI5NSBjIDAuNDEyMDYsLTEuNzQ0OTcgMC4wNDI2LDIuMDU0ODcgMCwwIHogTSA3Ni4yMTM1NjYsOTkuMTYwMzIgYyAtNS41NTYwNDYsLTcuNjY1NjU3IDE2LjE0NzMyMyw3Ljc1NDEzIDMuNTU4NTU2LDEuOTQ0MyAtMS4zMTU0MzIsLTAuMzQ0MDQgLTIuODk4MjA4LC0wLjQ2Njg4IC0zLjU1ODU1NiwtMS45NDQzIHogbSAxNy42NDkxMTIsOS4zNTc0OSBjIC0wLjUyNTc3OSwtNi40NTQ2MSAxLjE3NDE2OSwxLjA2OTkxIC0xLjkyZS00LC0yZS01IGwgMS45MmUtNCwyZS01IHogbSAxMy4zOTk3NjIsOC41OTU4NSBjIDEuMDM2OTgsLTMuNjc2NjggMC4wNzczLDIuNDMyMjEgMCwwIHogTSA3Ny4wNjQ2ODUsOTYuMjM0NzIgYyAzLjMwMjE3MiwtMC43MDYyOTEgMTMuNjg0Njk1LDUuNzk5MzkgNC4xNTAyMjQsMS44NTgzMiAtMS4wNTkzOTYsLTEuMTcyNzkgLTMuMzE3ODAyLC0wLjYzOTk0IC00LjE1MDIyNCwtMS44NTgzMiB6IG0gMjguMzU2NzQ1LDE0LjEzMzEyIGMgMC4zNTI5NiwtNi42MDAwMiAxLjk3MTM4LC0zLjk0MjMzIDAuMDEyMiwwLjk0NDc0IGwgLTAuMDEyMSwtMC45NDQ3MyAtNWUtNSwtMWUtNSB6IE0gNzkuNTIyNzcsOTMuOTM4MDk5IGMgMS4zNDU0NTYsLTEuOTczNjEgLTMuNTcxNjMxLC04LjkyMzA2MyAwLjcwODc5NSwtMi40OTI3OTcgMS44NDk1NDMsMS40Njk2MDUgNS4zNTUxMDMsMi40NjE5NTkgMi4yNjAwMTcsMy4wODAyMTYgNC44Njc3NDQsNC4yOTQxNjIgLTEuMTg3MjQ0LDEuMTYzNjEyIC0yLjk2ODgxMiwtMC41ODc0MTkgeiBtIDI0LjQ5NjEyLDE0LjM2ODE2MSBjIDAuOTI5NTIsLTcuNTE4NDMgMC44MTk3MSw0LjQwNDg1IDAsMCB6IE0gNzYuNzEyNzU1LDg2Ljk5MzkwMiBjIDEuMDI3NzA2LC0wLjQzOTIwNyAwLjU0Mjc0NiwxLjM2OTMzNSAwLDAgeiBtIDYuMzg5NjIyLDMuODAzMDkyIGMgMS42NDQ0MTYsLTMuNDUwNTIyIDMuMDMzNTEsMy44NDgyOTcgMCwwIHogbSAxOC4wMjM1NTMsMTAuMDI2Mjc2IGMgLTAuMDE3NCwtMS4zMjUyIDAuMzQwMDMsMS45Mjc2NSAwLDAgeiBtIC0xLjA0NDA0LC0yLjMxMTM5IGMgLTIuNTAxNjEyLC02LjE3MTY0NiAyLjMyNjkzLDMuMjY3NTkgMCwwIHogbSAtMS41MzYwMDMsLTQuMDQ2MzcyIGMgLTAuNDE5OTA2LC0yLjU1MDE4OCAxLjQyNzEyOSwzLjIwMzg2MiAtNy4zZS01LC05ZS02IGwgNy4zZS01LDllLTYgeiBtIDIuNDk5NzczLC00LjA2MzUxNCBjIC0xLjcxNjYzLC0zLjAyNTEyMyAyLjE2Nzc3LC0xMy4zMzEwNzMgMi42MDEyMiwtNi45Mzk0MTggLTEuODExODUsNC45ODAyNTYgLTAuNTIyNjgsNy43NjYzMDkgMC43NDEyOSwxLjA4NjM4OCAyLjMzNDE3LC01LjI1NzE1OSAtMC41MDQyMSwxMC4zNzQwNTQgLTMuMzQyNTUsNS44NTMwNTcgbCA0ZS01LC0yLjdlLTUgeiBtIDIuNTY4ODksLTE1LjMyNjY0OSBjIDAuNzQ4MzMsLTAuOTE4OTIxIDAuMTY2MDksMS4xMDcwODIgMCwwIHogbSAtNC4yOTAwMTYsODQuNTM0MjM1IGMgLTEuMDE3NTUyLC0wLjg4ODAyIDAuMTI3Nzc1LDAuNTY1MDYgMCwwIHogbSA4LjgzNzcyNiw0LjQ3MDY1IGMgNC45MTU5OSwxLjI2MTM1IDQuODkwODYsLTAuNzY0ODcgMC40NDc4MiwtMS4zNjY4MyAtMi4zODk4LC0yLjIyMzE2IC05LjkzMDQ3NSwtNC41ODEyNCAtMy4xODExOSwtMC4yNzU4NiAwLjQ0Njk5LDEuMTMyMjcgMS44NTk0NCwxLjEwNTg5IDIuNzMzMzcsMS42NDI2OSB6IE0gOTAuNzA4MDY3LDE1Mi40ODcyNSBjIDIuNzA4MjQ0LDIuMDE5NTYgMTAuMjAxMjEzLDUuNzIzNzUgMy44NTgxODYsMC43Njg2OCAyLjEzODU4OCwtMi40ODQ2NyAtNC4wOTMzMzYsLTMuODA3MjIgLTIuMDI2MDY3LC01LjQ2OTI3IC01LjI1ODE3NSwtMy4yMTc1NSAtNC4xNDc5NjIsLTIuOTMxMzMgLTAuNDY0MTExLC0yLjgzMDEgLTYuMzE5Mzg1LC0yLjgyNDYyIDAuOTEyMTYzLC0yLjYxMzMzIDAuNTcxNjYxLC00LjA2MDY3IC0yLjQzNjcwNiwtMC40ODEyNiAtMTIuMTAzMDc0LC00LjI5NjY0IC02LjQxNjM5NSwwLjMxMzQxIC01Ljc4MDg4NywtMi45NDc1MSAtMS4zNzc2MDMsMS4wOTc5OSAtMy4xMjQ4OCwwLjY3MDI5IC01LjkxMTMzNiwtMS42MTE3OCA1LjI2NDM5Miw0LjUwMjI0IC0wLjkzODg0NSwyLjk4NDQ4IDMuMzkxMzI3LDIuNjg3NSA5LjEyODMwMSw2Ljg4MzkzIDEuNDMzNzg2LDIuODQ0MDcgLTEuMDEzODE2LDEuNDU5MzQgNS41MDYyNzMsMy42NzEzNiA3LjEwNjY2NSw0Ljc3OTExIHogbSA5LjI0MzE5NCw1LjMxMDEzIGMgMTEuMjM4NzY5LDMuNjIxNjMgLTUuNTEwMDE4LC00LjQyNDYgMCwwIHogbSA0Ny4zMTYzOTksMjguNjY0MzIgYyAwLjE0NDk2LC0yLjIyOTY1IC0xLjUzNjA0LDEuOTAyMDEgMCwwIHogbSA0Ljg2MzI0LDIuMDQ2NzkgYyAyLjU5Mjk3LC0yLjUxMjU1IDAuMTA2LDQuMDAyMjIgNC4yOTY1NSwtMC42MTUwOSAwLjA0NTMsLTMuMzA1NDQgLTAuMTI5MDQsLTUuMjU3ODMgLTQuODE1NjMsLTEuMjQyNTIgLTEuMjkxOTQsMC43MTY0OCAtMS44Njg3MSwzLjc2Mjg4IDAuNTE5MDgsMS44NTc2MSB6IE0gNzQuOTMyMzc4LDE0MC4wMjYzNyBjIC0wLjc5NjM1NSwtMy4xMzA0IC01LjU4MTk0OSwtMy4xMTQxOCAwLDAgeiBtIDUuMTkzMDI5LDMuNDAyOTQgYyAtMS45MjgzOTcsLTMuMTk3MzkgLTYuODgwNTI1LC0yLjg5NDY5IDAsMCB6IG0gMjkuNTQzMzczLDE3LjgxNjk3IGMgMi44ODQ0LDIuNTYxOTkgMTMuMjQ3NjEsMS44Nzk4NCAzLjUwMzMxLDAuMzE1MjcgLTEuNDQzMjEsLTIuMTMzODYgLTkuMTY0MTUsLTEuNjIwMyAtMy41MDMzMSwtMC4zMTUyNyB6IG0gNDAuNjEyMzYsMjUuMDgxNTMgYyA0LjQzOTMzLC0zLjcyNTEyIC00LjMwMTIyLDEuNjYxODMgMCwwIHogbSA5LjIzMjgsNi4zNDQ3MyBjIDAuMDI3NywtMS4xOTU0MyAtMS45MTM1MiwwLjUyMzM4IDAsMCB6IG0gMC4wMTQyLC0xLjY3MzYgYyA0LjkxNjAyLC01LjIwODY2IC00Ljc2MzQ2LDAuMzA4MDcgLTRlLTUsMCBsIDRlLTUsMCB6IE0gNjIuMTU5ODEsMTI5LjMzMzM5IGMgLTQuMTg5OTQ0LC01Ljk3ODI2IC0yLjYwNDU4NiwtOC42NjU0NCAtNi42NDUxMzYsLTEzLjU0Njc3IC0wLjc2NDkxMywtMy43MzI3OSAtNi45MzE2NzIsLTEyLjIwMzI2IC0zLjE4OTU3OSwtMy4yMjk0NyAzLjQyNzU0LDUuMjQ4MzYgNC40NDYwNTQsMTMuMzc0MzQgOS44MzQ3MTUsMTYuNzc2MjQgeiBtIDk1LjgyNjM1LDYwLjAwOTc3IGMgOS4wNDQyOSwtNS44NDU3NSAtMy43MTI1LC0yLjU0NjQxIDAsMCB6IG0gNi45MDQxLDIuNzA0NjEgYyA0LjUyOTExLC0zLjg4ODY3IC0yLjg2NDkxLC0wLjgxMzM0IDAsMCB6IE0gNzMuMzkzMDk0LDEzMy40MTgzOCBjIDEuMjk2MjA0LC0xLjkyODM4IC0zLjM0NzY0MiwtMC4yNDY2NiAwLDAgeiBtIDkwLjA1NTU5Niw1Ni43ODI3NSBjIDQuMzg1MjYsLTIuODI3NDYgLTEuMDEwMzYsLTIuMzkzMzUgLTAuNzk0ODMsMC4yNjAwMyBsIDAuNzk0ODQsLTAuMjYwMDMgLTFlLTUsMCB6IG0gLTU5LjUxMzg2LC0zNy41MTE3OCBjIC0wLjE1MDc1LC0xLjkwOTI0IC0yLjMxNTc0LDAuMTYyMDYgMCwwIHogbSAzLjY3Nzk0LDIuMTE2MjkgYyAtMS4xNjg4OCwtMi4zNjMxOCAtMS43OTcxNiwwLjM3MTIxIDAsMCB6IG0gNjIuODcyNSwzNy4zMDYyNSBjIDUuNjE4MDYsLTQuMDUyODMgLTMuNDA1NiwtMC43NzU5NCAtMS4xNzkyNywwLjc2Nzg1IGwgMS4xNzkyNywtMC43Njc4NSAwLDAgeiBtIC0yLjE1MTMxLC0xLjAzOTc5IGMgNC41NzY2MywtMy44MzUwNiAtNC44MzE4MywxLjY5OTU0IDAsMCB6IG0gMTAuOTkxNjMsNy4zMTk4MyBjIDMuMDcyOCwtMi4wNTgxNiAtMy43MzMxNiwtMC42NjU3NSAwLDAgeiBNIDc2LjIxMTI0OSwxMzIuMDI3ODEgYyA0LjExODk2NSwwLjkyMjg2IDE2LjQ2MDM5NCwxMC4xNDM5IDkuMTc5NDY2LDAuNjM3NzIgLTMuNzI4OTkxLC0xLjEwMzg0IC0xLjQ5MjYwNSwtMTAuMjE5MDYgLTUuMjk2MjEsLTguNjA1NzkgMi41NTI5NzIsNC4yNjQ5IDIuMTAwNDYxLDYuMDgwMTggLTMuMjU5NjQyLDMuMzkxNCAtNi43MzY4MDgsLTMuMjg4NTMgLTMuNzg1ODg4LDEuNjI5NyAtMi40NjkyOTMsMi45ODUxOCAtMS43OTQxODUsMC40MDc3MiAyLjM3MzIyNiwxLjU1NzIgMS44NDU2NzksMS41OTE0OSB6IG0gLTE4Ljc2NTg4LC0xNC44MjAyNiBjIDAuNzM3NDA3LC0zLjA0OTkxIC02Ljc4OTgxNCwtMTYuNzc4ODEgLTMuNTU0NDY0LC02Ljg3OTE2IDEuMTY3ODYxLDIuMDczNzMgMS4wNDkxMjMsNi4wMDM4NyAzLjU1NDQ2NCw2Ljg3OTE2IHogbSAzNC40NDM0NTEsMjEuMjM1MTMgYyAtMi4xMjA5ODksLTEuNzczNzggLTAuMTAwNzkyLC0wLjI1MTAzIDAsMCB6IG0gNS4yMjI5OTcsMS4yMTU0OCBjIC0wLjAwMjcsLTMuMjMwNzkgLTUuNzczMjYsLTEuMzExOTYgMCwwIHogbSA0NS4yNjE0NzMsMjguNTMzMjEgYyAtMC44NjMyNiwtMi4yMDczOSAtMy40MTIyOSwtMC4wNTEyIDhlLTUsNGUtNSBsIC04ZS01LC00ZS01IHogbSAyLjE3MzUxLDEuNTg3NjkgYyAtMC4zMjA4NywtMS4yMzU0NiAtMS4yNTM5OSwwLjIzODQ4IDAsMCB6IG0gMTcuOTQwMTUsMTEuMzAwMSBjIDEuNzI1NDYsLTEuMjc0NzIgLTIuMTUzMTgsLTAuMTYyOCAwLDAgeiBNIDY2LjgxOTA1NywxMTkuNjAwNiBjIDQuOTM1MjQzLC0xLjkxMDcyIC01LjI4Nzc1LC0xLjM2MjQ4IDAsMCB6IG0gNzEuNTY5NzMzLDQ1LjA4OTM3IGMgLTAuMDU0OSwtMy4xOTQ5OSAtMy4xNDYyMiwwLjc5MjY0IDAsMCB6IE0gNjQuODY5MTUyLDExNS4wNTY3NSBjIDMuMTcwMTY3LC0xLjA3MDg0IC0yLjkzMjY2MywtMC43MDUzMSAwLDAgeiBtIDkuMjAxNTMyLDQuNDU3MjYgYyAtMC4wNTc1LC0xLjA1MDE0IC0wLjk3MzMzNiwwLjM5NzQ3IDAsMCB6IG0gMTEyLjIzMTQwNiw2OC44MjE4MSBjIDQuMDc2NSwtMC44MjY1IDEzLjM2NjA2LDIuMDc0ODkgMTQuODY3NTIsLTEuMDgwODYgLTQuOTUwNDQsLTAuMTIwMTkgLTE3LjEyNzM0LC0zLjQ5MjYzIC0xNy43MDM0NiwwLjgwNDc5IGwgMS4wODM2OCwwLjE3MDcyIDEuNzUyMjYsMC4xMDUzNCAwLDFlLTUgeiBNIDc2Ljk5NTE2MSwxMjAuMjUwOTkgYyAwLjA3MDg3LC0zLjIzNzU1IC0yLjUyNDY2OSwtMC4xMjA5MiAwLDAgeiBNIDUyLjgwMTk5OCwxMDMuNDY4NyBjIC0xLjA5ODcwMywtNi4xNjg0MyAtNC4xNzg3OTEsLTAuOTMzNTcgMCwwIHogbSA1Ljc2OTE5NSwxLjQ1MDEzIGMgMC4wNzA4NywtMS45ODA3IC01LjI4MDU2MiwtMS43ODIyNCAwLDAgeiBtIDMuMjk2OTE3LDEuNjE5MjMgYyAtMC45NTMwMTksLTAuNzcxOTYgLTAuNzQ1OTU5LDAuOTc1MjEgMCwwIHogbSAyMC43NDQ3MTksMTMuMzA3NzUgYyAwLjk3NjYxNSwtMC44OTcxOCAtMi4zMTIxMTYsLTAuNjY0NTUgMCwwIHogTSA1OS42NzIyMDQsMTAyLjg4NjE3IGMgLTAuNTU3NjI0LC00LjY1ODk3IC02LjY4MTk5OSwtMC42OTgwNSAwLDAgeiBNIDQ3Ljg0NDQ0MSw5NS4yMTE2NiBjIC0wLjE2ODIxOSwtMi4xNTAxODkgLTEuMTUyNjI1LDAuODExMTEgMCwwIHogbSAxLjc1OTMzNiwtMS4zMjg2NzIgYyAtMC4yODcwMywtMi41NDk1ODQgLTEuNTEwNTE1LDAuMzI0Mzg3IDAsMCB6IG0gOS43MjA3OTIsNS44MDI0NDIgYyA0LjExMDQ4NiwtMS42MTQ2NSAtNy40ODcyNTQsLTMuMzM5ODQgLTAuODM5ODkzLC0wLjMwNTA2IGwgMC44Mzk4OTMsMC4zMDUwNiB6IG0gMTMwLjA5NzYwMSw4MC4zNTkxMyBjIDIuNjMwOTIsLTIuNDEyMSAtMy4zNDM3MywtMC43NDU3NyAwLDAgeiBtIDE1LjcxNjY5LDguMTQ2OTEgYyAxLjA1NDMzLC0zLjExODYgLTIuNjU0NTIsMC40MTA1OCAwLDAgeiBNIDYwLjMxODAxMiw5NC41OTA0MzYgYyAwLjQzMzAxOCwtMy4wMTY3NzMgLTMuMjU4NzYyLDAuNTk5MDIgMCwwIHogTSA0Ni40ODc2ODcsODUuMzI0MjQyIGMgLTAuNzQyOTY1LC00LjI1OTExIC0wLjY0MTM0LC0xMS43MzUwNjUgNi40NjUxMzMsLTkuMjA4NTgzIC05LjQ4NTk2MiwxLjg4MzMzOSA2LjU2NTM0LDExLjc5MDA5NSA0LjUzODM1NywzLjk2ODM2MyAzLjk4ODYyNiwwLjE5NTI5NCA3LjgwMjY2OSwtMi4zNTcyODQgNS43MDk0ODcsMS41MTY0MDMgNy44NTg3NiwtMC44Njc5NTggMTMuMzA3MTI5LC03LjY4MjYxMiAyMC44OTgxNjksLTYuNzI3NjggNS45MTMwNTgsLTAuNzgyNDkzIDEyLjM3ODE4MiwtMS4zNzU5NTUgMTguNzUwMjU3LC0zLjc1NjE1NyA1LjIzOTA1LC0wLjM3NzQzIDEwLjI4MjM1LC02LjAxODA2MiA3LjQxMDY4LC05LjM2MTM4MyAtNy4xNDQ1NiwtMC42MDQ1MTMgLTE0LjYyMzM5LDAuMjg5MzkzIC0yMi41MjAxMTIsMS44NTg5OTMgLTguNzUwNTU5LDEuODE5MTE3IC0xNi42OTkwMTQsNS4yNzUzMDcgLTI1LjUyODEyNSw2Ljc1ODg2NiAtOC42MDU4OTEsMS4xNTYwNCAxLjczMDk5OCwzLjE4NTE2NSAtMC43MzQwNzQsMy42MzcyMjcgLTQuNDkwNjgxLDEuNTU4MTM2IDUuMzU1NDg4LDIuNjA4ODUyIC0wLjU4MjE4Miw0LjI1MTQyOCBDIDU3LjIyODI4Myw3Ny41NjQ0OCA1My40MTE0MTEsNzYuMzA0NTM1IDU0Ljk3Nzc4OCw3Mi40NDAxOTYgNDYuNzM0MSw3My41MDk5MiAzOS40OTAyNjQsNzYuOTMxMzI1IDQ2LjAwMzI3Niw4NS4zMjAzNDIgbCAwLjQ4NDQwMiwwLjAwMzcgOWUtNiwtMi41NmUtNCB6IG0gMTkuODY0MjkxLC0xMC4xMTY4IGMgMS45MzI4NTYsLTcuMTIwNDY0IDEwLjM1NTIyOSw1Ljg1OTI3NCAzLjE2ODA1MiwwLjk0NTc3NiAtMC44NTg0NTMsLTAuNjQyNDU3IC0yLjI3MDMsLTEuMTY2NTg4IC0zLjE2ODA1MiwtMC45NDU3NzYgeiBtIDAuMzc2MDM4LC0zLjQ1MjE5NyBjIDIuNzg5NjYxLC0yLjA3ODI1NyAxLjQ4Mjk2NCwxLjE2NTE2IDAsMCB6IG0gMy41NDIyMTMsMC4wNTYyMiBjIDAuMjUxODMzLC0zLjI3NjQ4IDguMTA4NzUyLDEuNzM0NTUgMS4yOTU1MTcsMS4xNzk0OTkgbCAtMS4yOTU1MTcsLTEuMTc5NDk5IDAsMCB6IG0gNC44NDU0MywtMS45NDgxOTMgYyAxLjc2OTQ4MSwtMi4wNjc1MzUgMC41MDg2MiwxLjgzOTA2IDAsMCB6IG0gMS4yMzk1NjMsLTAuODMwMDUgYyAyLjk0NjM3OSwtMy41NDAyMTYgMTYuNjg1NjEsLTIuMjU5NDEzIDYuNjI4OTY2LC0wLjM0NTE5IC0yLjY5NTU0MywtMi4wMjkzNjMgLTQuNzYxNzk3LDEuMTk2NTc1IC02LjYyODk2NiwwLjM0NTE5IHogbSAxNy45MzAwMTcsLTIuNzYzODg2IGMgLTAuNDQ4MTk5LC05LjY3MDIyMiA4LjkwNzc3MSwzLjQzNjQ3NyAwLDAgeiBtIDUuMDg3NTM5LC0wLjAyNzg0IGMgMS44NjAwMjIsLTQuODczOTA2IDcuMjE4MDcyLC0xLjk1NTc3NCAwLjg2MDczMiwtMC45Nzk0MDcgMC4xMzgwNSwwLjUxODY1NiAtMC4xODY0MiwyLjUxNjE3MyAtMC44NjA3MzIsMC45Nzk0MDcgeiBNIDU4LjMxMTg0Miw5Mi4wODg3MzkgYyA1LjU1NzUzLC0zLjQwMzIxMiAtNS44OTk5NDUsLTIuOTUyNTQxIDAsMCBsIDAsMCB6IG0gNC4xMDkyMTQsMS4xNDE4NjYgYyAxLjk0ODUxMywtMi4wNzE4ODQgLTQuMjMzODU3LC0wLjg0MDM2OSAwLDAgeiBNIDUwLjMxMzM5NSw4NC42Mzc2NyBjIDMuMTc1NTY5LC0yLjQzOTQxNiAtMy43NTc4NDIsLTAuOTI3NDczIDAsMCB6IE0gMjE0LjQxNTc4LDE4Ny4zMDAxMiBjIDAuMDkxOCwtMi44MzAxOSAtMi40MjcxOCwxLjI3NTM3IDAsMCB6IG0gLTE2LjY3NDg3LC0xMS4zNzkzNSBjIDAuNDc0MTcsLTMuMjU4NDUgLTIuMTQyODYsMC4yODQwOCAwLDAgeiBtIDIxLjI2MDIyLDEyLjQ3NjcyIGMgNC40Mzk5NCwwLjAxNSAxMy40NTI2NSwtMS4zNzg4NCAzLjc5MjE3LC0xLjM3NDQyIC0xLjUxNTk0LDAuMjM2NDEgLTguODMzMTEsMC4xODU3MSAtMy43OTIxNiwxLjM3NDM5IGwgLTFlLTUsM2UtNSB6IE0gNjYuMDM1NjAzLDkxLjIzMzM5IGMgMy41OTMyNTgsLTAuMjQ2ODA3IDUuNjIxODYxLC0zLjk2MzYyOSAtMC42OTQ5MzIsLTMuNzQ5OTc3IC05Ljc4OTk0OSwtMS4wMTM1NDEgOC42Mzc1MDgsMy4zNTIxMjkgLTEuMjU1ODk4LDIuMTAzODMgLTEuMzI5MzY4LDAuODgwMzQ2IDEuODczNjA2LDEuODg5NzIxIDEuOTUwODMsMS42NDYxNDcgeiBtIDMuMTY0NjE4LDEuNjAxNzQ4IGMgLTAuMzc1MTc3LC0yLjMwNzA2MyAtMS4xMTExNTYsMS4yMjU1OTEgMCwwIHogbSAzLjc1Mzg5NiwtMTAuMDA5OTAxIGMgMS41NTkyODEsLTEuOTM0MDU1IC0yLjE1NzY5NywtMC41MTcwNTMgMCwwIHogTSA2MS4wMDM5OTgsNjIuODQ5OTkgYyA2LjQxMjg3OSwtMi4xODE2MzEgMTUuMTgyMzkyLC00LjYzMzA4NyAxOC4yMTAzMzUsMS4wNzQxODQgLTMuMDgxNTg5LC0zLjcwODkzIC0xLjI0MzYxLC03LjM2MDE1NyAxLjY2Njk1OSwtMS45Mzc0MDcgNC4xMTU1NzYsNS40ODY2NjkgNi4xNzU5MTUsLTIuNDk1NDg5IDMuNDk5MDg2LC00LjMzNTgyMSAzLjA1MDQ2OCwzLjc5MDI0NiA2LjUyMDA0NCw1LjU4MTI4MSAyLjA0MjQyOSwwLjIzOTU2NCA0Ljg2NTY5MywtNS44NTI5MjkgLTkuNzQyNzEyLDAuNzY2NDMzIC0xMy4wNjMxMDUsMC42OTk3NzUgLTEuNTk3NTY0LDAuNzE3MDYyIC0xNi40OTM1NzYsMy43OTg4OSAtMTIuMzU1NzA0LDQuMjU5NzA1IHogbSAzLjc1ODMxLC03LjE5NzgzNCBjIDMuNjU3MzI0LC0yLjc2MDQxNiAxMi42NDg5NjgsMS42NDE5ODkgNi44NzkwNzgsLTIuNzQzMzY3IC0wLjU2NDExNywtMC40OTgyOTIgLTEyLjYzNjA3NywzLjMyNTQ3NSAtNi44NzkwNzgsMi43NDMzNjcgeiBtIDEzLjMzMzQ4OSwwLjU1MDQ3MyBjIDQuMjgwMzg5LDAuMTA5MjI1IC0xLjg0NjMyLC01Ljc1MDI4NyAzLjI1NDMwNCwtMy4wOTUxNTkgLTAuODM3Njk2LC0yLjczNjYyNyAtNS45Mzg1NTgsLTMuMjQ4OTU2IC04LjQzMjMxNiwtNC4zNDIzMTIgLTEuNDEwNDc0LDIuNTAyMDU0IDIuODcwOTc3LDcuNDcxMTAyIDUuMTc4MDEyLDcuNDM3NDcxIHogTSA2Ny4xMDAyOTEsNDQuMDk5MTYyIGMgMS40ODA4MDMsLTIuMDA3NDA2IC0yLjU5NTIxLDEuMDE3Njk5IDAsMCB6IG0gNS40NDk1ODYsMS4zMDQzNTMgYyA2Ljg5Nzg2NywtMC45MTQ5MDEgLTEuNzU4MjkyLC0yLjk3MDU0MiAtMS4zODk5NTQsLTAuMDczNTIgbCAxLjM4OTk1NCwwLjA3MzUyIDAsLTllLTYgeiBNIDYyLjM3NDM4NiwzNy40NDE0MzcgYyAtNC44NTY4NjYsLTYuMzQwMjA1IDkuMTMzOTg3LDEuMDY1NzY5IDQuMTk5NDExLC01LjU3MjY0NiAtNC4xNTMyNTQsLTMuMzA3MjQ1IC04LjE0NDI5NywzLjcyMTc3NSAtNC4xOTk0MTEsNS41NzI2NDYgeiBtIDYyLjMzMDEyNCwzMy41NzI4MDIgYyAyLjIyNzYyLC0zLjk0ODk4OCAtOS4xOTY5NywtNS4zMjMwMTEgLTEuNTAwOSwtMS4zOTk1NzggMC43MDg1OCwwLjIzNjc4MSAwLjU0ODIxLDEuNjcyNyAxLjUwMDksMS4zOTk1NzggeiIgaWQ9InBhdGgyOTAwIi8+CiAgICA8ZyBzdHlsZT0iZm9udC1zaXplOjQwcHg7Zm9udC1zdHlsZTpub3JtYWw7Zm9udC13ZWlnaHQ6bm9ybWFsO2ZpbGw6IzAwMDAwMDtmaWxsLW9wYWNpdHk6MTtzdHJva2U6bm9uZTtmb250LWZhbWlseTpCaXRzdHJlYW0gVmVyYSBTYW5zIiBpZD0idGV4dDM4NTAiPgogICAgICA8cGF0aCBkPSJtIDIyOS44NTE4Miw0My43NzgwMyBjIC0wLjc5Njk1LDMuMTQwNzE0IC0xLjI4OTEzLDguNDE0MTQ2IC0xLjQ3NjU2LDE1LjgyMDMxMyAtN2UtNSwxLjQ1MzE5OSAtMC42NTYzMiwyLjE3OTc2MSAtMS45Njg3NSwyLjE3OTY4NyAtMS4zMTI1Nyw3LjRlLTUgLTIuMjI2NjMsLTAuNjMyNzM4IC0yLjc0MjE5LC0xLjg5ODQzNyAtMS40MDYzMSwtMy40MjE3OTYgLTIuNzQyMjUsLTUuODEyNDE5IC00LjAwNzgxLC03LjE3MTg3NSAtMS41MDAwNiwtMS41OTM2NjYgLTMuNDkyMjUsLTIuNTU0NjAzIC01Ljk3NjU2LC0yLjg4MjgxMyAtMi42NzE5MywtMC40MjE3ODkgLTkuMzI4MTgsLTAuNjMyNzI2IC0xOS45Njg3NSwtMC42MzI4MTIgLTIuNDM3NTQsOC42ZS01IC00LjAzMTI5LDAuMjU3ODk4IC00Ljc4MTI1LDAuNzczNDM3IC0wLjQ2ODc5LDAuMzI4MjEgLTAuNzAzMTYsMS4wMzEzMzUgLTAuNzAzMTMsMi4xMDkzNzUgbCAwLDMxLjg1MTU2MyBjIC0zZS01LDEuMDc4MTc1IDAuNjc5NjYsMS41OTM4IDIuMDM5MDYsMS41NDY4NzUgNC4xNzE4NCwtMC4wNDY4MiAxMC4yMTg3MSwtMC4zMjgwNzUgMTguMTQwNjMsLTAuODQzNzUgMS41NDY4MiwtMC4xODc0NDkgMi41ODk3OSwtMC42OTEzNTUgMy4xMjg5MSwtMS41MTE3MTkgMC41MzksLTAuODIwMjU5IDEuMDY2MzQsLTIuOTQxMzUxIDEuNTgyMDMsLTYuMzYzMjgxIDAuMzI4MDYsLTEuODc0OTQgMS40Mjk2MywtMi42MDE1MDIgMy4zMDQ2OCwtMi4xNzk2ODggMS41OTM2OSwwLjMyODE4NiAyLjI3MzM4LDEuMDU0NzQ3IDIuMDM5MDcsMi4xNzk2ODggLTEuMzEyNTYsNi4zNzUwNTIgLTEuNzM0NDQsMTQuNjcxOTE5IC0xLjI2NTYzLDI0Ljg5MDYyNyAwLjA0NjgsMS4yMTg3OCAtMC43MjY2MiwxLjg3NTAzIC0yLjMyMDMxLDEuOTY4NzUgLTEuMzEyNTYsMC4xNDA2NSAtMi4xMzI4NywtMC41NjI0NyAtMi40NjA5NCwtMi4xMDkzOCAtMS4yMTg4LC01Ljg1OTMzMyAtMy40ODA1MiwtOC45ODgyMzYgLTYuNzg1MTUsLTkuMzg2NzE2IC0zLjMwNDc0LC0wLjM5ODM5NCAtOC42ODM2NCwtMC41OTc2MTIgLTE2LjEzNjcyLC0wLjU5NzY1NiAtMC44NDM3OSw0LjRlLTUgLTEuMjY1NjYsMC4zMDQ3MzEgLTEuMjY1NjMsMC45MTQwNjIgbCAwLDMxLjY0MDYzIGMgLTNlLTUsMi4zNDM3NSAwLjg2NzE2LDMuOTM3NSAyLjYwMTU2LDQuNzgxMjUgMS4zNTkzNCwwLjcwMzEzIDQuMjg5MDMsMS4zMzU5NCA4Ljc4OTA3LDEuODk4NDMgMi4yOTY4MywwLjIzNDM4IDMuMzA0NjQsMS4yNDIxOSAzLjAyMzQzLDMuMDIzNDQgLTAuMjgxMjksMS41NDY4OCAtMi4zNDM3OSwyLjE1NjI1IC02LjE4NzUsMS44MjgxMyAtMTEuMTA5NCwtMC44OTA2MyAtMjAuMjczNDUsLTAuODQzNzUgLTI3LjQ5MjE4LDAuMTQwNjIgLTIuMDE1NjQsMC4yODEyNSAtMy4wMjM0NSwtMC41MzkwNiAtMy4wMjM0NCwtMi40NjA5NCAtMWUtNSwtMS4yMTg3NCAxLjAwNzgsLTEuOTIxODcgMy4wMjM0NCwtMi4xMDkzNyA0LjU5MzczLC0wLjUxNTYyIDYuODkwNiwtNC41NDY4NyA2Ljg5MDYyLC0xMi4wOTM3NSBsIDAsLTYwLjE4NzUwMiBjIC0yZS01LC0zLjA5MzY3MSAtMC41NTA4LC01LjQ3MjU3NSAtMS42NTIzNCwtNy4xMzY3MTkgLTEuMTAxNTgsLTEuNjYzOTc3IC0zLjE1MjM2LC0zLjE3NTY5NSAtNi4xNTIzNSwtNC41MzUxNTYgLTEuODc1MDEsLTAuODQzNjYxIC0yLjU3ODEzLC0xLjk5MjA5OCAtMi4xMDkzNywtMy40NDUzMTMgMC4yMzQzNiwtMC44OTA1MzIgMC42MDkzNiwtMS4zODI3MTkgMS4xMjUsLTEuNDc2NTYyIDAuNDY4NzQsLTAuMTQwNTMyIDEuNzEwOTIsLTAuMDQ2NzggMy43MjY1NiwwLjI4MTI1IDIuOTUzMTEsMC40Njg4NDIgOS45MTQwNCwwLjcwMzIxNyAyMC44ODI4MSwwLjcwMzEyNSAxMi45Mzc0Niw5LjJlLTUgMjQuMTE3MTMsLTAuMjgxMTU4IDMzLjUzOTA3LC0wLjg0Mzc1IDMuMTQwNTUsLTAuMTg3NDA3IDQuNzEwODYsMC4wNzA0MSA0LjcxMDkzLDAuNzczNDM3IC03ZS01LDAuMTg3NTkyIC0wLjAyMzUsMC4zNzUwOTIgLTAuMDcwMywwLjU2MjUgeiIgc3R5bGU9ImZvbnQtc2l6ZToxNDRweDtmb250LWZhbWlseTpIaWdoIFRvd2VyIFRleHQ7LWlua3NjYXBlLWZvbnQtc3BlY2lmaWNhdGlvbjpIaWdoIFRvd2VyIFRleHQiIGlkPSJwYXRoMjgzMCIvPgogICAgICA8cGF0aCBkPSJtIDI3NS41NTQ5NSwxMzMuMTQ1MjIgYyAtNGUtNSwxLjg3NSAtMS4wNTQ3MywyLjY5NTMxIC0zLjE2NDA3LDIuNDYwOTQgLTYuNDY4NzcsLTAuNjA5MzggLTE0LjQ4NDM5LC0wLjUxNTYzIC0yNC4wNDY4NywwLjI4MTI1IC0xLjkyMTg5LDAuMTg3NDkgLTMuMTA1NDgsMC4xNDA2MiAtMy41NTA3OCwtMC4xNDA2MyAtMC40NDUzMiwtMC4yODEyNSAtMC42Njc5OCwtMS4wNTQ2OSAtMC42Njc5NywtMi4zMjAzMSAtMWUtNSwtMS4xMjUgMS4yNzczMywtMi4wNzQyMiAzLjgzMjAzLC0yLjg0NzY2IDIuNTU0NjcsLTAuNzczNDMgMy44MzIwMiwtMy4wODIwMiAzLjgzMjAzLC02LjkyNTc4IGwgMCwtNjMuNjMyODEyIGMgLTFlLTUsLTMuNzk2Nzk2IC0wLjU1MDc5LC02LjU4NTg1NiAtMS42NTIzNCwtOC4zNjcxODggLTEuMTAxNTgsLTEuNzgxMTY0IC0zLjAzNTE3LC0zLjE2Mzk3NSAtNS44MDA3OCwtNC4xNDg0MzcgLTEuNDUzMTMsLTAuNTE1NTM3IC0yLjE3OTcsLTEuMjQyMDk5IC0yLjE3OTY5LC0yLjE3OTY4OCAtMWUtNSwtMS40MDYxNTggMS4wNTQ2OCwtMi40NjA4NDUgMy4xNjQwNiwtMy4xNjQwNjIgMy4xODc0OSwtMS4wMzExNTYgNi40OTIxNywtMi42MjQ5MDQgOS45MTQwNiwtNC43ODEyNSAyLjgxMjQ4LC0xLjY4NzQwMSA0LjU5MzczLC0yLjUzMTE1IDUuMzQzNzUsLTIuNTMxMjUgMS43MzQzNSwxZS00IDIuNjAxNTQsMS4xOTU0MTIgMi42MDE1NywzLjU4NTkzNyAtM2UtNSwtMC4xODc0MDMgLTAuMDkzOCwyLjE1NjM0NSAtMC4yODEyNSw3LjAzMTI1IC0wLjE0MDY1LDQuNjQwNzEgLTAuMTg3NTMsOS4yMTEwMTggLTAuMTQwNjMsMTMuNzEwOTM4IGwgMC4yODEyNSw2Mi43ODkwNjIgYyAtMmUtNSwyLjg1OTM5IDAuNzAzMSw0LjkzMzYgMi4xMDkzOCw2LjIyMjY2IDEuNDA2MjIsMS4yODkwNiAzLjgyMDI4LDIuMTQ0NTMgNy4yNDIxOCwyLjU2NjQgMi4xMDkzNCwwLjIzNDM4IDMuMTY0MDMsMS4wMzEyNiAzLjE2NDA3LDIuMzkwNjMgeiIgc3R5bGU9ImZvbnQtc2l6ZToxNDRweDtmb250LWZhbWlseTpIaWdoIFRvd2VyIFRleHQ7LWlua3NjYXBlLWZvbnQtc3BlY2lmaWNhdGlvbjpIaWdoIFRvd2VyIFRleHQiIGlkPSJwYXRoMjgzMiIvPgogICAgICA8cGF0aCBkPSJtIDMzOS42Nzk5NSwxMjguNDM0MjggYyAtN2UtNSwwLjk4NDM4IC0xLjc5MzAzLDIuNDcyNjYgLTUuMzc4OTEsNC40NjQ4NCAtMy41ODU5OSwxLjk5MjE5IC02LjQ1NzA4LDIuOTg4MjggLTguNjEzMjgsMi45ODgyOSAtMS44MjgxNywtMTBlLTYgLTMuNDQ1MzYsLTAuODkwNjMgLTQuODUxNTYsLTIuNjcxODggLTEuNDA2MjksLTEuNzgxMjUgLTIuMzkwNjcsLTIuNjcxODcgLTIuOTUzMTMsLTIuNjcxODcgLTAuNDIxOTEsMCAtMi42NDg0NywwLjk2MDk0IC02LjY3OTY5LDIuODgyODEgLTQuMDMxMjgsMS45MjE4NyAtOC4wODU5NiwyLjg4MjgxIC0xMi4xNjQwNiwyLjg4MjgxIC0zLjg0Mzc3LDAgLTcuMDU0NywtMS4xMjUgLTkuNjMyODEsLTMuMzc1IC0yLjgxMjUxLC0yLjQ4NDM3IC00LjIxODc2LC01Ljg1OTM3IC00LjIxODc1LC0xMC4xMjUgLTFlLTUsLTguMTA5MzUgOS4yODEyMywtMTMuOTIxODUgMjcuODQzNzUsLTE3LjQzNzUgMy4xODc0NiwtMC42MDkzNCA0LjgwNDY1LC0xLjg5ODQxIDQuODUxNTYsLTMuODY3MTkgbCAwLjE0MDYzLC00LjQ5OTk5NyBjIDAuMjgxMjEsLTcuNjg3NDU0IC0zLjExNzIzLC0xMS41MzEyIC0xMC4xOTUzMiwtMTEuNTMxMjUgLTIuMDE1NjUsNWUtNSAtMy45MjU4LDEuODA0NzM1IC01LjczMDQ2LDUuNDE0MDYyIC0xLjgwNDcxLDMuNjA5NDE2IC00LjM5NDU2LDUuNTU0NzI3IC03Ljc2OTU0LDUuODM1OTM4IC0zLjg0Mzc2LDAuMzc1MDM4IC01Ljc2NTYzLC0xLjI0MjE0OCAtNS43NjU2MiwtNC44NTE1NjMgLTFlLTUsLTIuMjQ5OTU0IDIuODU5MzYsLTQuODc0OTUxIDguNTc4MTIsLTcuODc1IDUuOTk5OTgsLTMuMTQwNTcgMTEuNzY1NiwtNC43MTA4ODEgMTcuMjk2ODgsLTQuNzEwOTM3IDkuNTE1NTgsNS42ZS01IDE0LjIyNjUxLDQuNTIzNDg5IDE0LjEzMjgxLDEzLjU3MDMxMiBsIC0wLjI4MTI1LDI4Ljk2ODc1NSBjIC0wLjA0NjksMy4wNDY4OCAxLjI0MjE0LDQuNTcwMzIgMy44NjcxOSw0LjU3MDMxIDAuNTE1NTcsMWUtNSAxLjQ5OTk0LC0wLjExNzE4IDIuOTUzMTIsLTAuMzUxNTYgMS40NTMwNywtMC4yMzQzNyAyLjI5NjgyLC0wLjM1MTU2IDIuNTMxMjUsLTAuMzUxNTcgMS4zNTkzMiwxZS01IDIuMDM5LDAuOTE0MDcgMi4wMzkwNywyLjc0MjE5IHogTSAzMTguMDIzNywxMTIuNDAzMDMgYyAwLjA0NjgsLTEuMTcxODUgLTAuMjIyNywtMS45NDUyOSAtMC44MDg2LC0yLjMyMDMxIC0wLjU4NTk3LC0wLjM3NDk4IC0xLjUxMTc1LC0wLjQ0NTI5IC0yLjc3NzM0LC0wLjIxMDk0IC0xMS4yOTY5LDIuMDE1NjUgLTE2Ljk0NTMzLDUuNjk1MzMgLTE2Ljk0NTMxLDExLjAzOTA2IC0yZS01LDUuMzkwNjQgMi45Mjk2Niw4LjA4NTk1IDguNzg5MDYsOC4wODU5NCAyLjM0MzcyLDFlLTUgNC43NTc3OCwtMC40NDUzMSA3LjI0MjE5LC0xLjMzNTk0IDIuOTA2MjEsLTEuMDMxMjQgNC4zNTkzMywtMi4yNzM0MiA0LjM1OTM3LC0zLjcyNjU2IHoiIHN0eWxlPSJmb250LXNpemU6MTQ0cHg7Zm9udC1mYW1pbHk6SGlnaCBUb3dlciBUZXh0Oy1pbmtzY2FwZS1mb250LXNwZWNpZmljYXRpb246SGlnaCBUb3dlciBUZXh0IiBpZD0icGF0aDI4MzQiLz4KICAgICAgPHBhdGggZD0ibSAzOTIuMTMzMDcsMTIwLjA2NzA5IGMgLTVlLTUsNC45Njg3NiAtMS45MTAyLDguOTE3OTggLTUuNzMwNDcsMTEuODQ3NjYgLTMuODIwMzUsMi45Mjk2OSAtOS4wMzUxOSw0LjM5NDUzIC0xNS42NDQ1Myw0LjM5NDUzIC00LjQwNjI3LDAgLTguODEyNTIsLTAuNDY4NzUgLTEzLjIxODc1LC0xLjQwNjI1IC0zLjc5Njg4LC0wLjg0Mzc1IC02LjAwMDAxLC0xLjYxNzE5IC02LjYwOTM3LC0yLjMyMDMxIC0wLjM3NTAxLC0wLjY1NjI1IC0wLjU2MjUxLC0zLjg2NzE4IC0wLjU2MjUsLTkuNjMyODEgLTFlLTUsLTIuNDg0MzYgMC41NjI0OSwtMy43NzM0MyAxLjY4NzUsLTMuODY3MTkgMS4xMjQ5OSwtMC4xNDA2MSAyLjA4NTkyLDAuNDY4NzYgMi44ODI4MSwxLjgyODEyIDMuNTE1NjEsNi4xNDA2NCA5LjE4NzQ4LDkuMjEwOTUgMTcuMDE1NjIsOS4yMTA5NCA2LjYwOTM0LDFlLTUgOS45MTQwMywtMi4yOTY4NyA5LjkxNDA3LC02Ljg5MDYyIC00ZS01LC0yLjAxNTYyIC0wLjc1MDA0LC0zLjcwMzExIC0yLjI1LC01LjA2MjUgLTEuNjQwNjYsLTEuNTQ2ODYgLTQuODI4MTYsLTMuMzUxNTUgLTkuNTYyNSwtNS40MTQwNyAtNi44NDM3NywtMy4wNDY4NSAtMTEuNDE0MDgsLTUuNzE4NzIgLTEzLjcxMDk0LC04LjAxNTYyIC0yLjQ4NDM5LC0yLjQzNzQ3IC0zLjcyNjU3LC01LjcxODcxNiAtMy43MjY1NiwtOS44NDM3NTIgLTFlLTUsLTUuMDYyNDU1IDEuOTQ1MywtOC45OTk5NTEgNS44MzU5MywtMTEuODEyNSAzLjYwOTM2LC0yLjcxODY5NSA4LjQzNzQ4LC00LjA3ODA2OSAxNC40ODQzOCwtNC4wNzgxMjUgMy43OTY4NCw1LjZlLTUgNy4yNjU1OSwwLjMwNDc0MyAxMC40MDYyNSwwLjkxNDA2MiAzLjM3NDk2LDAuNjA5NDMgNS4xMzI3NywxLjM1OTQyOSA1LjI3MzQ0LDIuMjUgMC4zNzQ5NSwyLjYyNTA1MSAxLjE0ODM5LDYuNDIxOTIyIDIuMzIwMzEsMTEuMzkwNjI1IDAuMTQwNTgsMC42MDk0MTYgLTAuNTE1NjcsMS4xMDE2MDMgLTEuOTY4NzUsMS40NzY1NjMgLTEuNTQ2OTIsMC4zMjgxNjUgLTIuNTc4MTcsMC4wNzAzNSAtMy4wOTM3NSwtMC43NzM0MzggLTMuNzAzMTcsLTYuMDQ2ODI4IC04LjM5MDY2LC05LjA3MDI2MiAtMTQuMDYyNSwtOS4wNzAzMTIgLTYuNDIxOSw1ZS01IC05LjYzMjgzLDIuMDYyNTQ4IC05LjYzMjgxLDYuMTg3NSAtMmUtNSwyLjI5NjkxNiAwLjg2NzE2LDQuMTI1MDQgMi42MDE1Niw1LjQ4NDM3NSAxLjU0Njg1LDEuMTcxOTEyIDUuMTc5NjYsMy4wMDAwMzUgMTAuODk4NDQsNS40ODQzNzIgNS45OTk5NiwyLjU3ODE2IDEwLjA3ODA4LDQuODk4NDcgMTIuMjM0MzcsNi45NjA5NCAyLjgxMjQ1LDIuNjcxOSA0LjIxODcsNi4yNTc4MyA0LjIxODc1LDEwLjc1NzgxIHoiIHN0eWxlPSJmb250LXNpemU6MTQ0cHg7Zm9udC1mYW1pbHk6SGlnaCBUb3dlciBUZXh0Oy1pbmtzY2FwZS1mb250LXNwZWNpZmljYXRpb246SGlnaCBUb3dlciBUZXh0IiBpZD0icGF0aDI4MzYiLz4KICAgICAgPHBhdGggZD0ibSA0NzMuNjk1NTcsMTMyLjcyMzM0IGMgLTdlLTUsMS42NDA2MyAtMS4xMDE2MywyLjUwNzgyIC0zLjMwNDY5LDIuNjAxNTcgLTMuMjgxMzEsMC4wNDY5IC03LjU3MDM3LDAuMjgxMjQgLTEyLjg2NzE4LDAuNzAzMTIgLTIuNjI1MDYsMC41MTU2MiAtNC41MDAwNiwwLjE4NzUgLTUuNjI1LC0wLjk4NDM3IC03LjQwNjMsLTcuOTY4NzUgLTEzLjY4NzU0LC0xNi4zMTI0OSAtMTguODQzNzUsLTI1LjAzMTI1IC0wLjQyMTkxLC0wLjc0OTk4IC0wLjk2MDk3LC0xLjEyNDk4IC0xLjYxNzE5LC0xLjEyNSAtMC43OTY5MSwyZS01IC0yLjE3OTcyLDAuNzAzMTUgLTQuMTQ4NDQsMi4xMDkzNyAtMi4yMDMxNSwxLjIxODc3IC0zLjMwNDcxLDIuOTUzMTUgLTMuMzA0NjksNS4yMDMxMyAtMmUtNSwxLjU5Mzc2IDAuMDQ2OSwzLjg5MDY0IDAuMTQwNjMsNi44OTA2MiAwLjA5MzcsMy4wMDAwMSAwLjg0MzcyLDQuOTY4NzYgMi4yNSw1LjkwNjI1IDAuOTg0MzUsMC42NTYyNiAzLjI1Nzc4LDEuMTcxODggNi44MjAzMSwxLjU0Njg4IDIuMjAzMDksMC4yODEyNSAzLjMwNDY1LDEuMTAxNTYgMy4zMDQ2OSwyLjQ2MDkzIC00ZS01LDEuMDc4MTMgLTAuMTc1ODIsMS43NDYxIC0wLjUyNzM0LDIuMDAzOTEgLTAuMzUxNiwwLjI1NzgxIC0xLjI3NzM4LDAuMzE2NDEgLTIuNzc3MzUsMC4xNzU3OCAtNC42ODc1MywtMC40MjE4NyAtMTIuNjA5MzksLTAuMTg3NSAtMjMuNzY1NjIsMC43MDMxMyAtMi44MTI1MSwwLjIzNDM3IC00LjMzNTk1LC0wLjExNzE5IC00LjU3MDMyLC0xLjA1NDY5IC0wLjA5MzcsLTAuMzI4MTMgLTAuMTQwNjMsLTAuNzk2ODggLTAuMTQwNjIsLTEuNDA2MjUgLTFlLTUsLTEuNDUzMTIgMS40Mjk2OCwtMi41NTQ2OSA0LjI4OTA2LC0zLjMwNDY5IDIuNTc4MTEsLTAuNjU2MjQgMy44NjcxOCwtMy42Nzk2OCAzLjg2NzE5LC05LjA3MDMxIGwgMCwtNjEuNDUzMTI3IGMgLTFlLTUsLTMuODQzNjcxIC0wLjM3NTAxLC02LjUxNTU0MyAtMS4xMjUsLTguMDE1NjI1IC0xLjAzMTI2LC0xLjkyMTc5IC0zLjE4NzUxLC0zLjQyMTc4OCAtNi40Njg3NSwtNC41IC0xLjU0Njg4LC0wLjUxNTUzNiAtMi4zMjAzMiwtMS4yNDIwOTggLTIuMzIwMzEsLTIuMTc5Njg4IC0xZS01LC0xLjM1OTI4MyAxLjEwMTU1LC0yLjQxMzk2OSAzLjMwNDY4LC0zLjE2NDA2MiAzLjUxNTYyLC0xLjE3MTc4IDYuODY3MTgsLTIuNzg4OTY2IDEwLjA1NDY5LC00Ljg1MTU2MyAyLjU3ODExLC0xLjY4NzQgNC4xNzE4NiwtMi41MzExNDkgNC43ODEyNSwtMi41MzEyNSAxLjkyMTg1LDEuMDFlLTQgMi44ODI3OSwxLjIxODg1IDIuODgyODEsMy42NTYyNSAtMmUtNSwtMC4zMjgwMjcgLTAuMDIzNSwxLjk5MjI4MyAtMC4wNzAzLDYuOTYwOTM4IC0wLjA0NjksMy40MjE5NjIgLTAuMDcwMyw4LjAxNTcwNyAtMC4wNzAzLDEzLjc4MTI1IGwgMC4xNDA2Miw0NC4wMTU2MjcgYyAtMmUtNSwxLjIxODc4IDAuMzI4MSwxLjgyODE1IDAuOTg0MzgsMS44MjgxMiAwLjcwMzEsM2UtNSAxLjc4MTIyLC0wLjYwOTM0IDMuMjM0MzcsLTEuODI4MTIgMy44OTA2LC0zLjA0Njg0MiA4LjY3MTg0LC03LjAzMTIxMyAxNC4zNDM3NSwtMTEuOTUzMTI3IDEuMTI0OTYsLTEuMTcxODMgMS42ODc0NiwtMi4xMDkzMjkgMS42ODc1LC0yLjgxMjUgLTRlLTUsLTEuMjY1NTc3IC0xLjg5ODQ4LC0yLjE1NjIwMSAtNS42OTUzMSwtMi42NzE4NzUgLTEuNjQwNjYsLTAuMTg3NDUgLTIuNDE0MSwtMS4xMDE1MTIgLTIuMzIwMzEsLTIuNzQyMTg4IDAuMTQwNTksLTEuNjQwNTcgMC45NjA5LC0yLjM0MzY5NSAyLjQ2MDk0LC0yLjEwOTM3NSAzLjM3NDk1LDAuNDY4ODA1IDguMjk2ODIsMC43MjY2MTcgMTQuNzY1NjIsMC43NzM0MzggNC40OTk5NCwwLjA0NjkzIDguOTc2NSwwLjA3MDM3IDEzLjQyOTY5LDAuMDcwMzEgMS40NTMwNiwwLjA0NjkzIDIuMTc5NjIsMC45MTQxMTYgMi4xNzk2OSwyLjYwMTU2MyAtN2UtNSwxLjU5MzggLTEuMTQ4NTEsMi40NjA5ODYgLTMuNDQ1MzIsMi42MDE1NjIgLTMuNjA5NDMsMC4xNDA2NzQgLTcuMDA3ODcsMC45NjA5ODYgLTEwLjE5NTMxLDIuNDYwOTM4IC00LjQ1MzE3LDIuMDE1NjY5IC05LjIxMDk4LDUuNTU0NzI4IC0xNC4yNzM0NCwxMC42MTcxODcgLTAuMzc1MDQsMC4yODEyODYgLTAuNTYyNTQsMC42MzI4NDUgLTAuNTYyNSwxLjA1NDY4NSAtNGUtNSwwLjY1NjI5IDAuNzk2ODQsMi4yMjY2IDIuMzkwNjMsNC43MTA5NCA1Ljg1OTMzLDguOTA2MjcgMTEuMzkwNTcsMTUuNjMyODMgMTYuNTkzNzUsMjAuMTc5NjkgMy4zMjgwNiwyLjg1OTM4IDYuNDQ1MjUsNC4yODkwNyA5LjM1MTU2LDQuMjg5MDYgMi4xNTYxOCwxZS01IDMuNDkyMTIsMC4xNTIzNSA0LjAwNzgxLDAuNDU3MDMgMC41MTU1NiwwLjMwNDY5IDAuNzczMzcsMS4xMTMyOSAwLjc3MzQ0LDIuNDI1NzggeiIgc3R5bGU9ImZvbnQtc2l6ZToxNDRweDtmb250LWZhbWlseTpIaWdoIFRvd2VyIFRleHQ7LWlua3NjYXBlLWZvbnQtc3BlY2lmaWNhdGlvbjpIaWdoIFRvd2VyIFRleHQiIGlkPSJwYXRoMjgzOCIvPgogICAgPC9nPgogICAgPGcgc3R5bGU9ImZvbnQtc2l6ZTo0MHB4O2ZvbnQtc3R5bGU6bm9ybWFsO2ZvbnQtd2VpZ2h0Om5vcm1hbDtsaW5lLWhlaWdodDo4OS45OTk5OTc2MiU7ZmlsbDojMDAwMDAwO2ZpbGwtb3BhY2l0eToxO3N0cm9rZTpub25lO2ZvbnQtZmFtaWx5OkJpdHN0cmVhbSBWZXJhIFNhbnMiIGlkPSJ0ZXh0Mjg3MCIgdHJhbnNmb3JtPSJ0cmFuc2xhdGUoMCw0KSI+CiAgICAgIDxwYXRoIGQ9Im0gMjg1LjE4MDQ4LDE1My4yMjk2IGMgLTJlLTUsMC4xNjQwNyAtMC4zMTQ0NywwLjMzMjY5IC0wLjk0MzM2LDAuNTA1ODYgLTAuNDEwMTcsMC4xMDkzOCAtMC43NTY1MywwLjQ4MzA4IC0xLjAzOTA2LDEuMTIxMDkgLTEuNjQwNjQsMy42NDU4NCAtMy4xMDgwOSw2LjU4NTI5IC00LjQwMjM0LDguODE4MzYgLTAuMDI3NCwwLjA1NDcgLTAuMDk1NywwLjA3NzUgLTAuMjA1MDgsMC4wNjg0IC0wLjEwMDI4LC0wLjAwOSAtMC4xNjg2NCwtMC4wNDEgLTAuMjA1MDgsLTAuMDk1NyAtMC4yMTg3NiwtMC4zMjgxMyAtMC43NzkzMSwtMS40NzIwMSAtMS42ODE2NCwtMy40MzE2NCAtMC44Mjk0NCwtMS44MDQ2OSAtMS4yNzYwNSwtMi43MDcwMyAtMS4zMzk4NSwtMi43MDcwMyAtMC4xMDAyNywwIC0wLjU4NzksMC44NzA0NCAtMS40NjI4OSwyLjYxMTMyIC0wLjk5MzQ5LDEuOTQxNDEgLTEuNTgxMzgsMy4wNDg4MyAtMS43NjM2NywzLjMyMjI3IC0wLjAyNzQsMC4wNjM4IC0wLjA5MTIsMC4wOTExIC0wLjE5MTQsMC4wODIgLTAuMTAwMjcsMCAtMC4xNzc3NSwtMC4wMzY1IC0wLjIzMjQzLC0wLjEwOTM3IC0wLjY2NTM3LC0xLjAzOTA3IC0yLjE5NjYyLC0zLjg4MjgxIC00LjU5Mzc1LC04LjUzMTI1IC0wLjI3MzQ0LC0wLjU0Njg3IC0wLjU3ODc3LC0wLjg5MzIyIC0wLjkxNjAxLC0xLjAzOTA3IC0wLjU4MzM0LC0wLjI1NTIgLTAuODc1LC0wLjQ0MjA0IC0wLjg3NSwtMC41NjA1NCAwLC0wLjM1NTQ2IDAuMTk1OTYsLTAuNTE0OTcgMC41ODc4OSwtMC40Nzg1MiAxLjc1OTExLDAuMTgyMyAzLjI5OTQ3LDAuMTQ1ODQgNC42MjEwOSwtMC4xMDkzNyAwLjMwMDc4LC0wLjA1NDcgMC40NTExNywwLjA0NTYgMC40NTExNywwLjMwMDc4IDAsMC4zNTU0OCAtMC4yMDUwOCwwLjU4MzM0IC0wLjYxNTIzLDAuNjgzNTkgLTAuNTM3NzcsMC4xMjc2MSAtMC44MDY2NSwwLjMyODE0IC0wLjgwNjY0LDAuNjAxNTYgLTFlLTUsMC4xNzMxOSAwLjA2MzgsMC40Mjg0IDAuMTkxNDEsMC43NjU2MyAwLjMyODEyLDAuODQ3NjYgMC44MjAzLDEuOTIzMTggMS40NzY1NiwzLjIyNjU2IDAuNjU2MjQsMS4zMDMzOSAxLjAzOTA1LDEuOTU1MDggMS4xNDg0NCwxLjk1NTA4IDAuMDcyOSwwIDAuNDYwMjcsLTAuNjc5MDMgMS4xNjIxMSwtMi4wMzcxMSAwLjcwMTgxLC0xLjM1ODA3IDEuMDUyNzIsLTIuMTEwMDIgMS4wNTI3MywtMi4yNTU4NiAtMWUtNSwtMC4zNTU0NiAtMC4xMTg1LC0wLjczODI3IC0wLjM1NTQ3LC0xLjE0ODQ0IC0wLjI4MjU2LC0wLjYwMTU1IC0wLjYxMDY5LC0wLjk2MTU4IC0wLjk4NDM3LC0xLjA4MDA4IC0wLjYwMTU3LC0wLjIwOTYyIC0wLjkwMjM2LC0wLjQxNDcgLTAuOTAyMzUsLTAuNjE1MjMgLTFlLTUsLTAuMzY0NTcgMC4yMDUwNywtMC41MTQ5NiAwLjYxNTI0LC0wLjQ1MTE3IDEuNDAzNjMsMC4xOTE0MiAyLjg4OTMxLDAuMTU0OTYgNC40NTcwMywtMC4xMDkzOCAwLjMwMDc3LC0wLjA1NDcgMC40NTExNiwwLjAzNjUgMC40NTExNywwLjI3MzQ0IC0xZS01LDAuMzQ2MzcgLTAuMjIzMzIsMC41NjA1NiAtMC42Njk5MiwwLjY0MjU4IC0wLjUyODY2LDAuMTAwMjcgLTAuNzkyOTgsMC4zNjkxNSAtMC43OTI5NywwLjgwNjY0IC0xMGUtNiwwLjIwOTY0IDAuMDU5MiwwLjQ1NTc0IDAuMTc3NzMsMC43MzgyOCAxLjQwMzY0LDMuNDM2MiAyLjIxNDgzLDUuMTU0MyAyLjQzMzYsNS4xNTQzIDAuMDgyLDAgMC40NDY2LC0wLjY2OTkyIDEuMDkzNzUsLTIuMDA5NzcgMC42OTI2OSwtMS40MzA5OCAxLjE3NTc2LC0yLjU4Mzk3IDEuNDQ5MjIsLTMuNDU4OTggMC4wMTgyLC0wLjA0NTYgMC4wMjczLC0wLjA5NTcgMC4wMjczLC0wLjE1MDM5IC0yZS01LC0wLjM5MTkyIC0wLjMwNTM2LC0wLjY5NzI2IC0wLjkxNjAyLC0wLjkxNjAyIC0wLjQ3Mzk3LC0wLjE1NDk0IC0wLjcxMDk1LC0wLjMyODExIC0wLjcxMDkzLC0wLjUxOTUzIC0yZS01LC0wLjMxOSAwLjE1MDM3LC0wLjQ0MjA1IDAuNDUxMTcsLTAuMzY5MTQgMC40MTAxNCwwLjA5MTIgMS4xNDg0MiwwLjE1OTUyIDIuMjE0ODQsMC4yMDUwOCAxLjAwMjU5LDAuMDM2NSAxLjY2MzM5LDAuMDMxOSAxLjk4MjQyLC0wLjAxMzcgMC4zNzM2OCwtMC4wNDU2IDAuNTYwNTMsMC4wNTkyIDAuNTYwNTUsMC4zMTQ0NSB6IiBzdHlsZT0iZm9udC1zaXplOjI4cHg7Zm9udC12YXJpYW50Om5vcm1hbDtmb250LXN0cmV0Y2g6bm9ybWFsO3RleHQtYWxpZ246ZW5kO2xpbmUtaGVpZ2h0Ojg5Ljk5OTk5NzYyJTt3cml0aW5nLW1vZGU6bHItdGI7dGV4dC1hbmNob3I6ZW5kO2ZvbnQtZmFtaWx5OkhpZ2ggVG93ZXIgVGV4dDstaW5rc2NhcGUtZm9udC1zcGVjaWZpY2F0aW9uOkhpZ2ggVG93ZXIgVGV4dCIgaWQ9InBhdGgyODc3Ii8+CiAgICAgIDxwYXRoIGQ9Im0gMjk3LjI5Mzc2LDE2MC45ODE1NSBjIC0xZS01LDAuMzkxOTMgLTAuNTI4NjUsMC44Nzk1NiAtMS41ODU5NCwxLjQ2Mjg5IC0xLjIwMzEzLDAuNjQ3MTQgLTIuNDM4MTUsMC45NzA3MSAtMy43MDUwNywwLjk3MDcxIC0xLjM3NjMxLDAgLTIuNTMzODYsLTAuNDUxMTggLTMuNDcyNjYsLTEuMzUzNTIgLTEuMDAyNjEsLTAuOTU3MDMgLTEuNTAzOTEsLTIuMjMzMDcgLTEuNTAzOTEsLTMuODI4MTIgMCwtMS44MDQ2OSAwLjU2MDU1LC0zLjI1MzkgMS42ODE2NCwtNC4zNDc2NiAxLjA0ODE4LC0xLjAyMDgyIDIuMzMzMzMsLTEuNTMxMjQgMy44NTU0NywtMS41MzEyNSAwLjkwMjM0LDFlLTUgMS43NDU0NCwwLjI4NzEyIDIuNTI5MywwLjg2MTMzIDAuNzAxODEsMC41MTA0MiAxLjE2NjY2LDEuMDkzNzYgMS4zOTQ1MywxLjc1IDAuMDgyLDAuMjI3ODcgMC4yMDUwNywwLjM1NTQ3IDAuMzY5MTQsMC4zODI4MSAwLjIzNjk3LDAuMDQ1NiAwLjM1NTQ2LDAuMjA1MDkgMC4zNTU0NywwLjQ3ODUyIC0xMGUtNiwwLjM3MzcgLTAuNDQ2NjIsMC42OTI3MSAtMS4zMzk4NCwwLjk1NzAzIGwgLTYuMzAyNzQsMS44NzMwNCBjIDAuNDEwMTYsMi4xNjkyOCAxLjUyMjEzLDMuMjUzOTEgMy4zMzU5NCwzLjI1MzkxIDEuMDQ4MTcsMCAyLjI0MjE4LC0wLjM4MjgxIDMuNTgyMDMsLTEuMTQ4NDQgMC4yMDA1MSwtMC4xMTg0OCAwLjM5NjQ4LC0wLjE3NzczIDAuNTg3ODksLTAuMTc3NzMgMC4xNDU4MiwwIDAuMjE4NzQsMC4xMzIxNiAwLjIxODc1LDAuMzk2NDggeiBtIC0zLjI0MDIzLC01LjQ4MjQyIGMgLTFlLTUsLTAuNTAxMjkgLTAuMjAyODEsLTAuOTQxMDcgLTAuNjA4NCwtMS4zMTkzNCAtMC40MDU2MSwtMC4zNzgyNCAtMC45MDQ2MywtMC41NjczNyAtMS40OTcwNywtMC41NjczOCAtMS42NzcwOSwxMGUtNiAtMi41MTU2MywxLjIwNzY5IC0yLjUxNTYzLDMuNjIzMDUgbCAwLDAuMzI4MTIgMy43MTg3NSwtMS4xMjEwOSBjIDAuNjAxNTYsLTAuMTczMTcgMC45MDIzNCwtMC40ODc2MiAwLjkwMjM1LC0wLjk0MzM2IHoiIHN0eWxlPSJmb250LXNpemU6MjhweDtmb250LXZhcmlhbnQ6bm9ybWFsO2ZvbnQtc3RyZXRjaDpub3JtYWw7dGV4dC1hbGlnbjplbmQ7bGluZS1oZWlnaHQ6ODkuOTk5OTk3NjIlO3dyaXRpbmctbW9kZTpsci10Yjt0ZXh0LWFuY2hvcjplbmQ7Zm9udC1mYW1pbHk6SGlnaCBUb3dlciBUZXh0Oy1pbmtzY2FwZS1mb250LXNwZWNpZmljYXRpb246SGlnaCBUb3dlciBUZXh0IiBpZD0icGF0aDI4NzkiLz4KICAgICAgPHBhdGggZD0ibSAzMTEuMTE2MDMsMTU3LjEzOTc2IGMgLTJlLTUsMS44MDQ2OSAtMC42Mjg5MiwzLjMxNzcxIC0xLjg4NjcyLDQuNTM5MDYgLTEuMjAzMTQsMS4xNzU3OCAtMi42MzQxMiwxLjc2MzY3IC00LjI5Mjk3LDEuNzYzNjcgLTAuOTM4ODEsMCAtMS45MTg2MiwtMC4xNTQ5NSAtMi45Mzk0NSwtMC40NjQ4NCAtMC45ODQzOCwtMC4zMDA3OCAtMS40ODExMiwtMC41NzQyMiAtMS40OTAyNCwtMC44MjAzMiAtMC4wMDksLTAuMjA5NjMgLTAuMDA1LC0wLjk0MzM1IDAuMDEzNywtMi4yMDExNyAwLjAyNzMsLTEuNTQwMzYgMC4wNDEsLTIuNjYxNDUgMC4wNDEsLTMuMzYzMjggMCwtMS4wNTcyOCAtMC4wMDksLTIuNTkwODEgLTAuMDI3MywtNC42MDA1OSAtMC4wMTgyLC0yLjAwOTc1IC0wLjAyNzQsLTMuMzQyNzUgLTAuMDI3NCwtMy45OTkwMiAwLC0wLjY1NjIzIC0wLjEwMDI2LC0xLjEwNzQgLTAuMzAwNzgsLTEuMzUzNTEgLTAuMTgyMjksLTAuMjE4NzQgLTAuNTc4NzgsLTAuMzkxOTEgLTEuMTg5NDUsLTAuNTE5NTQgLTAuMjM2OTgsLTAuMDgyIC0wLjM1NTQ3LC0wLjIzMjQgLTAuMzU1NDcsLTAuNDUxMTcgMCwtMC4xOTEzOSAwLjE3NzczLC0wLjM1MDg5IDAuNTMzMiwtMC40Nzg1MSAwLjUxMDQyLC0wLjE4MjI4IDEuMTQzODgsLTAuNDg3NjIgMS45MDAzOSwtMC45MTYwMiAwLjYwMTU2LC0wLjMzNzIyIDAuOTc1MjYsLTAuNTA1ODQgMS4xMjExLC0wLjUwNTg2IDAuMjgyNTQsMmUtNSAwLjQyMzgyLDAuMjMyNDQgMC40MjM4MywwLjY5NzI3IC0xZS01LDAuMDM2NSAtMC4wMTM3LDAuNTEwNDMgLTAuMDQxLDEuNDIxODcgLTAuMDE4MiwwLjg1Njc5IC0wLjAyMjgsMS43MjcyMyAtMC4wMTM3LDIuNjExMzMgbCAwLjAyNzMsNC43MzA0NyBjIDAsMC40NDY2MiAwLjE1NDk0LDAuNTc0MjMgMC40NjQ4NSwwLjM4MjgxIDEuMDkzNzQsLTAuNjI4ODkgMi4yMzMwNiwtMC45NDMzNSAzLjQxNzk2LC0wLjk0MzM2IDEuMzY3MTgsMWUtNSAyLjQ3OTE2LDAuNDEyNDUgMy4zMzU5NCwxLjIzNzMxIDAuODU2NzYsMC44MjQ4OCAxLjI4NTE0LDEuOTAyNjcgMS4yODUxNiwzLjIzMzQgeiBtIC0yLjE4NzUsMS4yMTY3OSBjIC0xZS01LC0xLjI0ODY5IC0wLjM0NjM3LC0yLjI3NDA4IC0xLjAzOTA2LC0zLjA3NjE3IC0wLjY1NjI2LC0wLjc1NjUgLTEuNDUzNzksLTEuMTM0NzYgLTIuMzkyNTgsLTEuMTM0NzcgLTAuNjQ3MTQsMWUtNSAtMS4yODUxNywwLjE2ODYzIC0xLjkxNDA3LDAuNTA1ODYgLTAuNjI4OTEsMC4zMzcyNSAtMC45NDMzNiwwLjY5MjcyIC0wLjk0MzM1LDEuMDY2NDEgbCAwLDMuNjY0MDYgYyAtMWUtNSwxLjc1OTEyIDAuOTcwNjksMi42Mzg2OCAyLjkxMjEsMi42Mzg2NyAxLjAxMTcyLDFlLTUgMS44Mjc0NywtMC4zMjU4NCAyLjQ0NzI3LC0wLjk3NzUzIDAuNjE5NzgsLTAuNjUxNjkgMC45Mjk2OCwtMS41NDcyIDAuOTI5NjksLTIuNjg2NTMgeiIgc3R5bGU9ImZvbnQtc2l6ZToyOHB4O2ZvbnQtdmFyaWFudDpub3JtYWw7Zm9udC1zdHJldGNoOm5vcm1hbDt0ZXh0LWFsaWduOmVuZDtsaW5lLWhlaWdodDo4OS45OTk5OTc2MiU7d3JpdGluZy1tb2RlOmxyLXRiO3RleHQtYW5jaG9yOmVuZDtmb250LWZhbWlseTpIaWdoIFRvd2VyIFRleHQ7LWlua3NjYXBlLWZvbnQtc3BlY2lmaWNhdGlvbjpIaWdoIFRvd2VyIFRleHQiIGlkPSJwYXRoMjg4MSIvPgogICAgICA8cGF0aCBkPSJtIDMzMy4yMzcxMiwxNjEuOTM4NTggYyAwLjAzNjUsMC4wODIgMC4wNTQ3LDAuMTQxMjggMC4wNTQ3LDAuMTc3NzQgLTJlLTUsMC4xOTE0IC0wLjQ2NDg2LDAuNTA1ODYgLTEuMzk0NTMsMC45NDMzNiAtMS4wNzU1MywwLjUwMTMgLTEuNzA5LDAuNzUxOTUgLTEuOTAwMzksMC43NTE5NSAtMC4xNjQwOCwwIC0wLjM1MzIsLTAuMjc1NzIgLTAuNTY3MzksLTAuODI3MTUgLTAuMjE0MiwtMC41NTE0MyAtMC4zNjIzMSwtMC44MjcxNSAtMC40NDQzMywtMC44MjcxNSAwLjAwOSwwIC0wLjUwODE1LDAuMjM5MjYgLTEuNTUxNzYsMC43MTc3OCAtMS4wNDM2MywwLjQ3ODUxIC0xLjgzNDMyLDAuNzE3NzcgLTIuMzcyMDcsMC43MTc3NyAtMS4yMDMxMywwIC0yLjI0Njc1LC0wLjQzMjk0IC0zLjEzMDg2LC0xLjI5ODgzIC0xLjA2NjQxLC0xLjAyOTk0IC0xLjU5OTYxLC0yLjQ3NDYgLTEuNTk5NjEsLTQuMzMzOTggMCwtMS41NTg1OSAwLjYyODkxLC0yLjkwMjk5IDEuODg2NzIsLTQuMDMzMjEgMS4xMTE5OCwtMC45OTM0NyAyLjI0Njc0LC0xLjQ5MDIyIDMuNDA0MywtMS40OTAyMyAwLjgyMDMsMWUtNSAxLjgwMDEyLDAuMTA0ODMgMi45Mzk0NSwwLjMxNDQ1IDAuMzU1NDYsMC4wNjM4IDAuNTMzMTksLTAuMDQxIDAuNTMzMiwtMC4zMTQ0NSBsIDAsLTQuNjc1NzggYyAtMWUtNSwtMC41Mjg2MyAtMC4xMjc2MSwtMC45MDIzMyAtMC4zODI4MSwtMS4xMjEwOSAtMC4xNjQwNywtMC4xNDU4MiAtMC41NTE0NCwtMC4zMTkgLTEuMTYyMTEsLTAuNTE5NTQgLTAuMjkxNjcsLTAuMTA5MzUgLTAuNDM3NTEsLTAuMjg3MDkgLTAuNDM3NSwtMC41MzMyIC0xMGUtNiwtMC4yMjc4NSAwLjE5NTk2LC0wLjM5NjQ3IDAuNTg3ODksLTAuNTA1ODYgMC41Mzc3NSwtMC4xNjQwNCAxLjE4MDMzLC0wLjQzNzQ4IDEuOTI3NzQsLTAuODIwMzEgMC42MTk3OCwtMC4zMjgxMSAxLjAwMjU5LC0wLjQ5MjE3IDEuMTQ4NDMsLTAuNDkyMTkgMC4zMzcyMywyZS01IDAuNTA1ODUsMC4yMzI0NCAwLjUwNTg2LDAuNjk3MjcgLTFlLTUsLTAuMDA5IC0wLjAxMzcsMC40NDQzNSAtMC4wNDEsMS4zNjAzNSAtMC4wMjc0LDAuOTE2MDMgLTAuMDQxLDEuODA2OTggLTAuMDQxLDIuNjcyODUgbCAwLDEyLjQyNzczIGMgLTEwZS02LDAuNTE5NTQgMC4yMzI0MSwwLjc3OTMgMC42OTcyNywwLjc3OTMgMC4xNzMxNiwwIDAuNDA1NTgsLTAuMDI3MyAwLjY5NzI2LC0wLjA4MiAwLjMxOSwtMC4wNTQ3IDAuNTMzMTksMC4wNTAxIDAuNjQyNTgsMC4zMTQ0NSB6IG0gLTQuMjI0NjEsLTEuMzUzNTEgMCwtNC44OTQ1MyBjIC0xZS01LC0wLjQwMTA0IC0wLjM1NTQ4LC0wLjgxNTc1IC0xLjA2NjQsLTEuMjQ0MTQgLTAuNzU2NTIsLTAuNDU1NzIgLTEuNTc2ODMsLTAuNjgzNTkgLTIuNDYwOTQsLTAuNjgzNiAtMS45MDQ5NSwxZS01IC0yLjg1NzQzLDEuMTc1NzkgLTIuODU3NDIsMy41MjczNSAtMTBlLTYsMS4yNTc4MSAwLjM3ODI1LDIuMzMzMzMgMS4xMzQ3NiwzLjIyNjU2IDAuNzU2NTEsMC44OTMyMyAxLjY0NTE4LDEuMzM5ODQgMi42NjYwMiwxLjMzOTg0IDAuNDY0ODMsMCAxLjAxMTcxLC0wLjE1NDk0IDEuNjQwNjIsLTAuNDY0ODQgMC42Mjg5LC0wLjMwOTkgMC45NDMzNSwtMC41Nzg3OCAwLjk0MzM2LC0wLjgwNjY0IHoiIHN0eWxlPSJmb250LXNpemU6MjhweDtmb250LXZhcmlhbnQ6bm9ybWFsO2ZvbnQtc3RyZXRjaDpub3JtYWw7dGV4dC1hbGlnbjplbmQ7bGluZS1oZWlnaHQ6ODkuOTk5OTk3NjIlO3dyaXRpbmctbW9kZTpsci10Yjt0ZXh0LWFuY2hvcjplbmQ7Zm9udC1mYW1pbHk6SGlnaCBUb3dlciBUZXh0Oy1pbmtzY2FwZS1mb250LXNwZWNpZmljYXRpb246SGlnaCBUb3dlciBUZXh0IiBpZD0icGF0aDI4ODMiLz4KICAgICAgPHBhdGggZD0ibSAzNDUuMDkwNjQsMTYwLjk4MTU1IGMgLTFlLTUsMC4zOTE5MyAtMC41Mjg2NiwwLjg3OTU2IC0xLjU4NTk0LDEuNDYyODkgLTEuMjAzMTMsMC42NDcxNCAtMi40MzgxNiwwLjk3MDcxIC0zLjcwNTA4LDAuOTcwNzEgLTEuMzc2MzEsMCAtMi41MzM4NiwtMC40NTExOCAtMy40NzI2NSwtMS4zNTM1MiAtMS4wMDI2MSwtMC45NTcwMyAtMS41MDM5MSwtMi4yMzMwNyAtMS41MDM5MSwtMy44MjgxMiAwLC0xLjgwNDY5IDAuNTYwNTQsLTMuMjUzOSAxLjY4MTY0LC00LjM0NzY2IDEuMDQ4MTcsLTEuMDIwODIgMi4zMzMzMywtMS41MzEyNCAzLjg1NTQ3LC0xLjUzMTI1IDAuOTAyMzMsMWUtNSAxLjc0NTQzLDAuMjg3MTIgMi41MjkzLDAuODYxMzMgMC43MDE4MSwwLjUxMDQyIDEuMTY2NjUsMS4wOTM3NiAxLjM5NDUzLDEuNzUgMC4wODIsMC4yMjc4NyAwLjIwNTA2LDAuMzU1NDcgMC4zNjkxNCwwLjM4MjgxIDAuMjM2OTcsMC4wNDU2IDAuMzU1NDUsMC4yMDUwOSAwLjM1NTQ3LDAuNDc4NTIgLTJlLTUsMC4zNzM3IC0wLjQ0NjYzLDAuNjkyNzEgLTEuMzM5ODUsMC45NTcwMyBsIC02LjMwMjczLDEuODczMDQgYyAwLjQxMDE1LDIuMTY5MjggMS41MjIxMywzLjI1MzkxIDMuMzM1OTQsMy4yNTM5MSAxLjA0ODE2LDAgMi4yNDIxNywtMC4zODI4MSAzLjU4MjAzLC0xLjE0ODQ0IDAuMjAwNTEsLTAuMTE4NDggMC4zOTY0NywtMC4xNzc3MyAwLjU4Nzg5LC0wLjE3NzczIDAuMTQ1ODIsMCAwLjIxODc0LDAuMTMyMTYgMC4yMTg3NSwwLjM5NjQ4IHogbSAtMy4yNDAyNCwtNS40ODI0MiBjIC0xMGUtNiwtMC41MDEyOSAtMC4yMDI4LC0wLjk0MTA3IC0wLjYwODQsLTEuMzE5MzQgLTAuNDA1NiwtMC4zNzgyNCAtMC45MDQ2MiwtMC41NjczNyAtMS40OTcwNywtMC41NjczOCAtMS42NzcwOCwxMGUtNiAtMi41MTU2MiwxLjIwNzY5IC0yLjUxNTYyLDMuNjIzMDUgbCAwLDAuMzI4MTIgMy43MTg3NSwtMS4xMjEwOSBjIDAuNjAxNTUsLTAuMTczMTcgMC45MDIzMywtMC40ODc2MiAwLjkwMjM0LC0wLjk0MzM2IHoiIHN0eWxlPSJmb250LXNpemU6MjhweDtmb250LXZhcmlhbnQ6bm9ybWFsO2ZvbnQtc3RyZXRjaDpub3JtYWw7dGV4dC1hbGlnbjplbmQ7bGluZS1oZWlnaHQ6ODkuOTk5OTk3NjIlO3dyaXRpbmctbW9kZTpsci10Yjt0ZXh0LWFuY2hvcjplbmQ7Zm9udC1mYW1pbHk6SGlnaCBUb3dlciBUZXh0Oy1pbmtzY2FwZS1mb250LXNwZWNpZmljYXRpb246SGlnaCBUb3dlciBUZXh0IiBpZD0icGF0aDI4ODUiLz4KICAgICAgPHBhdGggZD0ibSAzNjAuMDg4NjgsMTUzLjIwMjI2IGMgLTFlLTUsMC4xNzMxOCAtMC4yODcxMiwwLjM1MDkyIC0wLjg2MTMyLDAuNTMzMiAtMC4zNzM3MSwwLjEwOTM4IC0wLjY5MjcyLDAuNDgzMDggLTAuOTU3MDQsMS4xMjEwOSAtMC40NDY2MiwxLjA3NTUzIC0xLjIyNTkyLDIuNjUyMzUgLTIuMzM3ODksNC43MzA0NyAtMC45Mzg4MSwxLjc1OTEyIC0xLjY2MzQyLDMuMDQ0MjcgLTIuMTczODIsMy44NTU0NyAtMC4wMjc0LDAuMDYzOCAtMC4wODY2LDAuMDkxMSAtMC4xNzc3NCwwLjA4MiAtMC4wOTEyLC0wLjAwOSAtMC4xNTk1MSwtMC4wNDU2IC0wLjIwNTA4LC0wLjEwOTM3IC0xLjkzMjI5LC0yLjc3OTk1IC0zLjU4NjU5LC01LjYyMzcgLTQuOTYyODksLTguNTMxMjUgLTAuMjkxNjcsLTAuNjE5NzkgLTAuNTc4NzgsLTAuOTY2MTQgLTAuODYxMzMsLTEuMDM5MDcgLTAuNTI4NjQsLTAuMjA5NjIgLTAuNzkyOTYsLTAuMzk2NDcgLTAuNzkyOTYsLTAuNTYwNTQgMCwtMC4zNjQ1OCAwLjE3NzczLC0wLjUyNDA4IDAuNTMzMiwtMC40Nzg1MiAwLjU1NTk5LDAuMDcyOSAxLjM4MDg2LDAuMDkxMiAyLjQ3NDYxLDAuMDU0NyAxLjA1NzI5LC0wLjAyNzMgMS44MDAxMiwtMC4wODIgMi4yMjg1MSwtMC4xNjQwNiAwLjI2NDMyLC0wLjA1NDcgMC4zOTY0OCwwLjA0NTYgMC4zOTY0OSwwLjMwMDc4IC0xMGUtNiwwLjMxOTAyIC0wLjE4Njg2LDAuNTI0MSAtMC41NjA1NSwwLjYxNTIzIC0wLjcxMDk0LDAuMTkxNDIgLTEuMDY2NDEsMC40Mzc1MSAtMS4wNjY0LDAuNzM4MjggLTFlLTUsMC4xMzY3MyAwLjA0NTYsMC4zMzI2OSAwLjEzNjcxLDAuNTg3ODkgMC4zMDk4OSwwLjc2NTY0IDAuODY1ODgsMS44NzA3OCAxLjY2Nzk3LDMuMzE1NDMgMC44MDIwOCwxLjQ0NDY3IDEuMjU3ODEsMi4xNjcgMS4zNjcxOSwyLjE2NyAwLjA4MiwwIDAuNDY5MzksLTAuNjkyNzEgMS4xNjIxMSwtMi4wNzgxMyAwLjcyOTE2LC0xLjQ2NzQ0IDEuMjUzMjQsLTIuNjUyMzQgMS41NzIyNywtMy41NTQ2OSAwLjA0NTYsLTAuMTAwMjUgMC4wNjgzLC0wLjIwMDUxIDAuMDY4NCwtMC4zMDA3OCAtMWUtNSwtMC4zNTU0NiAtMC4yMTg3NiwtMC42NDcxMiAtMC42NTYyNSwtMC44NzUgLTAuNDI4MzksLTAuMTczMTcgLTAuNjQyNTgsLTAuMzM3MjMgLTAuNjQyNTcsLTAuNDkyMTkgLTEwZS02LC0wLjMxOSAwLjE0MTI2LC0wLjQ1MTE2IDAuNDIzODIsLTAuMzk2NDggMC4zNjQ1OCwwLjA2MzggMS4wMDcxNiwwLjExODUgMS45Mjc3NCwwLjE2NDA2IDAuOTIwNTYsMC4wNDU2IDEuNTE3NTYsMC4wNTQ3IDEuNzkxMDEsMC4wMjc0IDAuMzM3MjMsLTAuMDYzOCAwLjUwNTg1LDAuMDMxOSAwLjUwNTg2LDAuMjg3MTEgeiIgc3R5bGU9ImZvbnQtc2l6ZToyOHB4O2ZvbnQtdmFyaWFudDpub3JtYWw7Zm9udC1zdHJldGNoOm5vcm1hbDt0ZXh0LWFsaWduOmVuZDtsaW5lLWhlaWdodDo4OS45OTk5OTc2MiU7d3JpdGluZy1tb2RlOmxyLXRiO3RleHQtYW5jaG9yOmVuZDtmb250LWZhbWlseTpIaWdoIFRvd2VyIFRleHQ7LWlua3NjYXBlLWZvbnQtc3BlY2lmaWNhdGlvbjpIaWdoIFRvd2VyIFRleHQiIGlkPSJwYXRoMjg4NyIvPgogICAgICA8cGF0aCBkPSJtIDM3Mi4yMTU2NCwxNjAuOTgxNTUgYyAtMWUtNSwwLjM5MTkzIC0wLjUyODY2LDAuODc5NTYgLTEuNTg1OTQsMS40NjI4OSAtMS4yMDMxMywwLjY0NzE0IC0yLjQzODE2LDAuOTcwNzEgLTMuNzA1MDgsMC45NzA3MSAtMS4zNzYzMSwwIC0yLjUzMzg2LC0wLjQ1MTE4IC0zLjQ3MjY1LC0xLjM1MzUyIC0xLjAwMjYxLC0wLjk1NzAzIC0xLjUwMzkxLC0yLjIzMzA3IC0xLjUwMzkxLC0zLjgyODEyIDAsLTEuODA0NjkgMC41NjA1NCwtMy4yNTM5IDEuNjgxNjQsLTQuMzQ3NjYgMS4wNDgxNywtMS4wMjA4MiAyLjMzMzMzLC0xLjUzMTI0IDMuODU1NDcsLTEuNTMxMjUgMC45MDIzMywxZS01IDEuNzQ1NDMsMC4yODcxMiAyLjUyOTMsMC44NjEzMyAwLjcwMTgxLDAuNTEwNDIgMS4xNjY2NSwxLjA5Mzc2IDEuMzk0NTMsMS43NSAwLjA4MiwwLjIyNzg3IDAuMjA1MDYsMC4zNTU0NyAwLjM2OTE0LDAuMzgyODEgMC4yMzY5NywwLjA0NTYgMC4zNTU0NSwwLjIwNTA5IDAuMzU1NDcsMC40Nzg1MiAtMmUtNSwwLjM3MzcgLTAuNDQ2NjMsMC42OTI3MSAtMS4zMzk4NSwwLjk1NzAzIGwgLTYuMzAyNzMsMS44NzMwNCBjIDAuNDEwMTUsMi4xNjkyOCAxLjUyMjEzLDMuMjUzOTEgMy4zMzU5NCwzLjI1MzkxIDEuMDQ4MTYsMCAyLjI0MjE3LC0wLjM4MjgxIDMuNTgyMDMsLTEuMTQ4NDQgMC4yMDA1MSwtMC4xMTg0OCAwLjM5NjQ3LC0wLjE3NzczIDAuNTg3ODksLTAuMTc3NzMgMC4xNDU4MiwwIDAuMjE4NzQsMC4xMzIxNiAwLjIxODc1LDAuMzk2NDggeiBtIC0zLjI0MDI0LC01LjQ4MjQyIGMgLTEwZS02LC0wLjUwMTI5IC0wLjIwMjgsLTAuOTQxMDcgLTAuNjA4NCwtMS4zMTkzNCAtMC40MDU2LC0wLjM3ODI0IC0wLjkwNDYyLC0wLjU2NzM3IC0xLjQ5NzA3LC0wLjU2NzM4IC0xLjY3NzA4LDEwZS02IC0yLjUxNTYyLDEuMjA3NjkgLTIuNTE1NjIsMy42MjMwNSBsIDAsMC4zMjgxMiAzLjcxODc1LC0xLjEyMTA5IGMgMC42MDE1NSwtMC4xNzMxNyAwLjkwMjMzLC0wLjQ4NzYyIDAuOTAyMzQsLTAuOTQzMzYgeiIgc3R5bGU9ImZvbnQtc2l6ZToyOHB4O2ZvbnQtdmFyaWFudDpub3JtYWw7Zm9udC1zdHJldGNoOm5vcm1hbDt0ZXh0LWFsaWduOmVuZDtsaW5lLWhlaWdodDo4OS45OTk5OTc2MiU7d3JpdGluZy1tb2RlOmxyLXRiO3RleHQtYW5jaG9yOmVuZDtmb250LWZhbWlseTpIaWdoIFRvd2VyIFRleHQ7LWlua3NjYXBlLWZvbnQtc3BlY2lmaWNhdGlvbjpIaWdoIFRvd2VyIFRleHQiIGlkPSJwYXRoMjg4OSIvPgogICAgICA8cGF0aCBkPSJtIDM4MC42NjQ4NiwxNjIuODgxOTQgYyAtMTBlLTYsMC4zNjQ1OSAtMC4yMDUwOSwwLjUyNDA5IC0wLjYxNTI0LDAuNDc4NTIgLTEuMjU3ODIsLTAuMTE4NDkgLTIuODE2NDEsLTAuMTAwMjYgLTQuNjc1NzgsMC4wNTQ3IC0wLjM3MzcsMC4wMzY1IC0wLjYwMzg0LDAuMDI3MyAtMC42OTA0MywtMC4wMjc0IC0wLjA4NjYsLTAuMDU0NyAtMC4xMjk4OCwtMC4yMDUwOCAtMC4xMjk4OCwtMC40NTExNyAwLC0wLjIxODc1IDAuMjQ4MzcsLTAuNDAzMzIgMC43NDUxMiwtMC41NTM3MSAwLjQ5Njc0LC0wLjE1MDM5IDAuNzQ1MTEsLTAuNTk5MjggMC43NDUxMSwtMS4zNDY2OCBsIDAsLTEyLjM3MzA1IGMgMCwtMC43MzgyNiAtMC4xMDcxLC0xLjI4MDU4IC0wLjMyMTI5LC0xLjYyNjk1IC0wLjIxNDE5LC0wLjM0NjM0IC0wLjU5MDE3LC0wLjYxNTIyIC0xLjEyNzkzLC0wLjgwNjY0IC0wLjI4MjU1LC0wLjEwMDI0IC0wLjQyMzgzLC0wLjI0MTUyIC0wLjQyMzgyLC0wLjQyMzgzIC0xZS01LC0wLjI3MzQyIDAuMjA1MDcsLTAuNDc4NSAwLjYxNTIzLC0wLjYxNTIzIDAuNjE5NzksLTAuMjAwNTEgMS4yNjIzNywtMC41MTA0IDEuOTI3NzMsLTAuOTI5NjkgMC41NDY4NywtMC4zMjgxMSAwLjg5MzIzLC0wLjQ5MjE3IDEuMDM5MDcsLTAuNDkyMTkgMC4zMzcyMywyZS01IDAuNTA1ODUsMC4yMzI0NCAwLjUwNTg2LDAuNjk3MjcgLTEwZS02LC0wLjAzNjQgLTAuMDE4MiwwLjQxOTI5IC0wLjA1NDcsMS4zNjcxOCAtMC4wMjczLDAuOTAyMzYgLTAuMDM2NSwxLjc5MTA0IC0wLjAyNzMsMi42NjYwMiBsIDAuMDU0NywxMi4yMDg5OCBjIDAsMC41NTYgMC4xMzY3MiwwLjk1OTMyIDAuNDEwMTYsMS4yMDk5NyAwLjI3MzQzLDAuMjUwNjUgMC43NDI4MywwLjQxNjk5IDEuNDA4MiwwLjQ5OTAyIDAuNDEwMTUsMC4wNDU2IDAuNjE1MjMsMC4yMDA1MiAwLjYxNTI0LDAuNDY0ODQgeiIgc3R5bGU9ImZvbnQtc2l6ZToyOHB4O2ZvbnQtdmFyaWFudDpub3JtYWw7Zm9udC1zdHJldGNoOm5vcm1hbDt0ZXh0LWFsaWduOmVuZDtsaW5lLWhlaWdodDo4OS45OTk5OTc2MiU7d3JpdGluZy1tb2RlOmxyLXRiO3RleHQtYW5jaG9yOmVuZDtmb250LWZhbWlseTpIaWdoIFRvd2VyIFRleHQ7LWlua3NjYXBlLWZvbnQtc3BlY2lmaWNhdGlvbjpIaWdoIFRvd2VyIFRleHQiIGlkPSJwYXRoMjg5MSIvPgogICAgICA8cGF0aCBkPSJtIDM5My45MTI5LDE1Ny43Njg2NiBjIC0xMGUtNiwxLjU4NTk0IC0wLjU4NzksMi45MjgwNiAtMS43NjM2Nyw0LjAyNjM3IC0xLjE3NTc5LDEuMDk4MzEgLTIuNjM0MTIsMS42NDc0NiAtNC4zNzUsMS42NDc0NiAtMS43NDA4OSwwIC0zLjExNzE5LC0wLjQ4MzA3IC00LjEyODkxLC0xLjQ0OTIyIC0wLjk3NTI2LC0wLjk0NzkxIC0xLjQ2Mjg5LC0yLjIwMTE3IC0xLjQ2Mjg5LC0zLjc1OTc2IDAsLTEuNjEzMjggMC42MTUyNCwtMi45NzEzNSAxLjg0NTcxLC00LjA3NDIyIDEuMTk0LC0xLjA2NjQgMi42MjA0MywtMS41OTk2IDQuMjc5MjksLTEuNTk5NjEgMS43NzczNCwxZS01IDMuMTYyNzUsMC40Nzg1MiA0LjE1NjI1LDEuNDM1NTQgMC45NjYxNCwwLjkyOTcgMS40NDkyMSwyLjE4NzUxIDEuNDQ5MjIsMy43NzM0NCB6IG0gLTIuNDA2MjUsMC44MzM5OSBjIC0xMGUtNiwtMS40MzA5OSAtMC4zNDYzNiwtMi41OTMxIC0xLjAzOTA2LC0zLjQ4NjMzIC0wLjY3NDQ5LC0wLjg2NTg4IC0xLjUzMTI2LC0xLjI5ODgyIC0yLjU3MDMxLC0xLjI5ODgzIC0wLjk2NjE1LDFlLTUgLTEuNzU0NTYsMC4zMzk1MyAtMi4zNjUyNCwxLjAxODU1IC0wLjYxMDY4LDAuNjc5MDUgLTAuOTE2MDIsMS41MDYyIC0wLjkxNjAxLDIuNDgxNDUgLTFlLTUsMS41Njc3MSAwLjM1NTQ2LDIuNzg5MDcgMS4wNjY0LDMuNjY0MDYgMC42NTYyNSwwLjgwMjA5IDEuNTEzMDIsMS4yMDMxMyAyLjU3MDMyLDEuMjAzMTMgMS4wMDI1OSwwIDEuNzk1NTYsLTAuMzMyNjggMi4zNzg5LC0wLjk5ODA1IDAuNTgzMzMsLTAuNjY1MzYgMC44NzQ5OSwtMS41MjY2OSAwLjg3NSwtMi41ODM5OCB6IiBzdHlsZT0iZm9udC1zaXplOjI4cHg7Zm9udC12YXJpYW50Om5vcm1hbDtmb250LXN0cmV0Y2g6bm9ybWFsO3RleHQtYWxpZ246ZW5kO2xpbmUtaGVpZ2h0Ojg5Ljk5OTk5NzYyJTt3cml0aW5nLW1vZGU6bHItdGI7dGV4dC1hbmNob3I6ZW5kO2ZvbnQtZmFtaWx5OkhpZ2ggVG93ZXIgVGV4dDstaW5rc2NhcGUtZm9udC1zcGVjaWZpY2F0aW9uOkhpZ2ggVG93ZXIgVGV4dCIgaWQ9InBhdGgyODkzIi8+CiAgICAgIDxwYXRoIGQ9Im0gNDA4LjIwMDAxLDE1Ny4zOTk1MiBjIC0xZS01LDEuNzA0NDMgLTAuNTcxOTUsMy4xNTEzNyAtMS43MTU4Miw0LjM0MDgyIC0xLjE0Mzg5LDEuMTg5NDUgLTIuNDc2OSwxLjc4NDE4IC0zLjk5OTAyLDEuNzg0MTggLTAuOTIwNTgsMCAtMS44MDkyNSwtMC4xNjQwNiAtMi42NjYwMiwtMC40OTIxOSAtMC4wOTExLC0wLjAzNjUgLTAuMTM2NzIsMC4xODY4NSAtMC4xMzY3MiwwLjY2OTkzIGwgMCw0LjExNTIzIGMgMCwwLjY2NTM2IDAuNTQyMzIsMS4wOTM3NCAxLjYyNjk2LDEuMjg1MTYgMC41MDEyOSwwLjA5MTEgMC44MTgwMiwwLjE3NTQ1IDAuOTUwMTksMC4yNTI5MyAwLjEzMjE2LDAuMDc3NSAwLjE5ODI0LDAuMjA3MzUgMC4xOTgyNCwwLjM4OTY0IDAsMC4zMDk4OSAtMC4yMDUwOCwwLjQ1MTE3IC0wLjYxNTIzLDAuNDIzODMgLTEuOTE0MDcsLTAuMTI3NjEgLTMuNTk1NzEsLTAuMDgyIC01LjA0NDkyLDAuMTM2NzIgLTAuMzAwNzgsMC4wNDU2IC0wLjQ4NzYzLDAuMDQ1NiAtMC41NjA1NSwwIC0wLjA3MjksLTAuMDQ1NiAtMC4xMDkzNywtMC4xNjg2MyAtMC4xMDkzNywtMC4zNjkxNCAwLC0wLjE1NDk1IDAuMjU5NzYsLTAuMzQxOCAwLjc3OTI5LC0wLjU2MDU1IDAuNDQ2NjIsLTAuMTgyMjkgMC42Njk5MiwtMC42MTk3OSAwLjY2OTkzLC0xLjMxMjUgbCAwLC0xMi4wNTg1OSBjIC0xZS01LC0wLjk3NTI1IC0wLjI2ODg5LC0xLjU4NTkzIC0wLjgwNjY1LC0xLjgzMjAzIC0wLjYzODAyLC0wLjI4MjU0IC0wLjk1NzAzLC0wLjUxNDk3IC0wLjk1NzAzLC0wLjY5NzI3IDAsLTAuMjAwNTEgMC4xODY4NSwtMC4zNTA5IDAuNTYwNTUsLTAuNDUxMTcgMC40ODMwNywtMC4xMTg0OCAwLjk3OTgyLC0wLjMyODExIDEuNDkwMjMsLTAuNjI4OTEgMC40MjgzOSwtMC4yNDYwOCAwLjY4ODE1LC0wLjM2OTEyIDAuNzc5MywtMC4zNjkxNCAwLjI3MzQ0LDJlLTUgMC40OTY3NCwwLjI1MDY3IDAuNjY5OTIsMC43NTE5NiAwLjI1NTIxLDAuNzI5MTcgMC40MjM4MywxLjA5Mzc2IDAuNTA1ODYsMS4wOTM3NSAwLjAxODIsMWUtNSAwLjQxMDE1LC0wLjIxNDE5IDEuMTc1NzgsLTAuNjQyNTggMC44Mzg1NCwtMC40NjQ4MyAxLjY1ODg1LC0wLjY5NzI2IDIuNDYwOTQsLTAuNjk3MjcgMS4zMDMzOCwxZS01IDIuMzc4OSwwLjM2OTE1IDMuMjI2NTYsMS4xMDc0MyAxLjAxMTcxLDAuODY1ODkgMS41MTc1NywyLjExOTE0IDEuNTE3NTgsMy43NTk3NiB6IG0gLTIuMzI0MjIsMS4wOTM3NSBjIC0xMGUtNiwtMS40ODU2NyAtMC4zNjkxNSwtMi42NDMyMiAtMS4xMDc0MiwtMy40NzI2NiAtMC42MDE1NywtMC42OTI2OSAtMS4zMDc5NSwtMS4wMzkwNSAtMi4xMTkxNCwtMS4wMzkwNiAtMC42Mjg5MSwxZS01IC0xLjIzMDQ3LDAuMjE4NzYgLTEuODA0NjksMC42NTYyNSAtMC43NTY1MSwwLjU2NTExIC0xLjEzNDc3LDEuMzUzNTMgLTEuMTM0NzYsMi4zNjUyNCBsIDAsMy44NjkxNCBjIC0xZS01LDAuMjQ2MDkgMC4zNDYzNSwwLjUwNTg2IDEuMDM5MDYsMC43NzkyOSAwLjc0NzM5LDAuMzAwNzkgMS41NTg1OSwwLjQ1MTE4IDIuNDMzNTksMC40NTExOCAxLjc5NTU3LDAgMi42OTMzNSwtMS4yMDMxMyAyLjY5MzM2LC0zLjYwOTM4IHoiIHN0eWxlPSJmb250LXNpemU6MjhweDtmb250LXZhcmlhbnQ6bm9ybWFsO2ZvbnQtc3RyZXRjaDpub3JtYWw7dGV4dC1hbGlnbjplbmQ7bGluZS1oZWlnaHQ6ODkuOTk5OTk3NjIlO3dyaXRpbmctbW9kZTpsci10Yjt0ZXh0LWFuY2hvcjplbmQ7Zm9udC1mYW1pbHk6SGlnaCBUb3dlciBUZXh0Oy1pbmtzY2FwZS1mb250LXNwZWNpZmljYXRpb246SGlnaCBUb3dlciBUZXh0IiBpZD0icGF0aDI4OTUiLz4KICAgICAgPHBhdGggZD0ibSA0MzIuOTA1MDksMTYyLjkwOTI5IGMgLTJlLTUsMC4zMDA3OCAtMC4xNDEzLDAuNDQyMDUgLTAuNDIzODMsMC40MjM4MiAtMS44NTkzOSwtMC4xMzY3MSAtMy41OTExNiwtMC4xMzY3MSAtNS4xOTUzMSwwIC0wLjM1NTQ5LDAuMDI3MyAtMC41MzMyMiwtMC4xMzIxNiAtMC41MzMyLC0wLjQ3ODUxIC0yZS01LC0wLjI3MzQ0IDAuMjQxNTIsLTAuNDE5MjcgMC43MjQ2MSwtMC40Mzc1IDAuNjEwNjUsLTAuMDM2NSAwLjkxNTk5LC0wLjUzMzIgMC45MTYwMSwtMS40OTAyNCBsIDAsLTMuNjM2NzEgYyAtMmUtNSwtMi4wNDE2NiAtMC44Mjk0NCwtMy4wNjI1IC0yLjQ4ODI4LC0zLjA2MjUgLTAuODc1MDIsMCAtMS42NzcxLDAuMTU5NTEgLTIuNDA2MjUsMC40Nzg1MSAtMC42NjUzOCwwLjI4MjU2IC0xLjAwMjYyLDAuNTY1MTEgLTEuMDExNzIsMC44NDc2NiBsIC0wLjA1NDcsNS40Mjc3MyBjIC0xMGUtNiwwLjU2NTExIDAuMDY4NCwwLjkzODgxIDAuMjA1MDgsMS4xMjExIDAuMTAwMjUsMC4xMjc2IDAuMzIzNTYsMC4yMTg3NSAwLjY2OTkyLDAuMjczNDMgMC44MDIwNywwLjEzNjcyIDEuMjAzMTEsMC4zMDUzNCAxLjIwMzEzLDAuNTA1ODYgLTJlLTUsMC4xNzMxOCAtMC4wMjI4LDAuMjkxNjcgLTAuMDY4NCwwLjM1NTQ3IC0wLjA1NDcsMC4wOTExIC0wLjIxODc3LDAuMTMyMTYgLTAuNDkyMTksMC4xMjMwNSAtMS4wMzkwNywtMC4wMzY1IC0yLjU1MjA5LC0wLjAxODIgLTQuNTM5MDYsMC4wNTQ3IC0wLjI4MjU2LDAuMDA5IC0wLjQ2NDg1LC0wLjAxMzcgLTAuNTQ2ODgsLTAuMDY4NCAtMC4wODIsLTAuMDU0NyAtMC4xMjMwNSwtMC4xODIzIC0wLjEyMzA0LC0wLjM4MjgyIC0xMGUtNiwtMC4yMzY5NyAwLjI1OTc1LC0wLjM4MjgxIDAuNzc5MjksLTAuNDM3NSAwLjU2NTEsLTAuMDYzOCAwLjg0NzY1LC0wLjU3ODc3IDAuODQ3NjYsLTEuNTQ0OTIgbCAwLC0zLjcxODc1IGMgLTEwZS02LC0xLjAwMjYgLTAuMjI3ODcsLTEuNzc3MzMgLTAuNjgzNTksLTIuMzI0MjIgLTAuNDAxMDUsLTAuNDkyMTggLTAuOTExNDcsLTAuNzM4MjcgLTEuNTMxMjUsLTAuNzM4MjggLTAuOTExNDcsMWUtNSAtMS43MzE3OCwwLjE4NDU4IC0yLjQ2MDk0LDAuNTUzNzEgLTAuNzI5MTcsMC4zNjkxNSAtMS4wOTM3NiwwLjc2MzM2IC0xLjA5Mzc1LDEuMTgyNjIgbCAwLDQuOTkwMjMgYyAtMWUtNSwwLjU2NTExIDAuMTQ1ODMsMC45NTcwNCAwLjQzNzUsMS4xNzU3OSAwLjI2NDMyLDAuMjAwNTIgMC43NDI4MywwLjMyMzU2IDEuNDM1NTUsMC4zNjkxNCAwLjM3MzY5LDAuMDE4MiAwLjU2MDU0LDAuMTQ1ODMgMC41NjA1NCwwLjM4MjgxIDAsMC4yNjQzMiAtMC4xNTAzOSwwLjM5NjQ4IC0wLjQ1MTE3LDAuMzk2NDggLTIuMjc4NjUsMCAtMy45MjgzOSwwLjA2MzggLTQuOTQ5MjIsMC4xOTE0MSAtMC4zNDYzNSwwLjA0NTYgLTAuNTY5NjYsMC4wNDU2IC0wLjY2OTkyLDAgLTAuMDgyLC0wLjA0NTYgLTAuMTIzMDUsLTAuMTU0OTUgLTAuMTIzMDUsLTAuMzI4MTMgMCwtMC4yMjc4NiAwLjMzNzI0LC0wLjQyMzgyIDEuMDExNzIsLTAuNTg3ODkgMC40MTAxNiwtMC4xMDkzNyAwLjYxNTIzLC0wLjY0MjU3IDAuNjE1MjQsLTEuNTk5NjEgbCAwLC00LjE5NzI2IGMgLTFlLTUsLTEuMDY2NCAtMC4yODcxMSwtMS42ODE2MyAtMC44NjEzMywtMS44NDU3IC0wLjQ4MzA4LC0wLjEzNjcxIC0wLjc3NzAyLC0wLjIzNjk3IC0wLjg4MTg0LC0wLjMwMDc5IC0wLjEwNDgyLC0wLjA2MzggLTAuMTU3MjIsLTAuMTY4NjEgLTAuMTU3MjIsLTAuMzE0NDUgMCwtMC4xNjQwNSAwLjQ3Mzk1LC0wLjUxMDQxIDEuNDIxODcsLTEuMDM5MDYgMS4wMDI2LC0wLjU2NTA5IDEuNjE3ODQsLTAuODQ3NjUgMS44NDU3LC0wLjg0NzY2IDAuMTkxNDEsMWUtNSAwLjM1MzE5LDAuMjc1NzMgMC40ODUzNiwwLjgyNzE1IDAuMTMyMTUsMC41NTE0NCAwLjIzNDY5LDAuODI3MTYgMC4zMDc2MSwwLjgyNzE1IDAuMTAwMjYsMTBlLTYgMC4zNzgyNSwtMC4xNDEyNyAwLjgzMzk5LC0wLjQyMzgzIDAuNTY1MSwtMC4zNTU0NiAxLjA3NTUxLC0wLjYxOTc4IDEuNTMxMjUsLTAuNzkyOTcgMC43NDczOSwtMC4yOTE2NSAxLjUxNzU3LC0wLjQzNzQ5IDIuMzEwNTQsLTAuNDM3NSAwLjYzODAyLDFlLTUgMS4xOTQsMC4xMzY3MyAxLjY2Nzk3LDAuNDEwMTYgMC4zMjgxMiwwLjE4MjMgMC42MjQzNCwwLjQzMjk1IDAuODg4NjgsMC43NTE5NSAwLjIxODczLDAuMjczNDUgMC4zMjgxMSwwLjQxMDE3IDAuMzI4MTIsMC40MTAxNiAtMTBlLTYsMWUtNSAwLjIzNjk3LC0wLjEzNjcxIDAuNzEwOTQsLTAuNDEwMTYgMC41NTU5NywtMC4zMTkgMS4wOTgyOSwtMC41Njk2NSAxLjYyNjk1LC0wLjc1MTk1IDAuNzc0NzIsLTAuMjczNDMgMS41MjY2OCwtMC40MTAxNSAyLjI1NTg2LC0wLjQxMDE2IDIuNDk3MzgsMWUtNSAzLjc0NjA3LDEuMzcxNzYgMy43NDYwOSw0LjExNTI0IGwgMCw0LjQyOTY4IGMgLTJlLTUsMC41MTk1NCAwLjEyMzAzLDAuODg4NjggMC4zNjkxNCwxLjEwNzQzIDAuMjE4NzMsMC4xODIyOSAwLjY0NzEyLDAuMzM3MjQgMS4yODUxNiwwLjQ2NDg0IDAuNDgzMDUsMC4wOTExIDAuNzI0NTksMC4yMjc4NyAwLjcyNDYxLDAuNDEwMTYgeiIgc3R5bGU9ImZvbnQtc2l6ZToyOHB4O2ZvbnQtdmFyaWFudDpub3JtYWw7Zm9udC1zdHJldGNoOm5vcm1hbDt0ZXh0LWFsaWduOmVuZDtsaW5lLWhlaWdodDo4OS45OTk5OTc2MiU7d3JpdGluZy1tb2RlOmxyLXRiO3RleHQtYW5jaG9yOmVuZDtmb250LWZhbWlseTpIaWdoIFRvd2VyIFRleHQ7LWlua3NjYXBlLWZvbnQtc3BlY2lmaWNhdGlvbjpIaWdoIFRvd2VyIFRleHQiIGlkPSJwYXRoMjg5NyIvPgogICAgICA8cGF0aCBkPSJtIDQ0NC40NTc4MiwxNjAuOTgxNTUgYyAtMWUtNSwwLjM5MTkzIC0wLjUyODY1LDAuODc5NTYgLTEuNTg1OTMsMS40NjI4OSAtMS4yMDMxNCwwLjY0NzE0IC0yLjQzODE2LDAuOTcwNzEgLTMuNzA1MDgsMC45NzA3MSAtMS4zNzYzMSwwIC0yLjUzMzg2LC0wLjQ1MTE4IC0zLjQ3MjY2LC0xLjM1MzUyIC0xLjAwMjYsLTAuOTU3MDMgLTEuNTAzOSwtMi4yMzMwNyAtMS41MDM5LC0zLjgyODEyIDAsLTEuODA0NjkgMC41NjA1NCwtMy4yNTM5IDEuNjgxNjQsLTQuMzQ3NjYgMS4wNDgxNywtMS4wMjA4MiAyLjMzMzMzLC0xLjUzMTI0IDMuODU1NDcsLTEuNTMxMjUgMC45MDIzMywxZS01IDEuNzQ1NDMsMC4yODcxMiAyLjUyOTI5LDAuODYxMzMgMC43MDE4MiwwLjUxMDQyIDEuMTY2NjYsMS4wOTM3NiAxLjM5NDUzLDEuNzUgMC4wODIsMC4yMjc4NyAwLjIwNTA3LDAuMzU1NDcgMC4zNjkxNCwwLjM4MjgxIDAuMjM2OTcsMC4wNDU2IDAuMzU1NDYsMC4yMDUwOSAwLjM1NTQ3LDAuNDc4NTIgLTEwZS02LDAuMzczNyAtMC40NDY2MiwwLjY5MjcxIC0xLjMzOTg0LDAuOTU3MDMgbCAtNi4zMDI3MywxLjg3MzA0IGMgMC40MTAxNSwyLjE2OTI4IDEuNTIyMTMsMy4yNTM5MSAzLjMzNTkzLDMuMjUzOTEgMS4wNDgxNywwIDIuMjQyMTgsLTAuMzgyODEgMy41ODIwMywtMS4xNDg0NCAwLjIwMDUxLC0wLjExODQ4IDAuMzk2NDgsLTAuMTc3NzMgMC41ODc4OSwtMC4xNzc3MyAwLjE0NTgzLDAgMC4yMTg3NCwwLjEzMjE2IDAuMjE4NzUsMC4zOTY0OCB6IG0gLTMuMjQwMjMsLTUuNDgyNDIgYyAtMTBlLTYsLTAuNTAxMjkgLTAuMjAyODEsLTAuOTQxMDcgLTAuNjA4NCwtMS4zMTkzNCAtMC40MDU2LC0wLjM3ODI0IC0wLjkwNDYzLC0wLjU2NzM3IC0xLjQ5NzA3LC0wLjU2NzM4IC0xLjY3NzA5LDEwZS02IC0yLjUxNTYzLDEuMjA3NjkgLTIuNTE1NjIsMy42MjMwNSBsIDAsMC4zMjgxMiAzLjcxODc1LC0xLjEyMTA5IGMgMC42MDE1NSwtMC4xNzMxNyAwLjkwMjMzLC0wLjQ4NzYyIDAuOTAyMzQsLTAuOTQzMzYgeiIgc3R5bGU9ImZvbnQtc2l6ZToyOHB4O2ZvbnQtdmFyaWFudDpub3JtYWw7Zm9udC1zdHJldGNoOm5vcm1hbDt0ZXh0LWFsaWduOmVuZDtsaW5lLWhlaWdodDo4OS45OTk5OTc2MiU7d3JpdGluZy1tb2RlOmxyLXRiO3RleHQtYW5jaG9yOmVuZDtmb250LWZhbWlseTpIaWdoIFRvd2VyIFRleHQ7LWlua3NjYXBlLWZvbnQtc3BlY2lmaWNhdGlvbjpIaWdoIFRvd2VyIFRleHQiIGlkPSJwYXRoMjg5OSIvPgogICAgICA8cGF0aCBkPSJtIDQ2MC44NjQwNywxNjMuMDMyMzMgYyAtMWUtNSwwLjI4MjU2IC0wLjIwNTA5LDAuNDEwMTYgLTAuNjE1MjMsMC4zODI4MiAtMS45NTk2NSwtMC4xMDAyNiAtMy40NDUzMiwtMC4xMTg0OSAtNC40NTcwMywtMC4wNTQ3IC0wLjUxOTU0LDAuMDM2NSAtMC44MDIwOSwtMC4wMjczIC0wLjg0NzY2LC0wLjE5MTQxIC0wLjAxODIsLTAuMDU0NyAtMC4wMjczLC0wLjEzMjE2IC0wLjAyNzMsLTAuMjMyNDIgLTFlLTUsLTAuMTgyMjkgMC4yNjQzMSwtMC4zNDYzNSAwLjc5Mjk3LC0wLjQ5MjE5IDAuNDgzMDYsLTAuMTM2NzIgMC43MjQ2LC0wLjYwNjEyIDAuNzI0NjEsLTEuNDA4MiBsIDAsLTMuNjM2NzIgYyAtMWUtNSwtMi4wODcyMyAtMC45MDY5MSwtMy4xMzA4NSAtMi43MjA3MSwtMy4xMzA4NiAtMC44MTEyLDFlLTUgLTEuNTYzMTUsMC4xOTE0MiAtMi4yNTU4NiwwLjU3NDIyIC0wLjY1NjI1LDAuMzczNzEgLTAuOTg0MzgsMC43NjEwOCAtMC45ODQzNywxLjE2MjExIGwgMCw1LjAwMzkxIGMgLTFlLTUsMC44NTY3NyAwLjU2MDU0LDEuMzM1MjggMS42ODE2NCwxLjQzNTU0IDAuNDI4MzgsMC4wMzY1IDAuNjQyNTcsMC4xNzMxOCAwLjY0MjU4LDAuNDEwMTYgLTEwZS02LDAuMjI3ODYgLTAuMDU5MiwwLjM2NDU4IC0wLjE3Nzc0LDAuNDEwMTYgLTAuMDU0NywwLjAxODIgLTAuMjA5NjQsMC4wMjI4IC0wLjQ2NDg0LDAuMDEzNyAtMS40MzA5OSwtMC4wNTQ3IC0yLjkwNzU2LDAuMDE4MiAtNC40Mjk2OSwwLjIxODc1IC0wLjMyODEyLDAuMDQ1NiAtMC41MzMyLDAuMDU5MiAtMC42MTUyMywwLjA0MSAtMC4xODIyOSwtMC4wMzY1IC0wLjI3MzQ0LC0wLjE3NzczIC0wLjI3MzQ0LC0wLjQyMzgzIDAsLTAuMjE4NzQgMC4yNTk3NiwtMC40MDU1OSAwLjc3OTMsLTAuNTYwNTQgMC40ODMwNywtMC4xNDU4MyAwLjcyNDYsLTAuNzUxOTUgMC43MjQ2MSwtMS44MTgzNiBsIDAsLTQuMTQyNTggYyAtMWUtNSwtMC43MDE4MiAtMC4wOTEyLC0xLjE0ODQzIC0wLjI3MzQ0LC0xLjMzOTg0IC0wLjEyNzYxLC0wLjEzNjcxIC0wLjU1MTQzLC0wLjMyODEyIC0xLjI3MTQ4LC0wLjU3NDIyIC0wLjE4MjMsLTAuMDYzOCAtMC4yNzM0NCwtMC4xOTE0IC0wLjI3MzQ0LC0wLjM4MjgxIDAsLTAuMTgyMjkgMC4xODY4NSwtMC4zNDE3OSAwLjU2MDU0LC0wLjQ3ODUyIDAuNTEwNDIsLTAuMTkxNCAxLjA3MDk3LC0wLjQ5Njc0IDEuNjgxNjUsLTAuOTE2MDIgMC41MTA0MSwtMC4zNDYzNCAwLjgzODUzLC0wLjUxOTUyIDAuOTg0MzcsLTAuNTE5NTMgMC4yNDYwOSwxZS01IDAuNDEwMTUsMC4yODAyOSAwLjQ5MjE5LDAuODQwODIgMC4wODIsMC41NjA1NiAwLjE5NTk2LDAuODQwODMgMC4zNDE3OSwwLjg0MDgyIC0wLjA3MjksMWUtNSAwLjM5MTkzLC0wLjI2NjU5IDEuMzk0NTQsLTAuNzk5OCAxLjAwMjU5LC0wLjUzMzE5IDEuOTkxNTIsLTAuNzk5OCAyLjk2Njc5LC0wLjc5OTgxIDIuMzYwNjcsMWUtNSAzLjU1MDEyLDEuMzQ0NDEgMy41NjgzNiw0LjAzMzIxIGwgMC4wMjczLDQuNDAyMzQgYyAtMmUtNSwwLjU2NTExIDAuMTQ1ODIsMC45NzA3MSAwLjQzNzUsMS4yMTY4IDAuMjE4NzMsMC4xODIyOSAwLjY0MjU2LDAuMzM3MjQgMS4yNzE0OCwwLjQ2NDg0IDAuNDEwMTQsMC4wODIgMC42MTUyMiwwLjIzMjQyIDAuNjE1MjMsMC40NTExNyB6IiBzdHlsZT0iZm9udC1zaXplOjI4cHg7Zm9udC12YXJpYW50Om5vcm1hbDtmb250LXN0cmV0Y2g6bm9ybWFsO3RleHQtYWxpZ246ZW5kO2xpbmUtaGVpZ2h0Ojg5Ljk5OTk5NzYyJTt3cml0aW5nLW1vZGU6bHItdGI7dGV4dC1hbmNob3I6ZW5kO2ZvbnQtZmFtaWx5OkhpZ2ggVG93ZXIgVGV4dDstaW5rc2NhcGUtZm9udC1zcGVjaWZpY2F0aW9uOkhpZ2ggVG93ZXIgVGV4dCIgaWQ9InBhdGgyOTAxIi8+CiAgICAgIDxwYXRoIGQ9Im0gNDY5LjY0MTQyLDE2MS45OTMyNyBjIC0xMGUtNiwwLjQzNzUgLTAuNDAxMDUsMC44MTEyIC0xLjIwMzEzLDEuMTIxMDkgLTAuNzEwOTQsMC4yNzM0NCAtMS40MzA5OSwwLjQxMDE2IC0yLjE2MDE1LDAuNDEwMTYgLTEuOTc3ODcsMCAtMi45NjY4LC0xLjA1MjczIC0yLjk2NjgsLTMuMTU4MiBsIDAsLTQuOTQ5MjIgYyAwLC0wLjYyODkgLTAuMDUwMSwtMS4wMTM5OSAtMC4xNTAzOSwtMS4xNTUyNyAtMC4xMDAyNiwtMC4xNDEyNyAtMC40MzI5NCwtMC4yODAyNyAtMC45OTgwNSwtMC40MTcgLTAuMTQ1ODMsLTAuMDM2NSAtMC4yMTg3NSwtMC4xNzc3MiAtMC4yMTg3NSwtMC40MjM4MiAwLC0wLjI2NDMyIDAuMDU0NywtMC40MjM4MiAwLjE2NDA3LC0wLjQ3ODUyIDAuOTg0MzcsLTAuNDgzMDYgMS44NDExNCwtMS4zNDg5NSAyLjU3MDMxLC0yLjU5NzY2IDAuMTAwMjUsLTAuMTczMTYgMC4yOTYyMiwtMC4yMjc4NSAwLjU4Nzg5LC0wLjE2NDA2IDAuMjAwNTEsMC4wNjM4IDAuMzA1MzMsMC4xODIzMSAwLjMxNDQ1LDAuMzU1NDcgbCAwLjA1NDcsMS43MDg5OCBjIC0xMGUtNiwwLjEyNzYyIDAuMDIyOCwwLjIxODc2IDAuMDY4NCwwLjI3MzQ0IDAuMDYzOCwwLjA4MiAwLjIwOTYzLDAuMTIzMDYgMC40Mzc1LDAuMTIzMDUgbCAzLjA0ODgzLDAgYyAwLjE3MzE3LDFlLTUgMC4xNzMxNywwLjIxNDIgMCwwLjY0MjU4IC0wLjIwOTY1LDAuNTE5NTQgLTAuNTE5NTQsMC43NzkzIC0wLjkyOTY5LDAuNzc5MjkgbCAtMi4wNjQ0NSwwIGMgLTAuMzU1NDgsMWUtNSAtMC41NzQyMywwLjA1OTMgLTAuNjU2MjUsMC4xNzc3NCAtMC4wNjM4LDAuMDgyIC0wLjA5NTcsMC4zMDUzNSAtMC4wOTU3LDAuNjY5OTIgbCAwLDQuNDcwNyBjIDAsMS4xMzAyMSAwLjEwMDI2LDEuODQ1NzEgMC4zMDA3OCwyLjE0NjQ5IDAuMjY0MzIsMC4zODI4MSAwLjg3OTU2LDAuNTc0MjIgMS44NDU3MSwwLjU3NDIyIDAuMzE5LDAgMC43MDYzNywtMC4wNTI0IDEuMTYyMTEsLTAuMTU3MjMgMC40NTU3MiwtMC4xMDQ4MiAwLjY5NzI1LC0wLjE1NzIzIDAuNzI0NjEsLTAuMTU3MjMgMC4xMDkzNiwwIDAuMTY0MDUsMC4wNjg0IDAuMTY0MDYsMC4yMDUwOCB6IiBzdHlsZT0iZm9udC1zaXplOjI4cHg7Zm9udC12YXJpYW50Om5vcm1hbDtmb250LXN0cmV0Y2g6bm9ybWFsO3RleHQtYWxpZ246ZW5kO2xpbmUtaGVpZ2h0Ojg5Ljk5OTk5NzYyJTt3cml0aW5nLW1vZGU6bHItdGI7dGV4dC1hbmNob3I6ZW5kO2ZvbnQtZmFtaWx5OkhpZ2ggVG93ZXIgVGV4dDstaW5rc2NhcGUtZm9udC1zcGVjaWZpY2F0aW9uOkhpZ2ggVG93ZXIgVGV4dCIgaWQ9InBhdGgyOTAzIi8+CiAgICAgIDxwYXRoIGQ9Im0gNDc1Ljg0ODQ1LDE2Mi42MDg1MSBjIC0xZS01LDIuMzY5NzkgLTAuOTk4MDUsNC4xNTE2OCAtMi45OTQxNCw1LjM0NTcgLTAuMTgyMjksMC4xMDkzNyAtMC4zMTQ0NiwwLjE2NDA2IC0wLjM5NjQ5LDAuMTY0MDYgLTAuMTI3NiwwIC0wLjI0NjA5LC0wLjE0NTg0IC0wLjM1NTQ2LC0wLjQzNzUgLTAuMDM2NSwtMC4xMDAyNiAtMC4wNTQ3LC0wLjE4MjMgLTAuMDU0NywtMC4yNDYwOSAwLC0wLjE1NDk1IDAuMjU5NzYsLTAuNDEwMTYgMC43NzkzLC0wLjc2NTYzIDAuODkzMjIsLTAuNjE5NzkgMS4zMzk4NCwtMS4zMjE2MSAxLjMzOTg0LC0yLjEwNTQ3IDAsLTAuNDAxMDQgLTAuMjU5NzcsLTAuNzY1NjIgLTAuNzc5MywtMS4wOTM3NSAtMC43MjkxNywtMC40NTU3MyAtMS4wOTM3NSwtMS4wMTYyNyAtMS4wOTM3NSwtMS42ODE2NCAwLC0wLjQ0NjYxIDAuMTUwMzksLTAuODE4MDMgMC40NTExNywtMS4xMTQyNiAwLjMwMDc4LC0wLjI5NjIyIDAuNzAxODIsLTAuNDQ0MzMgMS4yMDMxMywtMC40NDQzMyAwLjYwMTU2LDAgMS4wNjg2OCwwLjIxODc1IDEuNDAxMzcsMC42NTYyNSAwLjMzMjY3LDAuNDM3NSAwLjQ5OTAxLDEuMDExNzIgMC40OTkwMiwxLjcyMjY2IHoiIHN0eWxlPSJmb250LXNpemU6MjhweDtmb250LXZhcmlhbnQ6bm9ybWFsO2ZvbnQtc3RyZXRjaDpub3JtYWw7dGV4dC1hbGlnbjplbmQ7bGluZS1oZWlnaHQ6ODkuOTk5OTk3NjIlO3dyaXRpbmctbW9kZTpsci10Yjt0ZXh0LWFuY2hvcjplbmQ7Zm9udC1mYW1pbHk6SGlnaCBUb3dlciBUZXh0Oy1pbmtzY2FwZS1mb250LXNwZWNpZmljYXRpb246SGlnaCBUb3dlciBUZXh0IiBpZD0icGF0aDI5MDUiLz4KICAgICAgPHBhdGggZD0ibSAyNzguOTU5NzgsMTgyLjk2ODY2IGMgLTFlLTUsMS41ODU5NCAtMC41ODc5MSwyLjkyODA2IC0xLjc2MzY3LDQuMDI2MzcgLTEuMTc1OCwxLjA5ODMxIC0yLjYzNDEzLDEuNjQ3NDYgLTQuMzc1LDEuNjQ3NDYgLTEuNzQwODksMCAtMy4xMTcyLC0wLjQ4MzA3IC00LjEyODkxLC0xLjQ0OTIyIC0wLjk3NTI2LC0wLjk0NzkxIC0xLjQ2Mjg5LC0yLjIwMTE3IC0xLjQ2Mjg5LC0zLjc1OTc3IDAsLTEuNjEzMjcgMC42MTUyMywtMi45NzEzNCAxLjg0NTcsLTQuMDc0MjEgMS4xOTQwMSwtMS4wNjY0IDIuNjIwNDQsLTEuNTk5NiA0LjI3OTMsLTEuNTk5NjEgMS43NzczMywxZS01IDMuMTYyNzUsMC40Nzg1MiA0LjE1NjI1LDEuNDM1NTQgMC45NjYxMywwLjkyOTcgMS40NDkyMSwyLjE4NzUxIDEuNDQ5MjIsMy43NzM0NCB6IG0gLTIuNDA2MjUsMC44MzM5OSBjIC0xZS01LC0xLjQzMDk5IC0wLjM0NjM3LC0yLjU5MzEgLTEuMDM5MDYsLTMuNDg2MzMgLTAuNjc0NDksLTAuODY1ODggLTEuNTMxMjYsLTEuMjk4ODIgLTIuNTcwMzIsLTEuMjk4ODMgLTAuOTY2MTUsMWUtNSAtMS43NTQ1NiwwLjMzOTUzIC0yLjM2NTIzLDEuMDE4NTUgLTAuNjEwNjgsMC42NzkwNSAtMC45MTYwMiwxLjUwNjIgLTAuOTE2MDIsMi40ODE0NSAwLDEuNTY3NzEgMC4zNTU0NywyLjc4OTA2IDEuMDY2NDEsMy42NjQwNiAwLjY1NjI0LDAuODAyMDkgMS41MTMwMSwxLjIwMzEzIDIuNTcwMzEsMS4yMDMxMyAxLjAwMjYsMCAxLjc5NTU3LC0wLjMzMjY4IDIuMzc4OTEsLTAuOTk4MDUgMC41ODMzMiwtMC42NjUzNiAwLjg3NDk5LC0xLjUyNjY5IDAuODc1LC0yLjU4Mzk4IHoiIHN0eWxlPSJmb250LXNpemU6MjhweDtmb250LXZhcmlhbnQ6bm9ybWFsO2ZvbnQtc3RyZXRjaDpub3JtYWw7dGV4dC1hbGlnbjplbmQ7bGluZS1oZWlnaHQ6ODkuOTk5OTk3NjIlO3dyaXRpbmctbW9kZTpsci10Yjt0ZXh0LWFuY2hvcjplbmQ7Zm9udC1mYW1pbHk6SGlnaCBUb3dlciBUZXh0Oy1pbmtzY2FwZS1mb250LXNwZWNpZmljYXRpb246SGlnaCBUb3dlciBUZXh0IiBpZD0icGF0aDI5MDciLz4KICAgICAgPHBhdGggZD0ibSAyOTUuNTk4NDUsMTg4LjIzMjMzIGMgLTJlLTUsMC4yODI1NSAtMC4yMDUwOSwwLjQxMDE2IC0wLjYxNTIzLDAuMzgyODIgLTEuOTU5NjUsLTAuMTAwMjcgLTMuNDQ1MzMsLTAuMTE4NDkgLTQuNDU3MDQsLTAuMDU0NyAtMC41MTk1NCwwLjAzNjUgLTAuODAyMDksLTAuMDI3NCAtMC44NDc2NSwtMC4xOTE0MSAtMC4wMTgyLC0wLjA1NDcgLTAuMDI3NCwtMC4xMzIxNiAtMC4wMjc0LC0wLjIzMjQyIC0xZS01LC0wLjE4MjI5IDAuMjY0MzIsLTAuMzQ2MzUgMC43OTI5NywtMC40OTIxOSAwLjQ4MzA2LC0wLjEzNjcyIDAuNzI0NiwtMC42MDYxMiAwLjcyNDYxLC0xLjQwODIgbCAwLC0zLjYzNjcyIGMgLTEwZS02LC0yLjA4NzIzIC0wLjkwNjkxLC0zLjEzMDg1IC0yLjcyMDcsLTMuMTMwODYgLTAuODExMjEsMWUtNSAtMS41NjMxNiwwLjE5MTQyIC0yLjI1NTg2LDAuNTc0MjIgLTAuNjU2MjYsMC4zNzM3MSAtMC45ODQzOCwwLjc2MTA3IC0wLjk4NDM4LDEuMTYyMTEgbCAwLDUuMDAzOTEgYyAwLDAuODU2NzcgMC41NjA1NSwxLjMzNTI4IDEuNjgxNjUsMS40MzU1NCAwLjQyODM3LDAuMDM2NSAwLjY0MjU3LDAuMTczMTggMC42NDI1NywwLjQxMDE2IDAsMC4yMjc4NiAtMC4wNTkzLDAuMzY0NTggLTAuMTc3NzMsMC40MTAxNSAtMC4wNTQ3LDAuMDE4MiAtMC4yMDk2NCwwLjAyMjggLTAuNDY0ODQsMC4wMTM3IC0xLjQzMSwtMC4wNTQ3IC0yLjkwNzU2LDAuMDE4MiAtNC40Mjk2OSwwLjIxODc1IC0wLjMyODEzLDAuMDQ1NiAtMC41MzMyMSwwLjA1OTIgLTAuNjE1MjQsMC4wNDEgLTAuMTgyMjksLTAuMDM2NSAtMC4yNzM0NCwtMC4xNzc3MyAtMC4yNzM0MywtMC40MjM4MyAtMTBlLTYsLTAuMjE4NzUgMC4yNTk3NiwtMC40MDU1OSAwLjc3OTI5LC0wLjU2MDU0IDAuNDgzMDcsLTAuMTQ1ODQgMC43MjQ2MSwtMC43NTE5NSAwLjcyNDYxLC0xLjgxODM2IGwgMCwtNC4xNDI1OCBjIDAsLTAuNzAxODIgLTAuMDkxMiwtMS4xNDg0MyAtMC4yNzM0NCwtMS4zMzk4NCAtMC4xMjc2LC0wLjEzNjcxIC0wLjU1MTQzLC0wLjMyODEyIC0xLjI3MTQ4LC0wLjU3NDIyIC0wLjE4MjI5LC0wLjA2MzggLTAuMjczNDQsLTAuMTkxNCAtMC4yNzM0NCwtMC4zODI4MiAwLC0wLjE4MjI4IDAuMTg2ODUsLTAuMzQxNzggMC41NjA1NSwtMC40Nzg1MSAwLjUxMDQxLC0wLjE5MTQgMS4wNzA5NiwtMC40OTY3NCAxLjY4MTY0LC0wLjkxNjAyIDAuNTEwNDEsLTAuMzQ2MzQgMC44Mzg1NCwtMC41MTk1MiAwLjk4NDM4LC0wLjUxOTUzIDAuMjQ2MDgsMWUtNSAwLjQxMDE1LDAuMjgwMjkgMC40OTIxOCwwLjg0MDgyIDAuMDgyLDAuNTYwNTYgMC4xOTU5NiwwLjg0MDgzIDAuMzQxOCwwLjg0MDgyIC0wLjA3MjksMWUtNSAwLjM5MTkyLC0wLjI2NjU5IDEuMzk0NTMsLTAuNzk5OCAxLjAwMjYsLTAuNTMzMTkgMS45OTE1MywtMC43OTk4IDIuOTY2OCwtMC43OTk4MSAyLjM2MDY2LDFlLTUgMy41NTAxMSwxLjM0NDQxIDMuNTY4MzYsNC4wMzMyMSBsIDAuMDI3Myw0LjQwMjM0IGMgLTEwZS02LDAuNTY1MTEgMC4xNDU4MiwwLjk3MDcgMC40Mzc1LDEuMjE2OCAwLjIxODc0LDAuMTgyMjkgMC42NDI1NiwwLjMzNzI0IDEuMjcxNDksMC40NjQ4NCAwLjQxMDE0LDAuMDgyIDAuNjE1MjEsMC4yMzI0MiAwLjYxNTIzLDAuNDUxMTcgeiIgc3R5bGU9ImZvbnQtc2l6ZToyOHB4O2ZvbnQtdmFyaWFudDpub3JtYWw7Zm9udC1zdHJldGNoOm5vcm1hbDt0ZXh0LWFsaWduOmVuZDtsaW5lLWhlaWdodDo4OS45OTk5OTc2MiU7d3JpdGluZy1tb2RlOmxyLXRiO3RleHQtYW5jaG9yOmVuZDtmb250LWZhbWlseTpIaWdoIFRvd2VyIFRleHQ7LWlua3NjYXBlLWZvbnQtc3BlY2lmaWNhdGlvbjpIaWdoIFRvd2VyIFRleHQiIGlkPSJwYXRoMjkwOSIvPgogICAgICA8cGF0aCBkPSJtIDMwNy4wMjgxNCwxODYuMTgxNTUgYyAtMWUtNSwwLjM5MTkzIC0wLjUyODY2LDAuODc5NTYgLTEuNTg1OTQsMS40NjI4OSAtMS4yMDMxMywwLjY0NzE0IC0yLjQzODE2LDAuOTcwNzEgLTMuNzA1MDgsMC45NzA3MSAtMS4zNzYzMSwwIC0yLjUzMzg2LC0wLjQ1MTE4IC0zLjQ3MjY1LC0xLjM1MzUyIC0xLjAwMjYxLC0wLjk1NzAzIC0xLjUwMzkxLC0yLjIzMzA3IC0xLjUwMzkxLC0zLjgyODEzIDAsLTEuODA0NjggMC41NjA1NCwtMy4yNTM4OSAxLjY4MTY0LC00LjM0NzY1IDEuMDQ4MTcsLTEuMDIwODIgMi4zMzMzMywtMS41MzEyNCAzLjg1NTQ3LC0xLjUzMTI1IDAuOTAyMzMsMWUtNSAxLjc0NTQzLDAuMjg3MTIgMi41MjkzLDAuODYxMzMgMC43MDE4MSwwLjUxMDQyIDEuMTY2NjUsMS4wOTM3NiAxLjM5NDUzLDEuNzUgMC4wODIsMC4yMjc4NyAwLjIwNTA2LDAuMzU1NDcgMC4zNjkxNCwwLjM4MjgxIDAuMjM2OTcsMC4wNDU2IDAuMzU1NDUsMC4yMDUwOCAwLjM1NTQ3LDAuNDc4NTEgLTJlLTUsMC4zNzM3MSAtMC40NDY2MywwLjY5MjcyIC0xLjMzOTg1LDAuOTU3MDQgbCAtNi4zMDI3MywxLjg3MzA0IGMgMC40MTAxNSwyLjE2OTI4IDEuNTIyMTMsMy4yNTM5MSAzLjMzNTk0LDMuMjUzOTEgMS4wNDgxNiwwIDIuMjQyMTcsLTAuMzgyODEgMy41ODIwMywtMS4xNDg0NCAwLjIwMDUxLC0wLjExODQ5IDAuMzk2NDcsLTAuMTc3NzMgMC41ODc4OSwtMC4xNzc3MyAwLjE0NTgyLDAgMC4yMTg3NCwwLjEzMjE2IDAuMjE4NzUsMC4zOTY0OCB6IG0gLTMuMjQwMjQsLTUuNDgyNDIgYyAtMTBlLTYsLTAuNTAxMjkgLTAuMjAyOCwtMC45NDEwNyAtMC42MDg0LC0xLjMxOTM0IC0wLjQwNTYsLTAuMzc4MjQgLTAuOTA0NjIsLTAuNTY3MzcgLTEuNDk3MDcsLTAuNTY3MzggLTEuNjc3MDgsMWUtNSAtMi41MTU2MiwxLjIwNzY5IC0yLjUxNTYyLDMuNjIzMDUgbCAwLDAuMzI4MTIgMy43MTg3NSwtMS4xMjEwOSBjIDAuNjAxNTUsLTAuMTczMTcgMC45MDIzMywtMC40ODc2MiAwLjkwMjM0LC0wLjk0MzM2IHoiIHN0eWxlPSJmb250LXNpemU6MjhweDtmb250LXZhcmlhbnQ6bm9ybWFsO2ZvbnQtc3RyZXRjaDpub3JtYWw7dGV4dC1hbGlnbjplbmQ7bGluZS1oZWlnaHQ6ODkuOTk5OTk3NjIlO3dyaXRpbmctbW9kZTpsci10Yjt0ZXh0LWFuY2hvcjplbmQ7Zm9udC1mYW1pbHk6SGlnaCBUb3dlciBUZXh0Oy1pbmtzY2FwZS1mb250LXNwZWNpZmljYXRpb246SGlnaCBUb3dlciBUZXh0IiBpZD0icGF0aDI5MTEiLz4KICAgICAgPHBhdGggZD0ibSAzMjguOTE2ODEsMTg3LjEzODU4IGMgMC4wMzY0LDAuMDgyIDAuMDU0NywwLjE0MTI4IDAuMDU0NywwLjE3Nzc0IC0yZS01LDAuMTkxNCAtMC40NjQ4NiwwLjUwNTg2IC0xLjM5NDUzLDAuOTQzMzYgLTEuMDc1NTQsMC41MDEzIC0xLjcwOSwwLjc1MTk1IC0xLjkwMDQsMC43NTE5NSAtMC4xNjQwNywwIC0wLjM1MzIsLTAuMjc1NzIgLTAuNTY3MzgsLTAuODI3MTUgLTAuMjE0MiwtMC41NTE0MyAtMC4zNjIzMSwtMC44MjcxNSAtMC40NDQzMywtMC44MjcxNSAwLjAwOSwwIC0wLjUwODE1LDAuMjM5MjYgLTEuNTUxNzYsMC43MTc3OCAtMS4wNDM2MywwLjQ3ODUxIC0xLjgzNDMyLDAuNzE3NzcgLTIuMzcyMDcsMC43MTc3NyAtMS4yMDMxMywwIC0yLjI0Njc1LC0wLjQzMjk0IC0zLjEzMDg2LC0xLjI5ODgzIC0xLjA2NjQxLC0xLjAyOTk0IC0xLjU5OTYxLC0yLjQ3NDYgLTEuNTk5NjEsLTQuMzMzOTggMCwtMS41NTg1OSAwLjYyODksLTIuOTAyOTkgMS44ODY3MiwtNC4wMzMyMSAxLjExMTk3LC0wLjk5MzQ4IDIuMjQ2NzQsLTEuNDkwMjIgMy40MDQyOSwtMS40OTAyMyAwLjgyMDMxLDFlLTUgMS44MDAxMywwLjEwNDgzIDIuOTM5NDYsMC4zMTQ0NSAwLjM1NTQ2LDAuMDYzOCAwLjUzMzE5LC0wLjA0MSAwLjUzMzIsLTAuMzE0NDUgbCAwLC00LjY3NTc4IGMgLTFlLTUsLTAuNTI4NjMgLTAuMTI3NjEsLTAuOTAyMzMgLTAuMzgyODEsLTEuMTIxMSAtMC4xNjQwNywtMC4xNDU4MSAtMC41NTE0NCwtMC4zMTg5OSAtMS4xNjIxMSwtMC41MTk1MyAtMC4yOTE2OCwtMC4xMDkzNSAtMC40Mzc1MSwtMC4yODcwOSAtMC40Mzc1LC0wLjUzMzIgLTEwZS02LC0wLjIyNzg1IDAuMTk1OTUsLTAuMzk2NDcgMC41ODc4OSwtMC41MDU4NiAwLjUzNzc1LC0wLjE2NDA0IDEuMTgwMzMsLTAuNDM3NDggMS45Mjc3MywtMC44MjAzMSAwLjYxOTc4LC0wLjMyODExIDEuMDAyNiwtMC40OTIxNyAxLjE0ODQ0LC0wLjQ5MjE5IDAuMzM3MjMsMmUtNSAwLjUwNTg1LDAuMjMyNDQgMC41MDU4NiwwLjY5NzI3IC0xZS01LC0wLjAwOSAtMC4wMTM3LDAuNDQ0MzUgLTAuMDQxLDEuMzYwMzUgLTAuMDI3NCwwLjkxNjAzIC0wLjA0MSwxLjgwNjk4IC0wLjA0MSwyLjY3Mjg1IGwgMCwxMi40Mjc3MyBjIC0xZS01LDAuNTE5NTQgMC4yMzI0MSwwLjc3OTMgMC42OTcyNywwLjc3OTMgMC4xNzMxNiwwIDAuNDA1NTgsLTAuMDI3MyAwLjY5NzI2LC0wLjA4MiAwLjMxOSwtMC4wNTQ3IDAuNTMzMTksMC4wNTAxIDAuNjQyNTgsMC4zMTQ0NSB6IG0gLTQuMjI0NjEsLTEuMzUzNTEgMCwtNC44OTQ1MyBjIC0xZS01LC0wLjQwMTA0IC0wLjM1NTQ4LC0wLjgxNTc1IC0xLjA2NjQxLC0xLjI0NDE0IC0wLjc1NjUxLC0wLjQ1NTcyIC0xLjU3NjgzLC0wLjY4MzU5IC0yLjQ2MDkzLC0wLjY4MzYgLTEuOTA0OTYsMWUtNSAtMi44NTc0MywxLjE3NTc5IC0yLjg1NzQzLDMuNTI3MzUgMCwxLjI1NzgxIDAuMzc4MjYsMi4zMzMzMyAxLjEzNDc3LDMuMjI2NTYgMC43NTY1LDAuODkzMjMgMS42NDUxOCwxLjMzOTg0IDIuNjY2MDIsMS4zMzk4NCAwLjQ2NDgzLDAgMS4wMTE3MSwtMC4xNTQ5NCAxLjY0MDYyLC0wLjQ2NDg0IDAuNjI4OSwtMC4zMDk5IDAuOTQzMzUsLTAuNTc4NzggMC45NDMzNiwtMC44MDY2NCB6IiBzdHlsZT0iZm9udC1zaXplOjI4cHg7Zm9udC12YXJpYW50Om5vcm1hbDtmb250LXN0cmV0Y2g6bm9ybWFsO3RleHQtYWxpZ246ZW5kO2xpbmUtaGVpZ2h0Ojg5Ljk5OTk5NzYyJTt3cml0aW5nLW1vZGU6bHItdGI7dGV4dC1hbmNob3I6ZW5kO2ZvbnQtZmFtaWx5OkhpZ2ggVG93ZXIgVGV4dDstaW5rc2NhcGUtZm9udC1zcGVjaWZpY2F0aW9uOkhpZ2ggVG93ZXIgVGV4dCIgaWQ9InBhdGgyOTEzIi8+CiAgICAgIDxwYXRoIGQ9Im0gMzM5LjIzOTA3LDE3OC43ODUwNyBjIC0xZS01LDEuMTAyODcgLTAuMzE5MDIsMS42NTQzIC0wLjk1NzAzLDEuNjU0MjkgLTAuMTAwMjcsMWUtNSAtMC40MzI5NSwtMC4wNjM4IC0wLjk5ODA0LC0wLjE5MTQgLTAuNTY1MTEsLTAuMTI3NiAtMC45Nzk4MywtMC4xOTE0IC0xLjI0NDE0LC0wLjE5MTQxIC0xLjAyMDg0LDFlLTUgLTEuNTMxMjYsMC42ODgxNiAtMS41MzEyNSwyLjA2NDQ1IGwgMCw0LjAzMzIxIGMgLTEwZS02LDAuNDczOTYgMC4xNjQwNSwwLjgxMTIgMC40OTIxOCwxLjAxMTcyIDAuMTkxNCwwLjExODQ5IDAuNjY5OTIsMC4yNzc5OSAxLjQzNTU1LDAuNDc4NTEgMC40MTAxNSwwLjEwMDI2IDAuNjE1MjMsMC4yNTUyMSAwLjYxNTIzLDAuNDY0ODUgMCwwLjI0NjA5IC0wLjAzNDIsMC4zOTQyIC0wLjEwMjUzLDAuNDQ0MzMgLTAuMDY4NCwwLjA1MDEgLTAuMjM5MjcsMC4wNjE1IC0wLjUxMjcsMC4wMzQyIC0yLjAwNTIxLC0wLjIwOTYzIC0zLjU5MTE1LC0wLjIxODc1IC00Ljc1NzgxLC0wLjAyNzMgLTAuMzY0NTksMC4wNjM4IC0wLjU5NzAxLDAuMDYzOCAtMC42OTcyNywwIC0wLjA4MiwtMC4wNTQ3IC0wLjEyMzA1LC0wLjIxNDE5IC0wLjEyMzA0LC0wLjQ3ODUyIC0xZS01LC0wLjI0NjA5IDAuMjUyOTIsLTAuNDQyMDUgMC43NTg3OCwtMC41ODc4OSAwLjUwNTg2LC0wLjE0NTgzIDAuNzU4NzksLTAuNTgzMzMgMC43NTg3OSwtMS4zMTI1IGwgMCwtNC4zODg2NyBjIDAsLTAuNTc0MjEgLTAuMDc1MiwtMC45NjE1OCAtMC4yMjU1OCwtMS4xNjIxMSAtMC4xNTA0LC0wLjIwMDUxIC0wLjU2MjgzLC0wLjQ2OTM5IC0xLjIzNzMxLC0wLjgwNjY0IGwgLTAuMDgyLC0wLjA0MSBjIC0wLjE4MjI5LC0wLjA5MTEgLTAuMjczNDQsLTAuMjE4NzQgLTAuMjczNDQsLTAuMzgyODEgMCwtMC4xODIyOCAwLjE4Njg1LC0wLjMzNzIzIDAuNTYwNTUsLTAuNDY0ODQgMC42Mjg5LC0wLjIxODc0IDEuMjAzMTIsLTAuNTI4NjQgMS43MjI2NiwtMC45Mjk2OSAwLjQyODM4LC0wLjMzNzIzIDAuNzAxODIsLTAuNTA1ODUgMC44MjAzMSwtMC41MDU4NiAwLjMyODEyLDFlLTUgMC41MjQwOCwwLjI4MjU2IDAuNTg3ODksMC44NDc2NiAwLjA4MiwwLjcyMDA2IDAuMTc3NzMsMS4wODAwOCAwLjI4NzExLDEuMDgwMDggMC4wMDksMCAwLjUxOTUzLC0wLjM0MTc5IDEuNTMxMjUsLTEuMDI1NCAwLjY2NTM2LC0wLjQ0NjYgMS4zOTQ1MiwtMC42Njk5MSAyLjE4NzUsLTAuNjY5OTIgMC42NTYyNCwxZS01IDAuOTg0MzYsMC4zNTA5MiAwLjk4NDM3LDEuMDUyNzQgeiIgc3R5bGU9ImZvbnQtc2l6ZToyOHB4O2ZvbnQtdmFyaWFudDpub3JtYWw7Zm9udC1zdHJldGNoOm5vcm1hbDt0ZXh0LWFsaWduOmVuZDtsaW5lLWhlaWdodDo4OS45OTk5OTc2MiU7d3JpdGluZy1tb2RlOmxyLXRiO3RleHQtYW5jaG9yOmVuZDtmb250LWZhbWlseTpIaWdoIFRvd2VyIFRleHQ7LWlua3NjYXBlLWZvbnQtc3BlY2lmaWNhdGlvbjpIaWdoIFRvd2VyIFRleHQiIGlkPSJwYXRoMjkxNSIvPgogICAgICA8cGF0aCBkPSJtIDM1Mi43ODc5LDE4Mi45Njg2NiBjIC0xMGUtNiwxLjU4NTk0IC0wLjU4NzksMi45MjgwNiAtMS43NjM2Nyw0LjAyNjM3IC0xLjE3NTc5LDEuMDk4MzEgLTIuNjM0MTIsMS42NDc0NiAtNC4zNzUsMS42NDc0NiAtMS43NDA4OSwwIC0zLjExNzE5LC0wLjQ4MzA3IC00LjEyODkxLC0xLjQ0OTIyIC0wLjk3NTI2LC0wLjk0NzkxIC0xLjQ2Mjg5LC0yLjIwMTE3IC0xLjQ2Mjg5LC0zLjc1OTc3IDAsLTEuNjEzMjcgMC42MTUyNCwtMi45NzEzNCAxLjg0NTcxLC00LjA3NDIxIDEuMTk0LC0xLjA2NjQgMi42MjA0MywtMS41OTk2IDQuMjc5MjksLTEuNTk5NjEgMS43NzczNCwxZS01IDMuMTYyNzUsMC40Nzg1MiA0LjE1NjI1LDEuNDM1NTQgMC45NjYxNCwwLjkyOTcgMS40NDkyMSwyLjE4NzUxIDEuNDQ5MjIsMy43NzM0NCB6IG0gLTIuNDA2MjUsMC44MzM5OSBjIC0xMGUtNiwtMS40MzA5OSAtMC4zNDYzNiwtMi41OTMxIC0xLjAzOTA2LC0zLjQ4NjMzIC0wLjY3NDQ5LC0wLjg2NTg4IC0xLjUzMTI2LC0xLjI5ODgyIC0yLjU3MDMxLC0xLjI5ODgzIC0wLjk2NjE1LDFlLTUgLTEuNzU0NTYsMC4zMzk1MyAtMi4zNjUyNCwxLjAxODU1IC0wLjYxMDY4LDAuNjc5MDUgLTAuOTE2MDIsMS41MDYyIC0wLjkxNjAxLDIuNDgxNDUgLTFlLTUsMS41Njc3MSAwLjM1NTQ2LDIuNzg5MDYgMS4wNjY0LDMuNjY0MDYgMC42NTYyNSwwLjgwMjA5IDEuNTEzMDIsMS4yMDMxMyAyLjU3MDMyLDEuMjAzMTMgMS4wMDI1OSwwIDEuNzk1NTYsLTAuMzMyNjggMi4zNzg5LC0wLjk5ODA1IDAuNTgzMzMsLTAuNjY1MzYgMC44NzQ5OSwtMS41MjY2OSAwLjg3NSwtMi41ODM5OCB6IiBzdHlsZT0iZm9udC1zaXplOjI4cHg7Zm9udC12YXJpYW50Om5vcm1hbDtmb250LXN0cmV0Y2g6bm9ybWFsO3RleHQtYWxpZ246ZW5kO2xpbmUtaGVpZ2h0Ojg5Ljk5OTk5NzYyJTt3cml0aW5nLW1vZGU6bHItdGI7dGV4dC1hbmNob3I6ZW5kO2ZvbnQtZmFtaWx5OkhpZ2ggVG93ZXIgVGV4dDstaW5rc2NhcGUtZm9udC1zcGVjaWZpY2F0aW9uOkhpZ2ggVG93ZXIgVGV4dCIgaWQ9InBhdGgyOTE3Ii8+CiAgICAgIDxwYXRoIGQ9Im0gMzY3LjA3NTAxLDE4Mi41OTk1MiBjIC0xZS01LDEuNzA0NDMgLTAuNTcxOTUsMy4xNTEzNyAtMS43MTU4Miw0LjM0MDgyIC0xLjE0Mzg5LDEuMTg5NDUgLTIuNDc2OSwxLjc4NDE4IC0zLjk5OTAyLDEuNzg0MTggLTAuOTIwNTgsMCAtMS44MDkyNSwtMC4xNjQwNiAtMi42NjYwMiwtMC40OTIxOSAtMC4wOTExLC0wLjAzNjUgLTAuMTM2NzIsMC4xODY4NSAtMC4xMzY3MiwwLjY2OTkyIGwgMCw0LjExNTI0IGMgMCwwLjY2NTM2IDAuNTQyMzIsMS4wOTM3NCAxLjYyNjk2LDEuMjg1MTYgMC41MDEyOSwwLjA5MTEgMC44MTgwMiwwLjE3NTQ0IDAuOTUwMTksMC4yNTI5MiAwLjEzMjE2LDAuMDc3NSAwLjE5ODI0LDAuMjA3MzYgMC4xOTgyNCwwLjM4OTY1IDAsMC4zMDk4OSAtMC4yMDUwOCwwLjQ1MTE3IC0wLjYxNTIzLDAuNDIzODMgLTEuOTE0MDcsLTAuMTI3NjEgLTMuNTk1NzEsLTAuMDgyIC01LjA0NDkyLDAuMTM2NzIgLTAuMzAwNzgsMC4wNDU2IC0wLjQ4NzYzLDAuMDQ1NiAtMC41NjA1NSwwIC0wLjA3MjksLTAuMDQ1NiAtMC4xMDkzNywtMC4xNjg2MyAtMC4xMDkzNywtMC4zNjkxNCAwLC0wLjE1NDk1IDAuMjU5NzYsLTAuMzQxOCAwLjc3OTI5LC0wLjU2MDU1IDAuNDQ2NjIsLTAuMTgyMjkgMC42Njk5MiwtMC42MTk3OSAwLjY2OTkzLC0xLjMxMjUgbCAwLC0xMi4wNTg1OSBjIC0xZS01LC0wLjk3NTI1IC0wLjI2ODg5LC0xLjU4NTkzIC0wLjgwNjY1LC0xLjgzMjAzIC0wLjYzODAyLC0wLjI4MjU0IC0wLjk1NzAzLC0wLjUxNDk3IC0wLjk1NzAzLC0wLjY5NzI3IDAsLTAuMjAwNTEgMC4xODY4NSwtMC4zNTA5IDAuNTYwNTUsLTAuNDUxMTcgMC40ODMwNywtMC4xMTg0OCAwLjk3OTgyLC0wLjMyODExIDEuNDkwMjMsLTAuNjI4OTEgMC40MjgzOSwtMC4yNDYwOCAwLjY4ODE1LC0wLjM2OTEzIDAuNzc5MywtMC4zNjkxNCAwLjI3MzQ0LDFlLTUgMC40OTY3NCwwLjI1MDY3IDAuNjY5OTIsMC43NTE5NiAwLjI1NTIxLDAuNzI5MTcgMC40MjM4MywxLjA5Mzc2IDAuNTA1ODYsMS4wOTM3NSAwLjAxODIsMWUtNSAwLjQxMDE1LC0wLjIxNDE5IDEuMTc1NzgsLTAuNjQyNTggMC44Mzg1NCwtMC40NjQ4MyAxLjY1ODg1LC0wLjY5NzI2IDIuNDYwOTQsLTAuNjk3MjcgMS4zMDMzOCwxZS01IDIuMzc4OSwwLjM2OTE1IDMuMjI2NTYsMS4xMDc0MiAxLjAxMTcxLDAuODY1OSAxLjUxNzU3LDIuMTE5MTUgMS41MTc1OCwzLjc1OTc3IHogbSAtMi4zMjQyMiwxLjA5Mzc1IGMgLTEwZS02LC0xLjQ4NTY3IC0wLjM2OTE1LC0yLjY0MzIyIC0xLjEwNzQyLC0zLjQ3MjY2IC0wLjYwMTU3LC0wLjY5MjcgLTEuMzA3OTUsLTEuMDM5MDUgLTIuMTE5MTQsLTEuMDM5MDYgLTAuNjI4OTEsMWUtNSAtMS4yMzA0NywwLjIxODc2IC0xLjgwNDY5LDAuNjU2MjUgLTAuNzU2NTEsMC41NjUxMSAtMS4xMzQ3NywxLjM1MzUyIC0xLjEzNDc2LDIuMzY1MjQgbCAwLDMuODY5MTQgYyAtMWUtNSwwLjI0NjA5IDAuMzQ2MzUsMC41MDU4NiAxLjAzOTA2LDAuNzc5MjkgMC43NDczOSwwLjMwMDc5IDEuNTU4NTksMC40NTExOCAyLjQzMzU5LDAuNDUxMTggMS43OTU1NywwIDIuNjkzMzUsLTEuMjAzMTMgMi42OTMzNiwtMy42MDkzOCB6IiBzdHlsZT0iZm9udC1zaXplOjI4cHg7Zm9udC12YXJpYW50Om5vcm1hbDtmb250LXN0cmV0Y2g6bm9ybWFsO3RleHQtYWxpZ246ZW5kO2xpbmUtaGVpZ2h0Ojg5Ljk5OTk5NzYyJTt3cml0aW5nLW1vZGU6bHItdGI7dGV4dC1hbmNob3I6ZW5kO2ZvbnQtZmFtaWx5OkhpZ2ggVG93ZXIgVGV4dDstaW5rc2NhcGUtZm9udC1zcGVjaWZpY2F0aW9uOkhpZ2ggVG93ZXIgVGV4dCIgaWQ9InBhdGgyOTE5Ii8+CiAgICAgIDxwYXRoIGQ9Im0gMzg3LjMzNjczLDE4Ny4xNjU5MyBjIC0xMGUtNiwwLjE5MTQgLTAuMzQ4NjQsMC40ODA3OSAtMS4wNDU5LDAuODY4MTYgLTAuNjk3MjcsMC4zODczNyAtMS4yNTU1NCwwLjU4MTA2IC0xLjY3NDgsMC41ODEwNiAtMC4zNTU0OCwwIC0wLjY2OTkzLC0wLjE3MzE4IC0wLjk0MzM2LC0wLjUxOTU0IC0wLjI3MzQ1LC0wLjM0NjM1IC0wLjQ2NDg1LC0wLjUxOTUzIC0wLjU3NDIyLC0wLjUxOTUzIC0wLjA4MiwwIC0wLjUxNDk4LDAuMTg2ODUgLTEuMjk4ODMsMC41NjA1NSAtMC43ODM4NiwwLjM3MzcgLTEuNTcyMjcsMC41NjA1NSAtMi4zNjUyMywwLjU2MDU1IC0wLjc0NzQsMCAtMS4zNzE3NSwtMC4yMTg3NSAtMS44NzMwNSwtMC42NTYyNSAtMC41NDY4OCwtMC40ODMwOCAtMC44MjAzMSwtMS4xMzkzMiAtMC44MjAzMSwtMS45Njg3NSAwLC0xLjU3NjgyIDEuODA0NjgsLTIuNzA3MDMgNS40MTQwNiwtMy4zOTA2MyAwLjYxOTc4LC0wLjExODQ4IDAuOTM0MjQsLTAuMzY5MTMgMC45NDMzNiwtMC43NTE5NSBsIDAuMDI3MywtMC44NzUgYyAwLjA1NDcsLTEuNDk0NzggLTAuNjA2MTIsLTIuMjQyMTggLTEuOTgyNDIsLTIuMjQyMTkgLTAuMzkxOTMsMWUtNSAtMC43NjMzNSwwLjM1MDkyIC0xLjExNDI2LDEuMDUyNzQgLTAuMzUwOTEsMC43MDE4MyAtMC44NTQ0OSwxLjA4MDA4IC0xLjUxMDc0LDEuMTM0NzYgLTAuNzQ3NCwwLjA3MjkgLTEuMTIxMDksLTAuMjQxNTMgLTEuMTIxMDksLTAuOTQzMzYgMCwtMC40Mzc0OSAwLjU1NTk4LC0wLjk0NzkxIDEuNjY3OTcsLTEuNTMxMjUgMS4xNjY2NiwtMC42MTA2NyAyLjI4Nzc1LC0wLjkxNiAzLjM2MzI4LC0wLjkxNjAxIDEuODUwMjUsMWUtNSAyLjc2NjI2LDAuODc5NTYgMi43NDgwNCwyLjYzODY3IGwgLTAuMDU0Nyw1LjYzMjgxIGMgLTAuMDA5LDAuNTkyNDUgMC4yNDE1MiwwLjg4ODY3IDAuNzUxOTUsMC44ODg2NyAwLjEwMDI1LDAgMC4yOTE2NiwtMC4wMjI4IDAuNTc0MjIsLTAuMDY4NCAwLjI4MjU0LC0wLjA0NTYgMC40NDY2LC0wLjA2ODMgMC40OTIxOSwtMC4wNjg0IDAuMjY0MzEsMWUtNSAwLjM5NjQ3LDAuMTc3NzQgMC4zOTY0OCwwLjUzMzIxIHogbSAtNC4yMTA5NCwtMy4xMTcxOSBjIDAuMDA5LC0wLjIyNzg2IC0wLjA0MzMsLTAuMzc4MjUgLTAuMTU3MjIsLTAuNDUxMTcgLTAuMTEzOTQsLTAuMDcyOSAtMC4yOTM5NiwtMC4wODY2IC0wLjU0MDA0LC0wLjA0MSAtMi4xOTY2MiwwLjM5MTkzIC0zLjI5NDkzLDEuMTA3NDMgLTMuMjk0OTIsMi4xNDY0OSAtMTBlLTYsMS4wNDgxNyAwLjU2OTY1LDEuNTcyMjYgMS43MDg5OCwxLjU3MjI2IDAuNDU1NzIsMCAwLjkyNTEyLC0wLjA4NjYgMS40MDgyLC0wLjI1OTc2IDAuNTY1MSwtMC4yMDA1MiAwLjg0NzY1LC0wLjQ0MjA2IDAuODQ3NjYsLTAuNzI0NjEgeiIgc3R5bGU9ImZvbnQtc2l6ZToyOHB4O2ZvbnQtdmFyaWFudDpub3JtYWw7Zm9udC1zdHJldGNoOm5vcm1hbDt0ZXh0LWFsaWduOmVuZDtsaW5lLWhlaWdodDo4OS45OTk5OTc2MiU7d3JpdGluZy1tb2RlOmxyLXRiO3RleHQtYW5jaG9yOmVuZDtmb250LWZhbWlseTpIaWdoIFRvd2VyIFRleHQ7LWlua3NjYXBlLWZvbnQtc3BlY2lmaWNhdGlvbjpIaWdoIFRvd2VyIFRleHQiIGlkPSJwYXRoMjkyMSIvPgogICAgICA8cGF0aCBkPSJtIDM5Ni41MjQyMywxODcuMTkzMjcgYyAtMTBlLTYsMC40Mzc1IC0wLjQwMTA1LDAuODExMiAtMS4yMDMxMiwxLjEyMTA5IC0wLjcxMDk1LDAuMjczNDQgLTEuNDMxLDAuNDEwMTYgLTIuMTYwMTYsMC40MTAxNiAtMS45Nzc4NywwIC0yLjk2NjgsLTEuMDUyNzMgLTIuOTY2OCwtMy4xNTgyIGwgMCwtNC45NDkyMiBjIDAsLTAuNjI4OSAtMC4wNTAxLC0xLjAxMzk5IC0wLjE1MDM5LC0xLjE1NTI4IC0wLjEwMDI2LC0wLjE0MTI2IC0wLjQzMjk0LC0wLjI4MDI2IC0wLjk5ODA0LC0wLjQxNjk5IC0wLjE0NTg0LC0wLjAzNjUgLTAuMjE4NzYsLTAuMTc3NzIgLTAuMjE4NzUsLTAuNDIzODMgLTFlLTUsLTAuMjY0MzEgMC4wNTQ3LC0wLjQyMzgxIDAuMTY0MDYsLTAuNDc4NTEgMC45ODQzNywtMC40ODMwNiAxLjg0MTE0LC0xLjM0ODk1IDIuNTcwMzEsLTIuNTk3NjYgMC4xMDAyNiwtMC4xNzMxNiAwLjI5NjIyLC0wLjIyNzg1IDAuNTg3ODksLTAuMTY0MDYgMC4yMDA1MiwwLjA2MzggMC4zMDUzMywwLjE4MjMgMC4zMTQ0NSwwLjM1NTQ3IGwgMC4wNTQ3LDEuNzA4OTggYyAwLDAuMTI3NjIgMC4wMjI4LDAuMjE4NzYgMC4wNjg0LDAuMjczNDQgMC4wNjM4LDAuMDgyIDAuMjA5NjMsMC4xMjMwNiAwLjQzNzUsMC4xMjMwNSBsIDMuMDQ4ODMsMCBjIDAuMTczMTcsMWUtNSAwLjE3MzE3LDAuMjE0MiAwLDAuNjQyNTggLTAuMjA5NjQsMC41MTk1NCAtMC41MTk1NCwwLjc3OTMgLTAuOTI5NjksMC43NzkyOSBsIC0yLjA2NDQ1LDAgYyAtMC4zNTU0OCwxZS01IC0wLjU3NDIyLDAuMDU5MyAtMC42NTYyNSwwLjE3Nzc0IC0wLjA2MzgsMC4wODIgLTAuMDk1NywwLjMwNTM0IC0wLjA5NTcsMC42Njk5MiBsIDAsNC40NzA3IGMgLTFlLTUsMS4xMzAyMSAwLjEwMDI1LDEuODQ1NzEgMC4zMDA3OCwyLjE0NjQ5IDAuMjY0MzEsMC4zODI4MSAwLjg3OTU1LDAuNTc0MjIgMS44NDU3LDAuNTc0MjIgMC4zMTksMCAwLjcwNjM3LC0wLjA1MjQgMS4xNjIxMSwtMC4xNTcyMyAwLjQ1NTcyLC0wLjEwNDgyIDAuNjk3MjYsLTAuMTU3MjMgMC43MjQ2MSwtMC4xNTcyMyAwLjEwOTM2LDAgMC4xNjQwNSwwLjA2ODQgMC4xNjQwNiwwLjIwNTA4IHoiIHN0eWxlPSJmb250LXNpemU6MjhweDtmb250LXZhcmlhbnQ6bm9ybWFsO2ZvbnQtc3RyZXRjaDpub3JtYWw7dGV4dC1hbGlnbjplbmQ7bGluZS1oZWlnaHQ6ODkuOTk5OTk3NjIlO3dyaXRpbmctbW9kZTpsci10Yjt0ZXh0LWFuY2hvcjplbmQ7Zm9udC1mYW1pbHk6SGlnaCBUb3dlciBUZXh0Oy1pbmtzY2FwZS1mb250LXNwZWNpZmljYXRpb246SGlnaCBUb3dlciBUZXh0IiBpZD0icGF0aDI5MjMiLz4KICAgICAgPHBhdGggZD0ibSA0MTYuMzIxMTEsMTg3LjE2NTkzIGMgLTJlLTUsMC4xOTE0IC0wLjM0ODY1LDAuNDgwNzkgLTEuMDQ1OSwwLjg2ODE2IC0wLjY5NzI4LDAuMzg3MzcgLTEuMjU1NTUsMC41ODEwNiAtMS42NzQ4MSwwLjU4MTA2IC0wLjM1NTQ3LDAgLTAuNjY5OTMsLTAuMTczMTggLTAuOTQzMzYsLTAuNTE5NTQgLTAuMjczNDQsLTAuMzQ2MzUgLTAuNDY0ODUsLTAuNTE5NTMgLTAuNTc0MjIsLTAuNTE5NTMgLTAuMDgyLDAgLTAuNTE0OTgsMC4xODY4NSAtMS4yOTg4MiwwLjU2MDU1IC0wLjc4Mzg2LDAuMzczNyAtMS41NzIyNywwLjU2MDU1IC0yLjM2NTI0LDAuNTYwNTUgLTAuNzQ3NCwwIC0xLjM3MTc1LC0wLjIxODc1IC0xLjg3MzA0LC0wLjY1NjI1IC0wLjU0Njg4LC0wLjQ4MzA4IC0wLjgyMDMyLC0xLjEzOTMyIC0wLjgyMDMyLC0xLjk2ODc1IDAsLTEuNTc2ODIgMS44MDQ2OSwtMi43MDcwMyA1LjQxNDA3LC0zLjM5MDYzIDAuNjE5NzgsLTAuMTE4NDggMC45MzQyMywtMC4zNjkxMyAwLjk0MzM1LC0wLjc1MTk1IGwgMC4wMjczLC0wLjg3NSBjIDAuMDU0NywtMS40OTQ3OCAtMC42MDYxMywtMi4yNDIxOCAtMS45ODI0MiwtMi4yNDIxOSAtMC4zOTE5NCwxZS01IC0wLjc2MzM1LDAuMzUwOTIgLTEuMTE0MjYsMS4wNTI3NCAtMC4zNTA5MiwwLjcwMTgzIC0wLjg1NDUsMS4wODAwOCAtMS41MTA3NCwxLjEzNDc2IC0wLjc0NzQsMC4wNzI5IC0xLjEyMTEsLTAuMjQxNTMgLTEuMTIxMSwtMC45NDMzNiAwLC0wLjQzNzQ5IDAuNTU1OTksLTAuOTQ3OTEgMS42Njc5NywtMS41MzEyNSAxLjE2NjY2LC0wLjYxMDY3IDIuMjg3NzYsLTAuOTE2IDMuMzYzMjgsLTAuOTE2MDEgMS44NTAyNSwxZS01IDIuNzY2MjcsMC44Nzk1NiAyLjc0ODA1LDIuNjM4NjcgbCAtMC4wNTQ3LDUuNjMyODEgYyAtMC4wMDksMC41OTI0NSAwLjI0MTUzLDAuODg4NjcgMC43NTE5NiwwLjg4ODY3IDAuMTAwMjUsMCAwLjI5MTY1LC0wLjAyMjggMC41NzQyMSwtMC4wNjg0IDAuMjgyNTQsLTAuMDQ1NiAwLjQ0NjYxLC0wLjA2ODMgMC40OTIxOSwtMC4wNjg0IDAuMjY0MzEsMWUtNSAwLjM5NjQ3LDAuMTc3NzQgMC4zOTY0OSwwLjUzMzIxIHogbSAtNC4yMTA5NCwtMy4xMTcxOSBjIDAuMDA5LC0wLjIyNzg2IC0wLjA0MzMsLTAuMzc4MjUgLTAuMTU3MjMsLTAuNDUxMTcgLTAuMTEzOTQsLTAuMDcyOSAtMC4yOTM5NSwtMC4wODY2IC0wLjU0MDA0LC0wLjA0MSAtMi4xOTY2MiwwLjM5MTkzIC0zLjI5NDkyLDEuMTA3NDMgLTMuMjk0OTIsMi4xNDY0OSAwLDEuMDQ4MTcgMC41Njk2NiwxLjU3MjI2IDEuNzA4OTksMS41NzIyNiAwLjQ1NTcyLDAgMC45MjUxMiwtMC4wODY2IDEuNDA4MiwtMC4yNTk3NiAwLjU2NTEsLTAuMjAwNTIgMC44NDc2NSwtMC40NDIwNiAwLjg0NzY1LC0wLjcyNDYxIHoiIHN0eWxlPSJmb250LXNpemU6MjhweDtmb250LXZhcmlhbnQ6bm9ybWFsO2ZvbnQtc3RyZXRjaDpub3JtYWw7dGV4dC1hbGlnbjplbmQ7bGluZS1oZWlnaHQ6ODkuOTk5OTk3NjIlO3dyaXRpbmctbW9kZTpsci10Yjt0ZXh0LWFuY2hvcjplbmQ7Zm9udC1mYW1pbHk6SGlnaCBUb3dlciBUZXh0Oy1pbmtzY2FwZS1mb250LXNwZWNpZmljYXRpb246SGlnaCBUb3dlciBUZXh0IiBpZD0icGF0aDI5MjUiLz4KICAgICAgPHBhdGggZD0ibSA0MzIuNDUzOTIsMTg3LjE5MzI3IGMgLTEwZS02LDAuNDM3NSAtMC40MDEwNSwwLjgxMTIgLTEuMjAzMTMsMS4xMjEwOSAtMC43MTA5NCwwLjI3MzQ0IC0xLjQzMDk5LDAuNDEwMTYgLTIuMTYwMTUsMC40MTAxNiAtMS45Nzc4NywwIC0yLjk2NjgsLTEuMDUyNzMgLTIuOTY2OCwtMy4xNTgyIGwgMCwtNC45NDkyMiBjIDAsLTAuNjI4OSAtMC4wNTAxLC0xLjAxMzk5IC0wLjE1MDM5LC0xLjE1NTI4IC0wLjEwMDI2LC0wLjE0MTI2IC0wLjQzMjk0LC0wLjI4MDI2IC0wLjk5ODA1LC0wLjQxNjk5IC0wLjE0NTgzLC0wLjAzNjUgLTAuMjE4NzUsLTAuMTc3NzIgLTAuMjE4NzUsLTAuNDIzODMgMCwtMC4yNjQzMSAwLjA1NDcsLTAuNDIzODEgMC4xNjQwNywtMC40Nzg1MSAwLjk4NDM3LC0wLjQ4MzA2IDEuODQxMTQsLTEuMzQ4OTUgMi41NzAzMSwtMi41OTc2NiAwLjEwMDI1LC0wLjE3MzE2IDAuMjk2MjIsLTAuMjI3ODUgMC41ODc4OSwtMC4xNjQwNiAwLjIwMDUxLDAuMDYzOCAwLjMwNTMzLDAuMTgyMyAwLjMxNDQ1LDAuMzU1NDcgbCAwLjA1NDcsMS43MDg5OCBjIC0xMGUtNiwwLjEyNzYyIDAuMDIyOCwwLjIxODc2IDAuMDY4NCwwLjI3MzQ0IDAuMDYzOCwwLjA4MiAwLjIwOTYzLDAuMTIzMDYgMC40Mzc1LDAuMTIzMDUgbCAzLjA0ODgzLDAgYyAwLjE3MzE3LDFlLTUgMC4xNzMxNywwLjIxNDIgMCwwLjY0MjU4IC0wLjIwOTY1LDAuNTE5NTQgLTAuNTE5NTQsMC43NzkzIC0wLjkyOTY5LDAuNzc5MjkgbCAtMi4wNjQ0NSwwIGMgLTAuMzU1NDgsMWUtNSAtMC41NzQyMywwLjA1OTMgLTAuNjU2MjUsMC4xNzc3NCAtMC4wNjM4LDAuMDgyIC0wLjA5NTcsMC4zMDUzNCAtMC4wOTU3LDAuNjY5OTIgbCAwLDQuNDcwNyBjIDAsMS4xMzAyMSAwLjEwMDI2LDEuODQ1NzEgMC4zMDA3OCwyLjE0NjQ5IDAuMjY0MzIsMC4zODI4MSAwLjg3OTU2LDAuNTc0MjIgMS44NDU3MSwwLjU3NDIyIDAuMzE5LDAgMC43MDYzNywtMC4wNTI0IDEuMTYyMTEsLTAuMTU3MjMgMC40NTU3MiwtMC4xMDQ4MiAwLjY5NzI1LC0wLjE1NzIzIDAuNzI0NjEsLTAuMTU3MjMgMC4xMDkzNiwwIDAuMTY0MDUsMC4wNjg0IDAuMTY0MDYsMC4yMDUwOCB6IiBzdHlsZT0iZm9udC1zaXplOjI4cHg7Zm9udC12YXJpYW50Om5vcm1hbDtmb250LXN0cmV0Y2g6bm9ybWFsO3RleHQtYWxpZ246ZW5kO2xpbmUtaGVpZ2h0Ojg5Ljk5OTk5NzYyJTt3cml0aW5nLW1vZGU6bHItdGI7dGV4dC1hbmNob3I6ZW5kO2ZvbnQtZmFtaWx5OkhpZ2ggVG93ZXIgVGV4dDstaW5rc2NhcGUtZm9udC1zcGVjaWZpY2F0aW9uOkhpZ2ggVG93ZXIgVGV4dCIgaWQ9InBhdGgyOTI3Ii8+CiAgICAgIDxwYXRoIGQ9Im0gNDM5LjMwMzUzLDE3Mi42NjAwNyBjIC0xZS01LDAuNDE5MjggLTAuMTU3MjMsMC44MDg5MyAtMC40NzE2OCwxLjE2ODk0IC0wLjMxNDQ2LDAuMzYwMDQgLTAuNjU4NTQsMC41NDAwNiAtMS4wMzIyMywwLjU0MDA0IC0wLjQyODM5LDJlLTUgLTAuNzc5MywtMC4xMjc1OSAtMS4wNTI3MywtMC4zODI4MSAtMC4yNzM0NCwtMC4yNTUxOSAtMC40MTAxNiwtMC41ODc4OCAtMC40MTAxNiwtMC45OTgwNSAwLC0wLjQwMTAyIDAuMTY2MzQsLTAuNzc0NzIgMC40OTkwMiwtMS4xMjEwOSAwLjMzMjY4LC0wLjM0NjM0IDAuNjkwNDMsLTAuNTE5NTIgMS4wNzMyNSwtMC41MTk1MyAwLjkyOTY4LDFlLTUgMS4zOTQ1MiwwLjQzNzUxIDEuMzk0NTMsMS4zMTI1IHogbSAxLjUxNzU4LDE1LjQ3NjU2IGMgLTAuMDQ1NiwwLjI2NDMyIC0wLjE1NDk2LDAuNDE0NzEgLTAuMzI4MTMsMC40NTExNyAtMC4wNDU2LDAuMDA5IC0wLjI2NDMzLDAgLTAuNjU2MjUsLTAuMDI3MyAtMS4zNTgwOCwtMC4wOTExIC0yLjY5MzM2LC0wLjA3MjkgLTQuMDA1ODYsMC4wNTQ3IC0wLjM1NTQ3LDAuMDM2NSAtMC41Nzg3OCwwLjAyMjggLTAuNjY5OTIsLTAuMDQxIC0wLjA5MTIsLTAuMDYzOCAtMC4xMzY3MiwtMC4yMDk2NCAtMC4xMzY3MiwtMC40Mzc1IDAsLTAuMjA5NjQgMC4yNDE1NCwtMC4zODI4MSAwLjcyNDYxLC0wLjUxOTUzIDAuNTI4NjQsLTAuMTU0OTUgMC43OTI5NywtMC42NjA4MSAwLjc5Mjk3LC0xLjUxNzU4IGwgMCwtMy41ODIwMyBjIDAsLTAuNzIwMDUgLTAuMDcyOSwtMS4yMjU5MSAtMC4yMTg3NSwtMS41MTc1OCAtMC4yMDA1MiwtMC40MDEwMyAtMC42MTUyNCwtMC43MDYzNyAtMS4yNDQxNCwtMC45MTYwMSAtMC4yODI1NiwtMC4xMDAyNiAtMC40MjM4MywtMC4yNTA2NSAtMC40MjM4MywtMC40NTExOCAwLC0wLjI2NDMxIDAuMjA1MDgsLTAuNDYwMjcgMC42MTUyMywtMC41ODc4OSAwLjc2NTYzLC0wLjIzNjk3IDEuNDQ0NjYsLTAuNTUxNDIgMi4wMzcxMSwtMC45NDMzNiAwLjQ3Mzk2LC0wLjMyODExIDAuNzY1NjIsLTAuNDkyMTcgMC44NzUsLTAuNDkyMTggMC4zNjQ1OCwxZS01IDAuNTQyMzIsMC4yMzY5OSAwLjUzMzIxLDAuNzEwOTMgLTAuMDM2NSwyLjM4ODAzIC0wLjA1NDcsNC44MjE2MiAtMC4wNTQ3LDcuMzAwNzggLTEwZS02LDAuNTkyNDUgMC4wODY2LDEuMDE2MjggMC4yNTk3NywxLjI3MTQ5IDAuMTkxNCwwLjI4MjU1IDAuNTU1OTgsMC40ODMwNyAxLjA5Mzc1LDAuNjAxNTYgMC41OTI0NCwwLjEzNjcyIDAuODYxMzIsMC4zNTA5MSAwLjgwNjY0LDAuNjQyNTggeiIgc3R5bGU9ImZvbnQtc2l6ZToyOHB4O2ZvbnQtdmFyaWFudDpub3JtYWw7Zm9udC1zdHJldGNoOm5vcm1hbDt0ZXh0LWFsaWduOmVuZDtsaW5lLWhlaWdodDo4OS45OTk5OTc2MiU7d3JpdGluZy1tb2RlOmxyLXRiO3RleHQtYW5jaG9yOmVuZDtmb250LWZhbWlseTpIaWdoIFRvd2VyIFRleHQ7LWlua3NjYXBlLWZvbnQtc3BlY2lmaWNhdGlvbjpIaWdoIFRvd2VyIFRleHQiIGlkPSJwYXRoMjkyOSIvPgogICAgICA8cGF0aCBkPSJtIDQ2NC44OTcyOCwxODguMTA5MjkgYyAtM2UtNSwwLjMwMDc4IC0wLjE0MTMsMC40NDIwNSAtMC40MjM4MywwLjQyMzgyIC0xLjg1OTQsLTAuMTM2NzEgLTMuNTkxMTcsLTAuMTM2NzEgLTUuMTk1MzEsMCAtMC4zNTU0OSwwLjAyNzQgLTAuNTMzMjIsLTAuMTMyMTYgLTAuNTMzMjEsLTAuNDc4NTEgLTFlLTUsLTAuMjczNDQgMC4yNDE1MiwtMC40MTkyNyAwLjcyNDYxLC0wLjQzNzUgMC42MTA2NiwtMC4wMzY1IDAuOTE2LC0wLjUzMzIgMC45MTYwMiwtMS40OTAyNCBsIDAsLTMuNjM2NzEgYyAtMmUtNSwtMi4wNDE2NiAtMC44Mjk0NSwtMy4wNjI1IC0yLjQ4ODI4LC0zLjA2MjUgLTAuODc1MDIsMCAtMS42NzcxLDAuMTU5NTEgLTIuNDA2MjUsMC40Nzg1MSAtMC42NjUzOCwwLjI4MjU2IC0xLjAwMjYyLDAuNTY1MTEgLTEuMDExNzIsMC44NDc2NiBsIC0wLjA1NDcsNS40Mjc3MyBjIC0xMGUtNiwwLjU2NTExIDAuMDY4NCwwLjkzODggMC4yMDUwOCwxLjEyMTEgMC4xMDAyNSwwLjEyNzYgMC4zMjM1NSwwLjIxODc1IDAuNjY5OTIsMC4yNzM0MyAwLjgwMjA3LDAuMTM2NzIgMS4yMDMxMSwwLjMwNTM0IDEuMjAzMTMsMC41MDU4NiAtMmUtNSwwLjE3MzE4IC0wLjAyMjgsMC4yOTE2NyAtMC4wNjg0LDAuMzU1NDcgLTAuMDU0NywwLjA5MTEgLTAuMjE4NzcsMC4xMzIxNiAtMC40OTIxOSwwLjEyMzA1IC0xLjAzOTA4LC0wLjAzNjUgLTIuNTUyMSwtMC4wMTgyIC00LjUzOTA2LDAuMDU0NyAtMC4yODI1NiwwLjAwOSAtMC40NjQ4NiwtMC4wMTM3IC0wLjU0Njg4LC0wLjA2ODQgLTAuMDgyLC0wLjA1NDcgLTAuMTIzMDUsLTAuMTgyMyAtMC4xMjMwNCwtMC4zODI4MiAtMTBlLTYsLTAuMjM2OTggMC4yNTk3NSwtMC4zODI4MSAwLjc3OTI5LC0wLjQzNzUgMC41NjUxLC0wLjA2MzggMC44NDc2NSwtMC41Nzg3NyAwLjg0NzY2LC0xLjU0NDkyIGwgMCwtMy43MTg3NSBjIC0xMGUtNiwtMS4wMDI2IC0wLjIyNzg4LC0xLjc3NzMzIC0wLjY4MzYsLTIuMzI0MjIgLTAuNDAxMDUsLTAuNDkyMTggLTAuOTExNDYsLTAuNzM4MjcgLTEuNTMxMjUsLTAuNzM4MjggLTAuOTExNDYsMWUtNSAtMS43MzE3NywwLjE4NDU4IC0yLjQ2MDkzLDAuNTUzNzEgLTAuNzI5MTcsMC4zNjkxNSAtMS4wOTM3NiwwLjc2MzM2IC0xLjA5Mzc1LDEuMTgyNjIgbCAwLDQuOTkwMjMgYyAtMWUtNSwwLjU2NTExIDAuMTQ1ODMsMC45NTcwNCAwLjQzNzUsMS4xNzU3OSAwLjI2NDMxLDAuMjAwNTIgMC43NDI4MywwLjMyMzU2IDEuNDM1NTQsMC4zNjkxNCAwLjM3MzY5LDAuMDE4MiAwLjU2MDU0LDAuMTQ1ODMgMC41NjA1NSwwLjM4MjgxIC0xMGUtNiwwLjI2NDMyIC0wLjE1MDQsMC4zOTY0OCAtMC40NTExNywwLjM5NjQ4IC0yLjI3ODY1LDAgLTMuOTI4MzksMC4wNjM4IC00Ljk0OTIyLDAuMTkxNDEgLTAuMzQ2MzYsMC4wNDU2IC0wLjU2OTY2LDAuMDQ1NiAtMC42Njk5MiwwIC0wLjA4MiwtMC4wNDU2IC0wLjEyMzA1LC0wLjE1NDk1IC0wLjEyMzA1LC0wLjMyODEzIDAsLTAuMjI3ODYgMC4zMzcyNCwtMC40MjM4MiAxLjAxMTcyLC0wLjU4Nzg5IDAuNDEwMTUsLTAuMTA5MzcgMC42MTUyMywtMC42NDI1NyAwLjYxNTIzLC0xLjU5OTYxIGwgMCwtNC4xOTcyNiBjIDAsLTEuMDY2NCAtMC4yODcxMSwtMS42ODE2MyAtMC44NjEzMiwtMS44NDU3IC0wLjQ4MzA4LC0wLjEzNjcyIC0wLjc3NzAyLC0wLjIzNjk4IC0wLjg4MTg0LC0wLjMwMDc5IC0wLjEwNDgyLC0wLjA2MzggLTAuMTU3MjMsLTAuMTY4NjEgLTAuMTU3MjMsLTAuMzE0NDUgMCwtMC4xNjQwNSAwLjQ3Mzk2LC0wLjUxMDQxIDEuNDIxODgsLTEuMDM5MDYgMS4wMDI2LC0wLjU2NTEgMS42MTc4MywtMC44NDc2NSAxLjg0NTcsLTAuODQ3NjYgMC4xOTE0LDFlLTUgMC4zNTMxOSwwLjI3NTczIDAuNDg1MzUsMC44MjcxNSAwLjEzMjE2LDAuNTUxNDQgMC4yMzQ3LDAuODI3MTYgMC4zMDc2MiwwLjgyNzE1IDAuMTAwMjYsMWUtNSAwLjM3ODI1LC0wLjE0MTI3IDAuODMzOTksLTAuNDIzODMgMC41NjUwOSwtMC4zNTU0NiAxLjA3NTUxLC0wLjYxOTc4IDEuNTMxMjUsLTAuNzkyOTcgMC43NDczOCwtMC4yOTE2NSAxLjUxNzU2LC0wLjQzNzQ5IDIuMzEwNTQsLTAuNDM3NSAwLjYzODAxLDFlLTUgMS4xOTQsMC4xMzY3MyAxLjY2Nzk3LDAuNDEwMTYgMC4zMjgxMSwwLjE4MjMgMC42MjQzNCwwLjQzMjk1IDAuODg4NjcsMC43NTE5NSAwLjIxODc0LDAuMjczNDUgMC4zMjgxMiwwLjQxMDE3IDAuMzI4MTMsMC40MTAxNiAtMTBlLTYsMWUtNSAwLjIzNjk2LC0wLjEzNjcxIDAuNzEwOTQsLTAuNDEwMTYgMC41NTU5NywtMC4zMTkgMS4wOTgyOSwtMC41Njk2NSAxLjYyNjk1LC0wLjc1MTk1IDAuNzc0NzIsLTAuMjczNDMgMS41MjY2NywtMC40MTAxNSAyLjI1NTg2LC0wLjQxMDE2IDIuNDk3MzcsMWUtNSAzLjc0NjA3LDEuMzcxNzYgMy43NDYwOSw0LjExNTI0IGwgMCw0LjQyOTY4IGMgLTJlLTUsMC41MTk1NCAwLjEyMzAzLDAuODg4NjggMC4zNjkxNCwxLjEwNzQzIDAuMjE4NzMsMC4xODIyOSAwLjY0NzEyLDAuMzM3MjQgMS4yODUxNiwwLjQ2NDg0IDAuNDgzMDUsMC4wOTExIDAuNzI0NTgsMC4yMjc4NiAwLjcyNDYxLDAuNDEwMTYgeiIgc3R5bGU9ImZvbnQtc2l6ZToyOHB4O2ZvbnQtdmFyaWFudDpub3JtYWw7Zm9udC1zdHJldGNoOm5vcm1hbDt0ZXh0LWFsaWduOmVuZDtsaW5lLWhlaWdodDo4OS45OTk5OTc2MiU7d3JpdGluZy1tb2RlOmxyLXRiO3RleHQtYW5jaG9yOmVuZDtmb250LWZhbWlseTpIaWdoIFRvd2VyIFRleHQ7LWlua3NjYXBlLWZvbnQtc3BlY2lmaWNhdGlvbjpIaWdoIFRvd2VyIFRleHQiIGlkPSJwYXRoMjkzMSIvPgogICAgICA8cGF0aCBkPSJtIDQ3Ni40NTAwMSwxODYuMTgxNTUgYyAtMWUtNSwwLjM5MTkzIC0wLjUyODY1LDAuODc5NTYgLTEuNTg1OTQsMS40NjI4OSAtMS4yMDMxMywwLjY0NzE0IC0yLjQzODE1LDAuOTcwNzEgLTMuNzA1MDcsMC45NzA3MSAtMS4zNzYzMSwwIC0yLjUzMzg2LC0wLjQ1MTE4IC0zLjQ3MjY2LC0xLjM1MzUyIC0xLjAwMjYxLC0wLjk1NzAzIC0xLjUwMzkxLC0yLjIzMzA3IC0xLjUwMzkxLC0zLjgyODEzIDAsLTEuODA0NjggMC41NjA1NSwtMy4yNTM4OSAxLjY4MTY0LC00LjM0NzY1IDEuMDQ4MTgsLTEuMDIwODIgMi4zMzMzMywtMS41MzEyNCAzLjg1NTQ3LC0xLjUzMTI1IDAuOTAyMzQsMWUtNSAxLjc0NTQ0LDAuMjg3MTIgMi41MjkzLDAuODYxMzMgMC43MDE4MSwwLjUxMDQyIDEuMTY2NjYsMS4wOTM3NiAxLjM5NDUzLDEuNzUgMC4wODIsMC4yMjc4NyAwLjIwNTA3LDAuMzU1NDcgMC4zNjkxNCwwLjM4MjgxIDAuMjM2OTcsMC4wNDU2IDAuMzU1NDYsMC4yMDUwOCAwLjM1NTQ3LDAuNDc4NTEgLTEwZS02LDAuMzczNzEgLTAuNDQ2NjIsMC42OTI3MiAtMS4zMzk4NCwwLjk1NzA0IGwgLTYuMzAyNzQsMS44NzMwNCBjIDAuNDEwMTYsMi4xNjkyOCAxLjUyMjEzLDMuMjUzOTEgMy4zMzU5NCwzLjI1MzkxIDEuMDQ4MTcsMCAyLjI0MjE4LC0wLjM4MjgxIDMuNTgyMDMsLTEuMTQ4NDQgMC4yMDA1MSwtMC4xMTg0OSAwLjM5NjQ4LC0wLjE3NzczIDAuNTg3ODksLTAuMTc3NzMgMC4xNDU4MiwwIDAuMjE4NzQsMC4xMzIxNiAwLjIxODc1LDAuMzk2NDggeiBtIC0zLjI0MDIzLC01LjQ4MjQyIGMgLTFlLTUsLTAuNTAxMjkgLTAuMjAyODEsLTAuOTQxMDcgLTAuNjA4NCwtMS4zMTkzNCAtMC40MDU2MSwtMC4zNzgyNCAtMC45MDQ2MywtMC41NjczNyAtMS40OTcwNywtMC41NjczOCAtMS42NzcwOSwxZS01IC0yLjUxNTYzLDEuMjA3NjkgLTIuNTE1NjMsMy42MjMwNSBsIDAsMC4zMjgxMiAzLjcxODc1LC0xLjEyMTA5IGMgMC42MDE1NiwtMC4xNzMxNyAwLjkwMjM0LC0wLjQ4NzYyIDAuOTAyMzUsLTAuOTQzMzYgeiIgc3R5bGU9ImZvbnQtc2l6ZToyOHB4O2ZvbnQtdmFyaWFudDpub3JtYWw7Zm9udC1zdHJldGNoOm5vcm1hbDt0ZXh0LWFsaWduOmVuZDtsaW5lLWhlaWdodDo4OS45OTk5OTc2MiU7d3JpdGluZy1tb2RlOmxyLXRiO3RleHQtYW5jaG9yOmVuZDtmb250LWZhbWlseTpIaWdoIFRvd2VyIFRleHQ7LWlua3NjYXBlLWZvbnQtc3BlY2lmaWNhdGlvbjpIaWdoIFRvd2VyIFRleHQiIGlkPSJwYXRoMjkzMyIvPgogICAgPC9nPgogIDwvZz4KPHNjcmlwdCB4bWxucz0iIi8+PC9zdmc+;" vertex="1" parent="1">
          <mxGeometry x="299" y="460" width="230" height="90" as="geometry" />
        </mxCell>
      </root>
    </mxGraphModel>
  </diagram>
</mxfile>
